<?xml version="1.0" standalone="no"?>
<!DOCTYPE svg PUBLIC "-//W3C//DTD SVG 1.1//EN" "http://www.w3.org/Graphics/SVG/1.1/DTD/svg11.dtd" >
<svg>
<metadata>
Created by FontForge 20090914 at Mon Mar 22 08:11:36 2021
 By www-data
Copyright (c) 2011 by vernon adams. All rights reserved.
</metadata>
<defs>
<font id="Shanti" horiz-adv-x="1295" >
  <font-face 
    font-family="Shanti"
    font-weight="400"
    font-stretch="normal"
    units-per-em="2048"
    panose-1="2 0 5 3 5 0 0 2 0 4"
    ascent="1638"
    descent="-410"
    x-height="1024"
    cap-height="1412"
    bbox="-152 -477 2143 2012"
    underline-thickness="102"
    underline-position="-103"
    unicode-range="U+0020-U+2212"
  />
<missing-glyph horiz-adv-x="530" 
 />
    <glyph glyph-name=".notdef" horiz-adv-x="530" 
 />
    <glyph glyph-name="space" unicode=" " horiz-adv-x="525" 
 />
    <glyph glyph-name="exclam" unicode="!" horiz-adv-x="530" 
d="M321 339h-112l-48 1055h208zM161 211h208v-211h-208v211z" />
    <glyph glyph-name="quotedbl" unicode="&#x22;" horiz-adv-x="762" 
d="M308 1377v-502h-139l-46 502h185zM638 1377l-45 -502h-119v502h164z" />
    <glyph glyph-name="numbersign" unicode="#" horiz-adv-x="1274" 
d="M943 824l-55 -285h225v-146h-252l-74 -393h-160l74 393h-242l-75 -393h-158l74 393h-215v146h242l54 285h-222v147h250l74 406h161l-76 -406h245l75 406h160l-79 -406h218v-147h-244zM486 539h243l55 285h-244z" />
    <glyph glyph-name="dollar" unicode="$" horiz-adv-x="1099" 
d="M484 39c-44 0.666992 -85.9971 5.5 -125.997 14.5s-77.167 23.333 -111.5 43s-64.833 45 -91.5 76s-48.334 68.5 -65.001 112.5c20 14.667 39.5 28.167 58.5 40.5s38.167 25.5 57.5 39.5c10.667 -17.333 24 -34.833 40 -52.5s35.333 -34 58 -49
s48.834 -27.667 78.501 -38s63.5 -16.5 101.5 -18.5v422c-70 21.333 -128.667 43.5 -176 66.5s-85.5 49 -114.5 78s-49.667 62 -62 99s-18.5 80.167 -18.5 129.5c0 52 10.167 97.833 30.5 137.5s47.666 73.334 81.999 101.001s74 49.5 119 65.5s92.5 27 142.5 33v164h124
v-161c19.333 -1.33301 40.666 -3.33301 63.999 -6s47.5 -7.16699 72.5 -13.5s49.667 -14.5 74 -24.5s47.166 -22.833 68.499 -38.5s40 -34.667 56 -57s28.333 -48.5 37 -78.5l-145 -66c-10 20 -22.667 37 -38 51s-32.833 25.667 -52.5 35s-41 16.666 -64 21.999
s-47.5 9.33301 -73.5 12v-391c48 -14.667 95.5 -32 142.5 -52s89.167 -44.667 126.5 -74s67.666 -64.5 90.999 -105.5s35 -89.833 35 -146.5s-10.667 -106.167 -32 -148.5s-50.166 -78.5 -86.499 -108.5s-78.5 -54 -126.5 -72s-99 -30.333 -153 -37v-204h-123v200z
M808.003 396c0 26 -5.33301 48.833 -16 68.5s-25 37.167 -43 52.5s-39 28.833 -63 40.5s-49.333 22.5 -76 32.5v-378c34.667 4 64.5 12 89.5 24s45.5 26.333 61.5 43s27.833 35 35.5 55s11.5 40.667 11.5 62zM305.003 1009c0 -26 4.50098 -48.334 13.501 -67.001
s21.667 -35 38 -49s35.5 -26.333 57.5 -37s46 -20.667 72 -30v349c-38.667 -7.33301 -69.834 -17.5 -93.501 -30.5s-42 -27.333 -55 -43s-21.667 -31.667 -26 -48s-6.5 -31.166 -6.5 -44.499z" />
    <glyph glyph-name="percent" unicode="%" horiz-adv-x="1643" 
d="M238 1009c0 -29.333 1.66699 -59.3359 5 -90.0029s10.333 -58.667 21 -84s26 -46.166 46 -62.499s46.333 -24.5 79 -24.5c32 0 57.833 8.33301 77.5 25s34.667 37.834 45 63.501s17.333 54 21 85s5.5 60.5 5.5 88.5c0 36 -2.33301 69.833 -7 101.5
s-12.667 59.334 -24 83.001s-26.5 42.5 -45.5 56.5s-43.167 21 -72.5 21c-32.667 0 -59 -8.16699 -79 -24.5s-35.333 -37.333 -46 -63s-17.667 -54 -21 -85s-5 -61.167 -5 -90.5zM695 1015c0 -65.333 -7.16699 -122.833 -21.5 -172.5s-34.833 -91.167 -61.5 -124.5
s-59 -58.666 -97 -75.999s-80.667 -26 -128 -26c-45.333 0 -86.666 8.16699 -123.999 24.5s-69.333 41 -96 74s-47.5 73.833 -62.5 122.5s-22.5 105.667 -22.5 171c0 60 6.33301 114.333 19 163s32 90.334 58 125.001s58.667 61.5 98 80.5s85.666 28.5 138.999 28.5
c52.667 0 97.834 -9.83301 135.501 -29.5s68.667 -46.834 93 -81.501s42.166 -75.834 53.499 -123.501s17 -99.5 17 -155.5zM1106 361.997c0 -32 2.00195 -63.165 6.00195 -93.498s11.5 -57 22.5 -80s26 -41.5 45 -55.5s43.833 -21 74.5 -21c32 0 58 7.66699 78 23
s35.667 35.5 47 60.5s19 53.167 23 84.5s6 63 6 95c0 31.333 -2.16699 62.666 -6.5 93.999s-12 59.5 -23 84.5s-26.5 45.333 -46.5 61s-45.333 23.5 -76 23.5c-32.667 0 -58.834 -8.5 -78.501 -25.5s-34.834 -39 -45.501 -66s-17.667 -56.833 -21 -89.5
s-5 -64.334 -5 -95.001zM1562 376.999c0 -61.333 -6.1709 -116.498 -18.5039 -165.498s-31.166 -90.833 -56.499 -125.5s-57.166 -61.334 -95.499 -80.001s-83.833 -28 -136.5 -28c-56 0 -103.333 10.5 -142 31.5s-70.167 49.333 -94.5 85s-41.833 77.334 -52.5 125.001
s-16 98.5 -16 152.5c0 64 7.16699 120.667 21.5 170s34.833 90.833 61.5 124.5s58.834 59 96.501 76s79.5 25.5 125.5 25.5c20.667 0 42.667 -2.5 66 -7.5s46.333 -13.167 69 -24.5s44.334 -26.833 65.001 -46.5s39 -43.834 55 -72.501s28.667 -62.834 38 -102.501
s14 -85.5 14 -137.5zM1305 1418l-207 -366.5l-205.5 -363l-205 -363l-207.5 -365.5h-150l826 1458h149z" />
    <glyph glyph-name="ampersand" unicode="&#x26;" horiz-adv-x="1452" 
d="M97 377c0 51.333 7.33301 97.5049 22 138.505s34.667 78.667 60 113s55.333 65.833 90 94.5s71.667 56.667 111 84c-17.333 18.667 -34.833 39.167 -52.5 61.5s-34 47 -49 74s-27.167 56.5 -36.5 88.5s-14 66.667 -14 104c0 48 8.16699 91.333 24.5 130
s40.166 71.667 71.499 99s70 48.333 116 63s98.667 22 158 22c49.333 0 96 -6 140 -18s82.333 -30.333 115 -55s58.5 -55.834 77.5 -93.501s28.5 -81.834 28.5 -132.501c0 -45.333 -8.66699 -86.833 -26 -124.5s-39.333 -71.834 -66 -102.501s-56 -58.334 -88 -83.001
s-62.667 -46.334 -92 -65.001l328 -334c16.667 24 31.167 48.667 43.5 74s23 52.5 32 81.5s16.333 61.167 22 96.5s10.167 75 13.5 119h193c-4.66699 -56 -11.667 -106.833 -21 -152.5s-21.333 -88.167 -36 -127.5s-32.167 -76.666 -52.5 -111.999
s-44.166 -70.333 -71.499 -105l306 -314h-259l-171 170c-33.333 -30 -67.166 -57 -101.499 -81s-70.333 -44.167 -108 -60.5s-77.334 -29 -119.001 -38s-86.167 -13.5 -133.5 -13.5c-72 0 -136.167 9.66699 -192.5 29s-104 46.666 -143 81.999s-68.667 77.333 -89 126
s-30.5 102.667 -30.5 162zM568 151.005c38.667 0 74.167 4.33301 106.5 13s61.5 19.834 87.5 33.501s49.5 29 70.5 46s39.833 33.5 56.5 49.5l-127.5 125.5l-123.5 126.5l-133 139c-36 -25.333 -67 -49.833 -93 -73.5s-47.167 -47.5 -63.5 -71.5s-28.5 -48.833 -36.5 -74.5
s-12 -52.834 -12 -81.501c0 -40.667 7.83301 -75.5 23.5 -104.5s36.167 -53 61.5 -72s54 -33 86 -42s64.333 -13.5 97 -13.5zM428 1140c0 -38 11.668 -76.165 35.001 -114.498s56.666 -79.5 99.999 -123.5c24 15.333 47.5 31.833 70.5 49.5s43.833 36.667 62.5 57
s33.667 42 45 65s17 47.5 17 73.5c0 17.333 -3.33301 34.166 -10 50.499s-16.5 31 -29.5 44s-29.667 23.5 -50 31.5s-43.833 12 -70.5 12c-25.333 0 -48.5 -3.66699 -69.5 -11s-39 -17.5 -54 -30.5s-26.5 -28.333 -34.5 -46s-12 -36.834 -12 -57.501z" />
    <glyph glyph-name="quotesingle" unicode="'" horiz-adv-x="437" 
d="M267 875h-118v502h163z" />
    <glyph glyph-name="parenleft" unicode="(" horiz-adv-x="579" 
d="M100 598c0 78.667 7.50195 158.499 22.502 239.499s34.5 159 58.5 234s51.167 145 81.5 210s60.5 120.833 90.5 167.5h155c-32 -61.333 -61.5 -127.666 -88.5 -198.999s-50.333 -144.166 -70 -218.499s-34.834 -148.333 -45.501 -222s-16 -143.167 -16 -208.5
c0 -71.333 4.5 -140.5 13.5 -207.5s22.667 -135 41 -204s41.5 -140.333 69.5 -214s61 -152.5 99 -236.5h-153c-36.667 62 -70.834 127.833 -102.501 197.5s-59 141.167 -82 214.5s-41 147.666 -54 222.999s-19.5 150 -19.5 224z" />
    <glyph glyph-name="parenright" unicode=")" horiz-adv-x="579" 
d="M220 1449c36.667 -63.333 70.833 -130.166 102.5 -200.499s59.167 -142.5 82.5 -216.5s41.5 -148.833 54.5 -224.5s19.5 -150.5 19.5 -224.5c0 -78.667 -7.5 -158.334 -22.5 -239.001s-34.5 -158.334 -58.5 -233.001s-51 -144 -81 -208s-60 -118.667 -90 -164h-155
c32 64 61.5 129.833 88.5 197.5s50 136.834 69 207.501s33.833 142.667 44.5 216s16 147.333 16 222c0 72 -4.5 141.833 -13.5 209.5s-22.667 136 -41 205s-41.5 140.5 -69.5 214.5s-61 153.333 -99 238h153z" />
    <glyph glyph-name="asterisk" unicode="*" horiz-adv-x="948" 
d="M211 1334l125 77l137 -228l137 228l127 -77l-133 -216h235v-149h-236l133 -215l-126 -77l-137 227l-137 -227l-126 77l130 215h-231v149h232z" />
    <glyph glyph-name="plus" unicode="+" horiz-adv-x="1122" 
d="M478 505h-391v160h391v393h164v-393h393v-160h-393v-391h-164v391z" />
    <glyph glyph-name="comma" unicode="," horiz-adv-x="519" 
d="M57 -248l112 492h222l-194 -492h-140z" />
    <glyph glyph-name="hyphen" unicode="-" horiz-adv-x="776" 
d="M143 439v167h489v-167h-489z" />
    <glyph glyph-name="period" unicode="." horiz-adv-x="518" 
d="M143 239h231v-239h-231v239z" />
    <glyph glyph-name="slash" unicode="/" horiz-adv-x="792" 
d="M719 1448l-485 -1466h-161l489 1466h157z" />
    <glyph glyph-name="zero" unicode="0" horiz-adv-x="1164" 
d="M131 695c0 52.667 2.33301 107.165 7 163.498s13 111.166 25 164.499s28.667 103.833 50 151.5s48.666 89.334 81.999 125.001s73.5 64 120.5 85s102.5 31.5 166.5 31.5c60 0 112.833 -9.83301 158.5 -29.5s85.167 -46.5 118.5 -80.5s61.333 -74.167 84 -120.5
s40.667 -96.166 54 -149.499s22.833 -109 28.5 -167s8.5 -116 8.5 -174s-2.83301 -116 -8.5 -174s-15.167 -113.667 -28.5 -167s-31.333 -103.166 -54 -149.499s-50.667 -86.5 -84 -120.5s-72.833 -60.833 -118.5 -80.5s-98.5 -29.5 -158.5 -29.5
c-64 0 -119.5 10.5 -166.5 31.5s-87.167 49.333 -120.5 85s-60.666 77.334 -81.999 125.001s-38 98.167 -50 151.5s-20.333 108.166 -25 164.499s-7 110.833 -7 163.5zM842 694.998c0 86 -4.33301 163.163 -13 231.496s-23 126.5 -43 174.5s-46.667 84.833 -80 110.5
s-74.333 38.5 -123 38.5c-53.333 0 -97 -14.833 -131 -44.5s-60.667 -69.667 -80 -120s-32.666 -109.166 -39.999 -176.499s-11 -138.666 -11 -213.999s3.66699 -146.666 11 -213.999s20.666 -126.166 39.999 -176.499s46 -90.333 80 -120s77.667 -44.5 131 -44.5
c48.667 0 89.667 12.833 123 38.5s60 62.5 80 110.5s34.333 106.167 43 174.5s13 145.5 13 231.5z" />
    <glyph glyph-name="one" unicode="1" horiz-adv-x="757" 
d="M368 932l-0.000976562 24c0 10 0.166992 21 0.5 33l1 37.5c0.333008 13 0.5 25.833 0.5 38.5c0.666992 30 1.33398 62 2.00098 96c-54 -48 -106 -88.667 -156 -122s-93 -60.333 -129 -81l-45 172c13.333 7.33301 30 17.5 50 30.5l64 43.5l69.5 49.5l67.5 49.5l57.5 43.5
l40.5 30.5h165v-1377h-188v932z" />
    <glyph glyph-name="two" unicode="2" horiz-adv-x="1077" 
d="M114 1106c43.333 102.667 99.6699 178 169.003 226s157.666 72 264.999 72c53.333 0 103.666 -7.5 150.999 -22.5s88.666 -38.167 123.999 -69.5s63.333 -70.833 84 -118.5s31 -104.167 31 -169.5c0 -40 -6.5 -80.667 -19.5 -122s-34.333 -85.833 -64 -133.5
s-68.667 -100.167 -117 -157.5s-107.5 -122.333 -177.5 -195l-239 -246h647v-170h-869v174l344 360c40 42 78.333 84.333 115 127s69 84.667 97 126s50.167 81.666 66.5 120.999s24.5 77 24.5 113c0 24.667 -3.66699 49.834 -11 75.501s-19.333 49 -36 70
s-38.667 38.167 -66 51.5s-61 20 -101 20c-41.333 0 -76.333 -6.16699 -105 -18.5s-52.667 -27.833 -72 -46.5s-35 -39 -47 -61s-22 -43 -30 -63z" />
    <glyph glyph-name="three" unicode="3" horiz-adv-x="1115" 
d="M516 -20c-70.667 0 -142.169 13.501 -214.502 40.501s-139.166 69.5 -200.499 127.5l68 160c24 -25.333 50.333 -47.833 79 -67.5s58.334 -36 89.001 -49s61.334 -22.833 92.001 -29.5s60.667 -10 90 -10c36.667 0 71.5 4.83301 104.5 14.5s62 24.334 87 44.001
s45 44.667 60 75s22.5 66.5 22.5 108.5c0 52 -11 93.667 -33 125s-50.833 55.333 -86.5 72s-75.834 27.667 -120.501 33s-89.667 8 -135 8c-3.33301 0 -8.16602 -0.166992 -14.499 -0.5s-12.5 -0.5 -18.5 -0.5h-22v165c5.33301 -0.666992 10.666 -1 15.999 -1
c4.66699 -0.666992 9.33398 -1 14.001 -1h13c45.333 0 89.333 3.33301 132 10s80.667 19 114 37s60 42.5 80 73.5s30 71.167 30 120.5c0 30 -6 57.5 -18 82.5s-28.833 46.5 -50.5 64.5s-47.834 32 -78.501 42s-64.334 15 -101.001 15c-44 0 -93.167 -11.167 -147.5 -33.5
s-112.833 -58.166 -175.5 -107.499l-96 121c66.667 62.667 137.5 109.167 212.5 139.5s147.5 45.5 217.5 45.5c58.667 0 114.167 -8 166.5 -24s98.333 -39.333 138 -70s71.167 -68.334 94.5 -113.001s35 -95.667 35 -153c0 -33.333 -5 -65.833 -15 -97.5
s-25.167 -61.667 -45.5 -90s-45.666 -54.333 -75.999 -78s-65.833 -43.834 -106.5 -60.501c55.333 -16.667 100.833 -39 136.5 -67s63.667 -57.5 84 -88.5s34.333 -62 42 -93s11.5 -57.833 11.5 -80.5c0 -64.667 -13.167 -122.334 -39.5 -173.001s-61.333 -93.5 -105 -128.5
s-94 -61.667 -151 -80s-116.5 -27.5 -178.5 -27.5z" />
    <glyph glyph-name="four" unicode="4" horiz-adv-x="1149" 
d="M689 0v300h-623v204l607 886h202v-918h199v-172h-199v-300h-186zM240 472h449v686l-64 -102l-26 -41l-25 -40l-21.5 -34l-15.5 -24z" />
    <glyph glyph-name="five" unicode="5" horiz-adv-x="1087" 
d="M555 878c66 0 125.328 -10.8359 177.995 -32.5029s97.334 -51.667 134.001 -90s64.834 -84.166 84.501 -137.499s29.5 -111.333 29.5 -174c0 -70 -11.167 -133.5 -33.5 -190.5s-54.666 -105.667 -96.999 -146s-94 -71.666 -155 -93.999s-130.167 -33.5 -207.5 -33.5
c-44 0 -86.167 5 -126.5 15s-77 24.833 -110 44.5s-61.667 44 -86 73s-42.833 62.833 -55.5 101.5l118 83c12 -27.333 28.333 -50.666 49 -69.999s43.167 -35.166 67.5 -47.499s49.5 -21.5 75.5 -27.5s50.667 -9 74 -9c55.333 0 101.833 8.66699 139.5 26s68 40 91 68
s39.333 59.833 49 95.5s14.5 71.5 14.5 107.5c0 88 -24.667 156 -74 204s-118.666 72 -207.999 72c-28.667 0 -55.167 -3.83301 -79.5 -11.5s-46.166 -17 -65.499 -28s-36.333 -22.833 -51 -35.5s-26.667 -24.334 -36 -35.001l-97 28v743h720v-171h-551l-30 -399
c28 17.333 62 33.5 102 48.5s85.667 22.5 137 22.5z" />
    <glyph glyph-name="six" unicode="6" horiz-adv-x="1141" 
d="M927 1186c-47.333 19.333 -92.002 34.3359 -134.002 45.0029s-80.667 16 -116 16c-63.333 0 -116.333 -12 -159 -36s-77.667 -58.333 -105 -103s-47.833 -99 -61.5 -163s-23.167 -136 -28.5 -216c16 20.667 34.167 40.667 54.5 60s42.833 36.333 67.5 51s52 26.5 82 35.5
s62.667 13.5 98 13.5c58 0 111.667 -9.33301 161 -28s92.166 -46.334 128.499 -83.001s64.833 -82 85.5 -136s31 -116.333 31 -187c0 -76 -11.667 -143.5 -35 -202.5s-55.166 -108.667 -95.499 -149s-87.5 -71 -141.5 -92s-111.333 -31.5 -172 -31.5
c-81.333 0 -150.833 16.333 -208.5 49s-105.167 77.5 -142.5 134.5s-64.666 124.167 -81.999 201.5s-26 160.666 -26 249.999c0 57.333 3.16699 116.5 9.5 177.5s17.5 120.833 33.5 179.5s37.167 114.167 63.5 166.5s59.333 98.166 99 137.499s87 70.5 142 93.5
s118.5 34.5 190.5 34.5c46 0 95.833 -6.5 149.5 -19.5s110.834 -33.5 171.501 -61.5zM589.998 141.003c32.667 0 64.1689 5.83398 94.502 17.501s57.166 30 80.499 55s42 56.667 56 95s21 84.166 21 137.499c0 32 -3.66699 64.833 -11 98.5s-20.333 64.5 -39 92.5
s-43.667 50.833 -75 68.5s-71.333 26.5 -120 26.5c-43.333 0 -81.666 -7.83301 -114.999 -23.5s-61.333 -36.334 -84 -62.001s-40 -54.834 -52 -87.501s-18 -66 -18 -100c0 -42 6 -82.167 18 -120.5s29.167 -72.166 51.5 -101.499s49.666 -52.666 81.999 -69.999
s69.166 -26 110.499 -26z" />
    <glyph glyph-name="seven" unicode="7" horiz-adv-x="959" 
d="M180 0l524 1203h-644v174h844v-159l-509 -1218h-215z" />
    <glyph glyph-name="eight" unicode="8" horiz-adv-x="1163" 
d="M581 -20c-60.667 0 -118.501 7.66699 -173.501 23s-103.5 38.833 -145.5 70.5s-75.333 71.5 -100 119.5s-37 105 -37 171c0 44 6.33301 83.833 19 119.5s30.834 68 54.501 97s52 55.333 85 79s69.833 45.167 110.5 64.5c-73.333 34.667 -130.833 79.334 -172.5 134.001
s-62.5 117 -62.5 187c0 42 8.33301 84.333 25 127s42.167 81.167 76.5 115.5s78 62.333 131 84s115.833 32.5 188.5 32.5c63.333 0 121 -8.33301 173 -25s96.667 -40.334 134 -71.001s66.333 -68 87 -112s31 -93.333 31 -148c0 -70 -21.333 -132.833 -64 -188.5
s-104 -99.5 -184 -131.5c30.667 -14.667 62.5 -32 95.5 -52s63.167 -44 90.5 -72s49.833 -61 67.5 -99s26.5 -82.333 26.5 -133c0 -52 -9.5 -101.667 -28.5 -149s-47.5 -89 -85.5 -125s-85.5 -64.667 -142.5 -86s-123.5 -32 -199.5 -32zM579.999 143
c48 0 88.8311 6.83203 122.498 20.499s60.834 31.5 81.501 53.5s35.667 47 45 75s14 56.667 14 86c0 35.333 -6.83301 67.5 -20.5 96.5s-32.667 54.667 -57 77s-53 41.166 -86 56.499s-68.833 27 -107.5 35c-38 -9.33301 -72.667 -22.333 -104 -39
s-58.166 -36.667 -80.499 -60s-39.5 -49.5 -51.5 -78.5s-18 -60.167 -18 -93.5c0 -29.333 4.83301 -57.666 14.5 -84.999s25 -51.666 46 -72.999s48 -38.5 81 -51.5s73.167 -19.5 120.5 -19.5zM348.997 1044c0 -33.333 6.00098 -63.0039 18.001 -89.0039
s28.5 -48.667 49.5 -68s45.5 -35.166 73.5 -47.499s58.333 -21.166 91 -26.499c32.667 5.33301 63.334 14.5 92.001 27.5s53.667 29.333 75 49s38.166 42.5 50.499 68.5s18.5 54.667 18.5 86c0 30 -5.33301 57.333 -16 82s-26.167 45.834 -46.5 63.501
s-45 31.334 -74 41.001s-61.833 14.5 -98.5 14.5c-34 0 -65.167 -4.5 -93.5 -13.5s-52.833 -22.167 -73.5 -39.5s-36.834 -38.5 -48.501 -63.5s-17.5 -53.167 -17.5 -84.5z" />
    <glyph glyph-name="nine" unicode="9" horiz-adv-x="1133" 
d="M231 204c48.667 -21.333 93.834 -37.4971 135.501 -48.4971s79.5 -16.5 113.5 -16.5c46.667 0 89.5 10.167 128.5 30.5s72.667 52.166 101 95.499s51 98.5 68 165.5s27.167 147.5 30.5 241.5c-42.667 -53.333 -88.834 -92.166 -138.501 -116.499
s-101.834 -36.5 -156.501 -36.5c-58 0 -111.833 9.16699 -161.5 27.5s-92.667 45.5 -129 81.5s-65 80.5 -86 133.5s-31.5 114.5 -31.5 184.5c0 76 11.5 142.5 34.5 199.5s54 104.5 93 142.5s84.5 66.667 136.5 86s107 29 165 29c38.667 0 77.167 -4.33301 115.5 -13
s74.833 -23 109.5 -43s67 -46.667 97 -80s56 -74.5 78 -123.5s39.167 -106.833 51.5 -173.5s18.5 -143.667 18.5 -231c0 -124 -12.5 -233.333 -37.5 -328s-60.167 -173.834 -105.5 -237.501s-99.333 -111.834 -162 -144.501s-132 -49 -208 -49
c-48 0 -99.167 7.16699 -153.5 21.5s-111.166 34.166 -170.499 59.499zM541 672.003c39.333 0 74.832 7 106.499 21s58.667 32.833 81 56.5s39.5 51.167 51.5 82.5s18 64.333 18 99c0 44.667 -6.16699 86 -18.5 124s-29.833 71 -52.5 99s-49.667 49.833 -81 65.5
s-66 23.5 -104 23.5s-72.167 -6.83301 -102.5 -20.5s-56.166 -33.5 -77.499 -59.5s-37.833 -57.333 -49.5 -94s-17.5 -78 -17.5 -124c0 -42 5.66699 -80 17 -114s27.5 -62.667 48.5 -86s46.833 -41.333 77.5 -54s65 -19 103 -19z" />
    <glyph glyph-name="colon" unicode=":" horiz-adv-x="518" 
d="M143 1019h231v-239h-231v239zM143 239h231v-239h-231v239z" />
    <glyph glyph-name="semicolon" unicode=";" horiz-adv-x="579" 
d="M97 -233l110 462h196l-183 -462h-123zM191 1018h231v-239h-231v239z" />
    <glyph glyph-name="less" unicode="&#x3c;" horiz-adv-x="1164" 
d="M1025 111l-948 399v141l948 423v-175l-732 -314l732 -296v-178z" />
    <glyph glyph-name="equal" unicode="=" horiz-adv-x="1268" 
d="M160 700v160h948v-160h-948zM160 308v162h948v-162h-948z" />
    <glyph glyph-name="greater" unicode="&#x3e;" horiz-adv-x="1164" 
d="M139 289l732 296l-732 314v175l948 -423v-141l-948 -399v178z" />
    <glyph glyph-name="question" unicode="?" horiz-adv-x="882" 
d="M283 338l-0.00292969 79.0039c0 33.333 1.5 63.333 4.5 90s9 52.334 18 77.001s22 49 39 73s39.5 50 67.5 78l79.5 82.5c24.333 26.333 45 52.166 62 77.499s30.333 50.833 40 76.5s14.5 52.5 14.5 80.5c0 39.333 -8.16699 71.666 -24.5 96.999
s-36.5 45.166 -60.5 59.499s-49.667 24.333 -77 30s-52 8.5 -74 8.5c-30 0 -68.167 -4.83301 -114.5 -14.5s-100.5 -28.167 -162.5 -55.5l-30 171c40 17.333 86.333 33.166 139 47.499s110.667 21.5 174 21.5c65.333 0 124.333 -8 177 -24s97.334 -39.333 134.001 -70
s64.834 -68 84.501 -112s29.5 -94 29.5 -150c0 -42 -4.66699 -79 -14 -111s-23.166 -62.5 -41.499 -91.5s-41.5 -58 -69.5 -87s-60.667 -61.167 -98 -96.5c-28.667 -26.667 -52 -49.334 -70 -68.001s-32 -37.167 -42 -55.5s-16.833 -38.5 -20.5 -60.5s-5.5 -49.667 -5.5 -83
v-70h-159zM255.997 211.004h213v-211h-213v211z" />
    <glyph glyph-name="at" unicode="@" horiz-adv-x="1642" 
d="M834 -77c-111.333 0 -212.334 16.832 -303.001 50.499s-168 81.834 -232 144.501s-113.5 138.667 -148.5 228s-52.5 189.666 -52.5 300.999c0 81.333 9.33301 157.833 28 229.5s45.167 137.167 79.5 196.5s75.5 112.333 123.5 159s101.333 86 160 118
s121.667 56.5 189 73.5s137.333 25.5 210 25.5c90.667 0 176.334 -14 257.001 -42s151.334 -69.167 212.001 -123.5s108.667 -121.5 144 -201.5s53 -171.667 53 -275c0 -70.667 -9.66699 -136.834 -29 -198.501s-45.833 -115.334 -79.5 -161.001
s-72.834 -81.667 -117.501 -108s-92.334 -39.5 -143.001 -39.5s-90.5 15.5 -119.5 46.5s-44.5 77.167 -46.5 138.5c-13.333 -22 -29 -44 -47 -66s-37.167 -41.833 -57.5 -59.5s-44.5 -32 -72.5 -43s-58.667 -16.5 -92 -16.5c-43.333 0 -82.666 7.83301 -117.999 23.5
s-65.5 38.167 -90.5 67.5s-44.167 64.5 -57.5 105.5s-18 87.167 -14 138.5c0 58 9.33301 114.333 28 169s44.334 103.167 77.001 145.5s73.5 76.333 122.5 102s103.833 38.5 164.5 38.5c34 0 67.833 -7.66699 101.5 -23s65.167 -37.666 94.5 -66.999
c0.666992 7.33301 1.66699 15 3 23s2.66602 15.333 3.99902 22l4 23l139 -19l-74 -403c-5.33301 -25.333 -9 -48.5 -11 -69.5s-3 -39.5 -3 -55.5c0 -40 7.16699 -68 21.5 -84s36.833 -24 67.5 -24c29.333 0 57.333 10.167 84 30.5s50.334 48.333 71.001 84
s37 77.834 49 126.501s18 101.667 18 159c0 84.667 -14.333 159.334 -43 224.001s-67.834 118.5 -117.501 161.5s-107.334 75.5 -173.001 97.5s-135.5 33 -209.5 33c-97.333 0 -186.833 -16 -268.5 -48s-152 -77.667 -211 -137s-105 -131 -138 -215s-49.5 -178 -49.5 -282
c0 -94.667 14.5 -179.5 43.5 -254.5s70.333 -138.5 124 -190.5s118.334 -91.667 194.001 -119s160.5 -41 254.5 -41c46 0 90.5 3.83301 133.5 11.5s84.333 18 124 31s78 28 115 45s72.5 34.833 106.5 53.5l31 -111c-73.333 -44.667 -151.5 -80.667 -234.5 -108
s-175.833 -41 -278.5 -41zM781.999 422.999c28 0 52.3311 5.16797 72.998 15.501s37.334 24 50.001 41s24.334 36.333 35.001 58s19.834 44 27.501 67s14.167 45.667 19.5 68l15 60.5l36 207c-24 5.33301 -47 10 -69 14c-18.667 3.33301 -35.834 6.66602 -51.501 9.99902
s-28.167 5 -37.5 5c-41.333 0 -78.5 -10.833 -111.5 -32.5s-61 -49.334 -84 -83.001s-40 -70.667 -51 -111s-16.5 -79.166 -16.5 -116.499c1.33301 -64.667 16 -114.667 44 -150s68.333 -53 121 -53z" />
    <glyph glyph-name="A" unicode="A" 
d="M19 64l534 1348h193l527 -1353v-59h-189l-152 396h-583l-154 -396h-176v64zM547 928l-133 -360h455l-130 360l-95 270z" />
    <glyph glyph-name="B" unicode="B" horiz-adv-x="1269" 
d="M190 1412h454.999c74.667 0 141.5 -6.16699 200.5 -18.5s109 -32.666 150 -60.999s72.333 -65.333 94 -111s32.5 -101.5 32.5 -167.5c0 -42.667 -6.66699 -80.834 -20 -114.501s-30.833 -63.334 -52.5 -89.001s-46.167 -47.667 -73.5 -66s-55.333 -33.166 -84 -44.499
c32.667 -10 65.334 -23.333 98.001 -40s61.667 -38.167 87 -64.5s46 -58.833 62 -97.5s24 -85 24 -139c0 -40 -4.83301 -76.667 -14.5 -110s-22 -63.166 -37 -89.499s-31.333 -49.333 -49 -69s-34.5 -35.5 -50.5 -47.5l1 1c-42.667 -30.667 -92.5 -52.334 -149.5 -65.001
s-115.5 -19 -175.5 -19h-498v1412zM386.999 821l250 0.00195312c32.667 0 65.834 2.66699 99.501 8s64 15.666 91 30.999s49 37.166 66 65.499s25.5 65.5 25.5 111.5c0 44.667 -8 80.5 -24 107.5s-37.333 47.5 -64 61.5s-57.334 23.167 -92.001 27.5s-70.667 6.5 -108 6.5
h-244v-419zM386.999 647.002l-0.000976562 -477.001h291c91.333 0 160.833 20.833 208.5 62.5s71.5 101.834 71.5 180.501c0 34 -5.33301 65.167 -16 93.5s-27.5 53 -50.5 74s-52.167 37.333 -87.5 49s-77.666 17.5 -126.999 17.5h-290z" />
    <glyph glyph-name="C" unicode="C" horiz-adv-x="1236" 
d="M1162 93c-80 -40.667 -156 -70.668 -228 -90.001s-140 -29 -204 -29c-70.667 0 -135.167 9.5 -193.5 28.5s-110.5 45.167 -156.5 78.5s-86.333 72.833 -121 118.5s-63.334 95.167 -86.001 148.5s-39.667 109.5 -51 168.5s-17 118.5 -17 178.5
c0 62 5.83301 123.5 17.5 184.5s29.167 119.167 52.5 174.5s52.5 106.666 87.5 153.999s75.5 88.333 121.5 123s97.5 61.834 154.5 81.501s119.5 29.5 187.5 29.5c46 0 90.5 -5.33301 133.5 -16s83.167 -27.667 120.5 -51s70.833 -54.166 100.5 -92.499
s53.5 -84.833 71.5 -139.5l-175 -42c-10 32.667 -23.5 59.667 -40.5 81s-36.167 38.333 -57.5 51s-44.833 21.667 -70.5 27s-52.167 8 -79.5 8c-67.333 0 -126.833 -15.667 -178.5 -47s-95.167 -73.333 -130.5 -126s-62 -113.5 -80 -182.5s-27 -140.833 -27 -215.5
c0 -68.667 8.66699 -135.834 26 -201.501s44 -124.167 80 -175.5s81.333 -92.666 136 -123.999s119.334 -47 194.001 -47c50 0 103.667 8.16699 161 24.5s119.333 40.833 186 73.5z" />
    <glyph glyph-name="D" unicode="D" horiz-adv-x="1400" 
d="M1289 706c0 -68 -5.83203 -130.502 -17.499 -187.502s-27.167 -108.833 -46.5 -155.5s-41.5 -88.167 -66.5 -124.5s-51.5 -67.5 -79.5 -93.5c-32 -28 -67.167 -51.333 -105.5 -70s-79 -33.5 -122 -44.5s-88.333 -18.833 -136 -23.5s-96.834 -7 -147.501 -7h-378v1412h402
c48 0 95.667 -2.5 143 -7.5s93.5 -14.167 138.5 -27.5s88 -31.666 129 -54.999s78.833 -53.666 113.5 -90.999c57.333 -66.667 100.5 -145.167 129.5 -235.5s43.5 -186.833 43.5 -289.5zM1080 698.998c0 26.667 -1.66797 58.001 -5.00098 94.001s-9.66602 73 -18.999 111
s-22.5 75.667 -39.5 113s-38.833 71 -65.5 101c-42 46 -91.833 77.833 -149.5 95.5s-126.5 26.5 -206.5 26.5h-210v-1069h169c36.667 0 72.5 2 107.5 6s68.167 10.167 99.5 18.5s60.833 19.166 88.5 32.499s52.167 29.333 73.5 48c31.333 28.667 57.166 61 77.499 97
s36.333 73.167 48 111.5s19.834 76 24.501 113s7 70.833 7 101.5z" />
    <glyph glyph-name="E" unicode="E" horiz-adv-x="1138" 
d="M1017 0h-827v1412h818v-175h-622v-419h587v-175h-587v-464h631v-179z" />
    <glyph glyph-name="F" unicode="F" horiz-adv-x="1076" 
d="M391 0h-200v1412h795v-175h-595v-448h559v-175h-559v-614z" />
    <glyph glyph-name="G" unicode="G" horiz-adv-x="1368" 
d="M1029 1086c-11.333 36 -25.998 65.8291 -43.998 89.4961s-38.333 42.334 -61 56.001s-47.334 23.167 -74.001 28.5s-54.334 8 -83.001 8c-59.333 0 -116.5 -10.667 -171.5 -32s-103.667 -54.833 -146 -100.5s-76.166 -104.167 -101.499 -175.5s-38 -156.666 -38 -255.999
c0 -77.333 8.33301 -149.666 25 -216.999s43.667 -126 81 -176s86.166 -89.5 146.499 -118.5s134.5 -43.5 222.5 -43.5c54.667 0 101.167 2.83301 139.5 8.5s72.5 11.5 102.5 17.5h14v576h190v-697c-33.333 -10.667 -67.5 -20.834 -102.5 -30.501
s-72.167 -18.167 -111.5 -25.5s-80.833 -13.166 -124.5 -17.499s-90.5 -6.5 -140.5 -6.5c-110 0 -205.5 18.167 -286.5 54.5s-148 86.833 -201 151.5s-92.333 141.334 -118 230.001s-38.5 185.334 -38.5 290.001c0 86 8.5 164 25.5 234s40.5 132.5 70.5 187.5
s65.667 102.667 107 143s86.333 73.666 135 99.999s99.834 45.833 153.501 58.5s108.167 19 163.5 19c44 0 89.667 -5.16699 137 -15.5s92.166 -28 134.499 -53s80.5 -58.333 114.5 -100s60 -93.5 78 -155.5z" />
    <glyph glyph-name="H" unicode="H" horiz-adv-x="1417" 
d="M1226 0h-197v640h-641v-640h-197v1414h197v-596h641v596h197v-1414z" />
    <glyph glyph-name="I" unicode="I" horiz-adv-x="577" 
d="M191 0v1412h196v-1412h-196z" />
    <glyph glyph-name="J" unicode="J" horiz-adv-x="575" 
d="M-117 -37c26 -7.33301 51.5 -13.332 76.5 -17.999s48.833 -7 71.5 -7s43.834 3.5 63.501 10.5s36.667 19 51 36s25.5 40.167 33.5 69.5s12 66.333 12 111v1247h194v-1246c0 -69.333 -8.16699 -129 -24.5 -179s-38.5 -91.333 -66.5 -124s-60.667 -56.834 -98 -72.501
s-77.333 -23.5 -120 -23.5c-36.667 0 -74.334 5.5 -113.001 16.5s-77 27.167 -115 48.5z" />
    <glyph glyph-name="K" unicode="K" horiz-adv-x="1231" 
d="M1244 0h-256l-545 706l-56 -70v-636h-196v1412h196v-643l107 127l454 516h252l-574 -627z" />
    <glyph glyph-name="L" unicode="L" horiz-adv-x="1025" 
d="M190 0v1412h197v-1232h604v-180h-801z" />
    <glyph glyph-name="M" unicode="M" horiz-adv-x="1789" 
d="M1404 0v735c0 9.33301 0.166992 29.5 0.5 60.5s0.666016 66.5 0.999023 106.5l1 125.5c0.333008 43.667 0.833008 83.167 1.5 118.5l-24 4l-413 -1150h-174l-399 1139l-25 -4c0.666992 -35.333 1.33398 -74.5 2.00098 -117.5l2 -124
c0.666992 -39.667 1.16699 -74.667 1.5 -105s0.5 -50.5 0.5 -60.5v-728h-189v1412h315l384 -1160l407 1160h303v-1412h-195z" />
    <glyph glyph-name="N" unicode="N" horiz-adv-x="1487" 
d="M191 0v1412h246l659 -1107l22 5c-0.666992 21.333 -1.16699 45.833 -1.5 73.5s-0.833008 56.334 -1.5 86.001s-1.16699 59.167 -1.5 88.5s-0.666016 56.5 -0.999023 81.5s-0.5 46.5 -0.5 64.5v38v670h184v-1412h-237l-672 1123l-21 -5c0.666992 -22 1.16699 -47 1.5 -75
s0.833008 -57.167 1.5 -87.5s1.16699 -60.666 1.5 -90.999s0.666016 -58.166 0.999023 -83.499s0.5 -47.5 0.5 -66.5v-39.5v-675h-181z" />
    <glyph glyph-name="O" unicode="O" horiz-adv-x="1483" 
d="M742 -26c-77.333 0 -146.501 9.16699 -207.501 27.5s-114.833 43.833 -161.5 76.5s-86.5 71.667 -119.5 117s-60 95 -81 149s-36.333 111.333 -46 172s-14.5 123 -14.5 187c0 65.333 5.16699 129 15.5 191s26.333 120.333 48 175s49.334 104.834 83.001 150.501
s73.834 85 120.501 118s100.167 58.667 160.5 77s127.833 27.5 202.5 27.5s142.167 -9.16699 202.5 -27.5s113.833 -44 160.5 -77s86.834 -72.333 120.501 -118s61.167 -95.834 82.5 -150.501s37.166 -113 47.499 -175s15.5 -125.667 15.5 -191
c0 -64 -4.83301 -126.333 -14.5 -187s-24.834 -118 -45.501 -172s-47.5 -103.667 -80.5 -149s-72.833 -84.333 -119.5 -117s-100.5 -58.167 -161.5 -76.5s-130.167 -27.5 -207.5 -27.5zM741.999 149c82.667 0 151.169 15 205.502 45s97.5 70.667 129.5 122
s54.5 110.666 67.5 177.999s19.5 138.666 19.5 213.999c0 78 -6.83301 151 -20.5 219s-36.834 127.333 -69.501 178s-76 90.5 -130 119.5s-121.333 43.5 -202 43.5s-148 -14.5 -202 -43.5s-97.333 -68.833 -130 -119.5s-56 -110 -70 -178s-21 -141 -21 -219
c0 -75.333 6.5 -146.666 19.5 -213.999s35.5 -126.666 67.5 -177.999s75.167 -92 129.5 -122s123.166 -45 206.499 -45z" />
    <glyph glyph-name="P" unicode="P" horiz-adv-x="1160" 
d="M1101 1010c0 -56.667 -8.66699 -110.5 -26 -161.5s-46.5 -95.833 -87.5 -134.5s-95.5 -69.5 -163.5 -92.5s-152.333 -34.5 -253 -34.5h-184v-587h-196v1412h417c70.667 0 136 -7 196 -21s112 -36.833 156 -68.5s78.5 -73.167 103.5 -124.5s37.5 -114 37.5 -188zM387 757
l94.998 -0.000976562c33.333 0 66.833 0.333008 100.5 1s65.834 3.33398 96.501 8.00098s59.167 12 85.5 22s49.333 24.5 69 43.5s35 43 46 72s16.5 64.5 16.5 106.5c0 48.667 -8.33301 88 -25 118s-38.667 53.5 -66 70.5s-58.666 28.5 -93.999 34.5s-72 9 -110 9h-214v-485
z" />
    <glyph glyph-name="Q" unicode="Q" horiz-adv-x="1467" 
d="M1352 722c0 -54 -4.50098 -109.5 -13.501 -166.5s-24.5 -113 -46.5 -168s-51.5 -107.833 -88.5 -158.5s-83.5 -96.334 -139.5 -137.001c22 -6 46.333 -13.333 73 -22s53.5 -18.334 80.5 -29.001s53 -21.667 78 -33s47.167 -22.333 66.5 -33l-57 -155
c-92 36.667 -183.167 67.5 -273.5 92.5s-183.5 46.833 -279.5 65.5c-9.33301 -0.666992 -18.333 -1.16699 -27 -1.5s-17.667 -0.5 -27 -0.5c-88.667 0 -169.167 16.333 -241.5 49s-134 80 -185 142s-90.5 138 -118.5 228s-42 192.667 -42 308c0 65.333 5.5 129 16.5 191
s27.5 120.333 49.5 175s49.833 104.834 83.5 150.501s73.334 85 119.001 118s97.5 58.667 155.5 77s122.333 27.5 193 27.5c74.667 0 142 -8.83301 202 -26.5s113.167 -42.5 159.5 -74.5s86 -70.167 119 -114.5s60.167 -93.166 81.5 -146.499s37 -110.333 47 -171
s15 -123 15 -187zM318.999 700c0 -70 6.83301 -138.169 20.5 -204.502s36.5 -125.166 68.5 -176.499s74.333 -92.5 127 -123.5s117.667 -46.5 195 -46.5c57.333 0 107.666 8.16699 150.999 24.5s80.5 38.5 111.5 66.5s56.667 60.667 77 98s36.333 76.5 48 117.5
s19.834 82.833 24.501 125.5s7 83.667 7 123c0 88 -8.66699 166.833 -26 236.5s-43.333 128.834 -78 177.501s-78 86 -130 112s-112.667 39 -182 39c-56.667 0 -106.167 -8.5 -148.5 -25.5s-78.833 -39.833 -109.5 -68.5s-56 -62.167 -76 -100.5s-36 -78.5 -48 -120.5
s-20.333 -84.833 -25 -128.5s-7 -85.5 -7 -125.5z" />
    <glyph glyph-name="R" unicode="R" horiz-adv-x="1284" 
d="M191 0l-0.000976562 1412h433c61.333 0 121.333 -6 180 -18s110.834 -32.333 156.501 -61s82.5 -66.667 110.5 -114s42 -106 42 -176c0 -45.333 -6 -86.166 -18 -122.499s-29.167 -69 -51.5 -98s-49.5 -54.167 -81.5 -75.5s-68 -39.666 -108 -54.999
c53.333 -12.667 95.5 -28.834 126.5 -48.501s55.333 -43.667 73 -72s30.334 -61 38.001 -98s14.834 -79 21.501 -126s14.667 -99.333 24 -157s24.666 -121.167 45.999 -190.5h-210c-14 72.667 -24.833 138.167 -32.5 196.5s-15.5 110 -23.5 155s-17.5 83.667 -28.5 116
s-26.833 58.833 -47.5 79.5s-47.334 35.834 -80.001 45.501s-74.667 14.5 -126 14.5h-248v-607h-196zM385.999 754.998l232.002 -0.00195312c40.667 0 78.667 4.66699 114 14s66.166 24.333 92.499 45s47 47.834 62 81.501s22.5 74.834 22.5 123.501
c0 50.667 -9.66699 90.667 -29 120s-44.333 51.5 -75 66.5s-64.834 24.333 -102.501 28s-74.5 5.5 -110.5 5.5h-206v-484z" />
    <glyph glyph-name="S" unicode="S" horiz-adv-x="1095" 
d="M489 149c54.667 0 101.831 6.00391 141.498 18.0039s72.334 28.5 98.001 49.5s44.667 45.667 57 74s18.5 59.166 18.5 92.499s-5.66699 62.5 -17 87.5s-29.166 47.5 -53.499 67.5s-55.833 39 -94.5 57s-85 36.667 -139 56c-70.667 25.333 -130.167 52.166 -178.5 80.499
s-87.5 59.333 -117.5 93s-51.5 70.667 -64.5 111s-19.5 85.166 -19.5 134.499c0 60.667 11.333 114.167 34 160.5s53.834 85.166 93.501 116.499s86.334 55 140.001 71s111.5 24 173.5 24c64.667 0 131.667 -10.833 201 -32.5s140.333 -56.5 213 -104.5l-77 -146
c-60.667 38.667 -118.834 66.5 -174.501 83.5s-108.5 25.5 -158.5 25.5c-81.333 0 -144 -17.167 -188 -51.5s-66 -81.833 -66 -142.5c0 -34 4.66699 -63 14 -87s24.666 -45.5 45.999 -64.5s49.166 -36.333 83.499 -52s76.833 -32.167 127.5 -49.5
c88.667 -30 160 -60.333 214 -91s95.667 -62.667 125 -96s48.833 -69 58.5 -107s14.5 -80 14.5 -126c0 -66 -11.167 -125.333 -33.5 -178s-54.5 -97.5 -96.5 -134.5s-93.5 -65.333 -154.5 -85s-130.5 -29.5 -208.5 -29.5c-60.667 0 -125.667 9.5 -195 28.5
s-142.333 49.167 -219 90.5l64 156c64.667 -33.333 124.834 -58.333 180.501 -75s108.167 -25 157.5 -25z" />
    <glyph glyph-name="T" unicode="T" horiz-adv-x="1140" 
d="M668 0h-195v1237h-438v175h1071v-175h-438v-1237z" />
    <glyph glyph-name="U" unicode="U" horiz-adv-x="1441" 
d="M1266 1412l-0.000976562 -888c0 -82.667 -13.167 -157.834 -39.5 -225.501s-63.5 -125.5 -111.5 -173.5s-105.5 -85.167 -172.5 -111.5s-140.833 -39.5 -221.5 -39.5s-154.5 11.833 -221.5 35.5s-124.667 58.667 -173 105s-85.833 104.333 -112.5 174
s-40 150.5 -40 242.5v881h196v-893c0 -74 10.5 -135 31.5 -183s48.333 -85.667 82 -113s71.667 -46.333 114 -57s84.833 -16 127.5 -16c50.667 0 94.334 5.83301 131.001 17.5s68 27.167 94 46.5s47 41.833 63 67.5s28.5 52.334 37.5 80.001s15 55.5 18 83.5
s4.5 54.333 4.5 79v888h193z" />
    <glyph glyph-name="V" unicode="V" horiz-adv-x="1212" 
d="M1000 1412l205 -0.000976562l-499 -1412h-206l-485 1412h214l238 -734c2 -7.33301 5.66699 -19.666 11 -36.999l18 -61l21.5 -76l22.5 -81l58 -209h11l68 214l26 82l24 76l19 60l11 35z" />
    <glyph glyph-name="W" unicode="W" horiz-adv-x="1898" 
d="M426 0l-387.999 1412h208l90.5 -353l90.5 -352l12 -57.5l18 -86.5l20 -100l18.5 -97c5.66699 -30 10.334 -56.167 14.001 -78.5s5.5 -37.166 5.5 -44.499l25 -3l29 125l56.5 230l47.5 188l42.5 160.5l40.5 148l41.5 151l46.5 169.5h223l202 -750l27 -87.5
c10 -33.667 19.667 -68.167 29 -103.5s17.666 -69.333 24.999 -102s12 -60.334 14 -83.001l26 -2l42 188l17.5 77.5l15.5 70.5l12.5 55c3.66699 15.333 6.5 26.333 8.5 33l175 704h199l-389 -1412h-205l-79 290l-61.5 224l-60.5 224
c-2.66699 9.33301 -6.83398 25.666 -12.501 48.999l-19 80.5l-22 96l-21 96c-6.33301 30.333 -11.5 57 -15.5 80s-6 38.833 -6 47.5l-26 2l-115 -454l-201 -735h-201z" />
    <glyph glyph-name="X" unicode="X" horiz-adv-x="1261" 
d="M1242 0h-239l-379 599l-389 -599h-223l497 737l-452 675h234l349 -534l347 534h225l-458 -674z" />
    <glyph glyph-name="Y" unicode="Y" horiz-adv-x="1174" 
d="M594 723l369 689h220l-496 -865v-547h-200v547l-496 865h232z" />
    <glyph glyph-name="Z" unicode="Z" horiz-adv-x="1173" 
d="M1082 0h-993v179l742 1054h-721v179h954v-177l-744 -1055h762v-180z" />
    <glyph glyph-name="bracketleft" unicode="[" horiz-adv-x="609" 
d="M540 -272h-368v1710h368v-134h-196v-1439h196v-137z" />
    <glyph glyph-name="backslash" unicode="\" horiz-adv-x="792" 
d="M231 1408l242.5 -712.5l243.5 -711.5h-157l-487 1424h158z" />
    <glyph glyph-name="bracketright" unicode="]" horiz-adv-x="610" 
d="M70 -135h195v1439h-195v134h368v-1710h-368v137z" />
    <glyph glyph-name="asciicircum" unicode="^" horiz-adv-x="1101" 
d="M100 523l385 858h129l382 -858h-172l-276 649l-277 -649h-171z" />
    <glyph glyph-name="underscore" unicode="_" horiz-adv-x="1116" 
d="M1012 -273h-907v128h907v-128z" />
    <glyph glyph-name="grave" unicode="`" horiz-adv-x="816" 
d="M435 1164l-273 309h230l172 -309h-129z" />
    <glyph glyph-name="a" unicode="a" horiz-adv-x="1039" 
d="M154 919c26.667 18 55.5 34.332 86.5 48.999s63 27.5 96 38.5s66.167 19.5 99.5 25.5s65.666 9 96.999 9c48 0 93.5 -6.16699 136.5 -18.5s80.667 -31.666 113 -57.999s57.833 -60.166 76.5 -101.499s28 -91.333 28 -150v-412c0 -45.333 1 -86.333 3 -123
s4.66699 -68.334 8 -95.001c3.33301 -31.333 7.33301 -59 12 -83h-169c-2 11.333 -3.83301 32.333 -5.5 63s-3.16699 65 -4.5 103c-22 -37.333 -46 -67.833 -72 -91.5s-53 -42.5 -81 -56.5s-56.667 -23.667 -86 -29s-58.333 -8 -87 -8c-50 0 -95.333 6.83301 -136 20.5
s-75.167 33.5 -103.5 59.5s-50.166 57.333 -65.499 94s-23 78 -23 124c0 22 2.5 45.333 7.5 70s13.167 49 24.5 73s26.333 47 45 69s41.667 41.667 69 59c29.333 18.667 61.666 33.167 96.999 43.5s71.833 18 109.5 23s75.5 8 113.5 9s74.667 1.5 110 1.5h54v74
c0 36.667 -4.66699 67.5 -14 92.5s-22.333 45 -39 60s-36 25.833 -58 32.5s-45.333 10 -70 10c-27.333 0 -55.666 -3.16699 -84.999 -9.5s-58 -14.5 -86 -24.5s-54.5 -21 -79.5 -33s-47.167 -24 -66.5 -36zM646 209.999c12.667 14.667 22.833 31.001 30.5 49.001
s13.667 38.333 18 61s7.33301 48 9 76s2.5 59.667 2.5 95h-29c-46 0 -93.5 -1.66699 -142.5 -5s-94 -12 -135 -26s-74.667 -35.5 -101 -64.5s-39.5 -68.833 -39.5 -119.5c0 -18.667 3 -36.834 9 -54.501s15.5 -33.5 28.5 -47.5s29.333 -25.333 49 -34s43.5 -13 71.5 -13
c48 0 92.333 7 133 21s72.667 34.667 96 62z" />
    <glyph glyph-name="b" unicode="b" horiz-adv-x="1158" 
d="M158 1413l189.001 0.000976562l-2 -356l-3 -166c14 18.667 30.167 37 48.5 55s39 34 62 48s48.5 25.333 76.5 34s59 13 93 13c78 0 144.5 -13.833 199.5 -41.5s100 -65.167 135 -112.5s60.667 -102.333 77 -165s24.5 -129.334 24.5 -200.001
c0 -76.667 -8.16699 -148 -24.5 -214s-42.333 -123.167 -78 -171.5s-81.5 -86.333 -137.5 -114s-123.667 -41.5 -203 -41.5c-22 0 -44.833 2.83301 -68.5 8.5s-47.667 14.667 -72 27s-48.333 28.5 -72 48.5s-45.834 44 -66.501 72c-1.33301 -8.66699 -3 -20.5 -5 -35.5
s-3.66699 -30.167 -5 -45.5c-2.66699 -17.333 -4.66699 -36 -6 -56h-162v1413zM345.001 351.001c0 -22.667 5.33008 -47.001 15.9971 -73.001s27 -50.167 49 -72.5s50.333 -41 85 -56s76 -22.5 124 -22.5c46.667 0 86.334 10.667 119.001 32s59.334 50 80.001 86
s35.5 77.333 44.5 124s13.5 95.667 13.5 147c0 46.667 -3.83301 92.834 -11.5 138.501s-21.167 86.167 -40.5 121.5s-46.166 64 -80.499 86s-77.833 33 -130.5 33c-35.333 0 -69 -7 -101 -21s-60.5 -31.833 -85.5 -53.5s-44.833 -45.167 -59.5 -70.5s-22 -49.333 -22 -72
v-327z" />
    <glyph glyph-name="c" unicode="c" horiz-adv-x="960" 
d="M862 87c-51.333 -36 -106.167 -62.667 -164.5 -80s-114.166 -26 -167.499 -26c-55.333 0 -109 10.333 -161 31s-98 53 -138 97s-72.167 100 -96.5 168s-36.5 149.667 -36.5 245c0 88.667 13.333 165.5 40 230.5s61.334 118.833 104.001 161.5s90.834 74.5 144.501 95.5
s107.5 31.5 161.5 31.5c38 0 75.5 -5 112.5 -15s71.167 -26 102.5 -48s58.666 -50.667 81.999 -86s40.333 -78.333 51 -129l-159 -26c-7.33301 30 -17.333 55.167 -30 75.5s-27.334 36.666 -44.001 48.999s-34.5 21 -53.5 26s-38.5 7.5 -58.5 7.5
c-32 0 -63.833 -7 -95.5 -21s-60.334 -36 -86.001 -66s-46.5 -68 -62.5 -114s-24 -101 -24 -165c0 -63.333 5 -119.833 15 -169.5s25.833 -91.667 47.5 -126s49.167 -60.666 82.5 -78.999s73 -27.5 119 -27.5c28 0 54.5 2.5 79.5 7.5s48.167 11.667 69.5 20
s41 17.833 59 28.5s34.667 21.667 50 33z" />
    <glyph glyph-name="d" unicode="d" horiz-adv-x="1159" 
d="M1000 0l-162.006 -0.000976562c-2.66699 20 -5 38.667 -7 56c-2 15.333 -3.66699 30.5 -5 45.5s-2.66602 26.833 -3.99902 35.5c-21.333 -28 -43.666 -52 -66.999 -72s-47.166 -36.167 -71.499 -48.5s-48.333 -21.333 -72 -27s-46.5 -8.5 -68.5 -8.5
c-79.333 0 -147.166 13.833 -203.499 41.5s-102.166 65.667 -137.499 114s-61.166 105.5 -77.499 171.5s-24.5 137.333 -24.5 214c0 70.667 8 137.334 24 200.001s41.5 117.667 76.5 165s80.167 84.833 135.5 112.5s122 41.5 200 41.5c34 0 65 -4.33301 93 -13
s53.5 -20 76.5 -34s43.667 -30 62 -48s34.5 -36.333 48.5 -55l-3 166l-2 356h189v-1413zM812.994 677.999c0 22.667 -7.33203 46.668 -21.999 72.001s-34.5 48.833 -59.5 70.5s-53.667 39.5 -86 53.5s-65.833 21 -100.5 21c-53.333 0 -97 -11 -131 -33
s-60.667 -50.667 -80 -86s-32.833 -75.833 -40.5 -121.5s-11.5 -91.834 -11.5 -138.501c0 -51.333 4.5 -100.333 13.5 -147s23.833 -88 44.5 -124s47.167 -64.667 79.5 -86s72.166 -32 119.499 -32c48 0 89.333 7.5 124 22.5s63 33.667 85 56s38.333 46.5 49 72.5
s16 50.333 16 73v327z" />
    <glyph glyph-name="e" unicode="e" horiz-adv-x="1043" 
d="M925 83c-21.333 -12.667 -43.8359 -25.168 -67.5029 -37.501s-50.167 -23.166 -79.5 -32.499s-62.166 -17 -98.499 -23s-77.5 -9 -123.5 -9c-70 0 -133.167 11.667 -189.5 35s-104.333 57.5 -144 102.5s-70.167 100.333 -91.5 166s-32 140.834 -32 225.501
c0 70.667 8.66699 138 26 202s43.833 120.333 79.5 169s81.167 87.5 136.5 116.5s121 43.5 197 43.5c72 0 134 -12.667 186 -38s94.833 -59.5 128.5 -102.5s58.5 -93.333 74.5 -151s24 -118.834 24 -183.501v-83h-666c0.666992 -46 5.83398 -90.5 15.501 -133.5
s25.167 -81 46.5 -114s49.333 -59.333 84 -79s77.667 -29.5 129 -29.5c61.333 0 116.833 7.66699 166.5 23s96.834 37 141.501 65zM533.997 894.999c-32 0 -61.833 -4.83301 -89.5 -14.5s-52 -24.667 -73 -45s-38.333 -46 -52 -77s-22.834 -67.833 -27.501 -110.5
c-0.666992 -3.33301 -1 -8 -1 -14v-19h464c-1.33301 36.667 -5.66602 72 -12.999 106s-19.333 63.833 -36 89.5s-39 46.167 -67 61.5s-63 23 -105 23z" />
    <glyph glyph-name="f" unicode="f" horiz-adv-x="686" 
d="M649 875l-229 0.000976562v-875h-189v875h-188v131l189 17v39c0 58 4.66699 108.833 14 152.5s25.5 80.167 48.5 109.5s54 51.333 93 66s88.167 22 147.5 22c28 0 57.167 -2.5 87.5 -7.5s59.166 -11.167 86.499 -18.5l-24 -152c-20.667 4 -41.667 7.5 -63 10.5
s-41.666 4.5 -60.999 4.5c-30.667 0 -55.167 -3.5 -73.5 -10.5s-32.5 -17.167 -42.5 -30.5s-16.667 -30.333 -20 -51s-5 -44.334 -5 -71.001v-62h229v-149z" />
    <glyph glyph-name="g" unicode="g" horiz-adv-x="1166" 
d="M962 689c0 -63.333 -11.8359 -117.168 -35.5029 -161.501s-55 -80.666 -94 -108.999s-83.667 -49 -134 -62s-101.833 -19.5 -154.5 -19.5c-66.667 0 -128.334 8.33301 -185.001 25c-18.667 -20.667 -33 -40.834 -43 -60.501s-15 -34.834 -15 -45.501
c0 -10 0.666992 -18.833 2 -26.5s5 -14.167 11 -19.5s14.833 -9.5 26.5 -12.5s27.834 -4.5 48.501 -4.5h147c39.333 0 80 -1 122 -3s82.833 -6 122.5 -12s77.167 -14.667 112.5 -26s66.333 -26.166 93 -44.499s47.667 -40.833 63 -67.5s23 -58.334 23 -95.001
c0 -66 -10.833 -122.333 -32.5 -169s-54 -86.5 -97 -119.5s-96.333 -58.5 -160 -76.5s-137.5 -29 -221.5 -33c-65.333 0 -125.666 6.5 -180.999 19.5s-103.166 31 -143.499 54s-71.833 47.833 -94.5 74.5s-34 59 -34 97c0 32 11.667 72.667 35 122s61.333 94.333 114 135
l-3 16c-10.667 0.666992 -23.167 3.33398 -37.5 8.00098s-27.833 12.167 -40.5 22.5s-23.5 23.833 -32.5 40.5s-13.5 37 -13.5 61c0 71.333 44.333 151 133 239c-49.333 30 -85.833 66.167 -109.5 108.5s-35.5 86.5 -35.5 132.5c0 44 8.83301 87.833 26.5 131.5
s44.334 82.834 80.001 117.501s80 62.667 133 84s114.833 32 185.5 32c61.333 0 115 -8.66699 161 -26s87.333 -41 124 -71c16 10.667 33.667 21.5 53 32.5s40.166 21.167 62.499 30.5s45.833 17 70.5 23s50.334 9.33301 77.001 10l30 -205
c-10.667 0.666992 -20.334 1.66699 -29.001 3l-23.5 2c-7.66699 0.666992 -13.5 1 -17.5 1c-19.333 0 -40.666 -1.83301 -63.999 -5.5s-45.333 -8.5 -66 -14.5c18 -23.333 29.333 -46 34 -68s7 -43.667 7 -65zM564.997 -299.002c46.667 0 90.002 5.16602 130.002 15.499
s74.667 24.5 104 42.5s52.166 41.333 68.499 70s24.5 68 24.5 118c0 30.667 -27.333 53.834 -82 69.501s-134.667 23.5 -240 23.5h-94.5c-31.667 0 -63.834 0.333008 -96.501 1c-30 -33.333 -52.167 -73.833 -66.5 -121.5s-21.5 -86.5 -21.5 -116.5c0 -34 24 -59.5 72 -76.5
s115.333 -25.5 202 -25.5zM290.999 683.997c0 -30.667 5.00098 -58.835 15.001 -84.502s25.333 -47.667 46 -66s46.667 -32.666 78 -42.999s68.666 -15.5 111.999 -15.5c50.667 0 92.667 6.33301 126 19s59.5 29.334 78.5 50.001s32.333 44.334 40 71.001
s11.5 53.667 11.5 81c0 26 -4.16699 51.5 -12.5 76.5s-22.166 47.5 -41.499 67.5s-45 36 -77 48s-71.667 18 -119 18c-32.667 0 -64.334 -3.83301 -95.001 -11.5s-58 -20.334 -82 -38.001s-43.333 -40.667 -58 -69s-22 -62.833 -22 -103.5z" />
    <glyph glyph-name="h" unicode="h" horiz-adv-x="1149" 
d="M159 0l-0.00292969 1412h189v-324l2 -193c42 46 89 81.833 141 107.5s105.667 38.5 161 38.5c119.333 0 207.5 -34.167 264.5 -102.5s85.5 -164.833 85.5 -289.5v-649h-186v639c0 30 -2.66699 60.167 -8 90.5s-15.666 57.666 -30.999 81.999s-36.5 44.333 -63.5 60
s-62.167 23.5 -105.5 23.5c-30 0 -56.667 -3.33301 -80 -10s-43.666 -15.5 -60.999 -26.5s-32.166 -23.167 -44.499 -36.5s-22.5 -26.333 -30.5 -39c-17.333 -28.667 -29 -64.167 -35 -106.5s-9 -85.5 -9 -129.5v-547h-189z" />
    <glyph glyph-name="i" unicode="i" horiz-adv-x="552" 
d="M393 0h-186v875h-152v149h338v-1024zM411 1377v-172h-222v172h222z" />
    <glyph glyph-name="j" unicode="j" horiz-adv-x="558" 
d="M125 -446c-24 0 -46.334 1.83203 -67.001 5.49902s-41 9.16699 -61 16.5v152c18 -5.33301 34.5 -9.66602 49.5 -12.999s30.167 -5 45.5 -5c19.333 0 36.333 2.33301 51 7s27 13 37 25s17.5 28.167 22.5 48.5s7.5 46.166 7.5 77.499v1007h-151v149h340v-1153
c0 -43.333 -4.66699 -84.166 -14 -122.499s-24.666 -71.833 -45.999 -100.5s-49.5 -51.5 -84.5 -68.5s-78.167 -25.5 -129.5 -25.5zM419.999 1377v-172h-221v172h221z" />
    <glyph glyph-name="k" unicode="k" horiz-adv-x="1041" 
d="M998 0l-211.002 -0.000976562l-276 460h-163v-460h-190v1412h190v-797h94c13.333 0 27.333 0.166992 42 0.5s29.334 0.5 44.001 0.5c27.333 22.667 52.666 47.5 75.999 74.5s45 56.667 65 89s38.5 67.833 55.5 106.5s33.167 84.667 48.5 138h196
c-12 -52.667 -28.167 -102.5 -48.5 -149.5s-43.666 -92.167 -69.999 -135.5s-55.166 -83.666 -86.499 -120.999s-64 -69 -98 -95z" />
    <glyph glyph-name="l" unicode="l" horiz-adv-x="563" 
d="M494 -19c-78.667 0 -139.168 8.83301 -181.501 26.5s-73.333 45 -93 82s-31.167 84.333 -34.5 142s-5 126.5 -5 206.5v825h-152v149h341v-1026c0 -53.333 0.833008 -96.333 2.5 -129s7.33398 -58 17.001 -76s25 -30 46 -36s50.833 -9 89.5 -9l-30 -155v0z" />
    <glyph glyph-name="m" unicode="m" horiz-adv-x="1817" 
d="M203 0l-0.00195312 875.001h-152v149h327l10 -151c24 30.667 48.667 56.667 74 78s50.833 38.833 76.5 52.5s50.834 23.5 75.501 29.5s48 9 70 9c42 0 79.333 -4.33301 112 -13s61.5 -20.834 86.5 -36.501s46.833 -34.334 65.5 -56.001s35 -45.5 49 -71.5
c14.667 22.667 32.5 44.667 53.5 66s44.833 40.166 71.5 56.499s56.5 29.5 89.5 39.5s69.167 15 108.5 15c44.667 0 88 -6 130 -18s79.167 -32.167 111.5 -60.5s58.333 -66.166 78 -113.499s29.5 -106.333 29.5 -177v-673h-186v663c0 80.667 -16.833 139.5 -50.5 176.5
s-84.834 55.5 -153.501 55.5c-26 0 -49.667 -2.66699 -71 -8s-40.333 -12.333 -57 -21s-31 -18.5 -43 -29.5s-21.667 -21.833 -29 -32.5c-10 -14.667 -18.167 -31.5 -24.5 -50.5s-11.166 -38.667 -14.499 -59s-5.66602 -40.666 -6.99902 -60.999s-2 -39.5 -2 -57.5v-576
h-187v673c0 68.667 -16.667 122.834 -50 162.501s-83.333 59.5 -150 59.5c-27.333 0 -52 -3.16699 -74 -9.5s-41.5 -14.333 -58.5 -24s-31.5 -20.334 -43.5 -32.001s-21.667 -22.834 -29 -33.501c-19.333 -29.333 -32 -64.166 -38 -104.499s-9 -82.833 -9 -127.5v-564h-189z
" />
    <glyph glyph-name="n" unicode="n" horiz-adv-x="1196" 
d="M862 0v660.002c0 75.333 -18.5 133.333 -55.5 174s-89.167 61 -156.5 61c-80.667 0 -143.834 -27.833 -189.501 -83.5s-68.5 -136.834 -68.5 -243.501v-568h-189v875h-152v149h327l10 -150c20 27.333 40.333 51.5 61 72.5s43.334 38.5 68.001 52.5s51.667 24.667 81 32
s62 11 98 11c36.667 0 75.5 -5.5 116.5 -16.5s79 -30.333 114 -58s64 -64.834 87 -111.501s34.5 -106 34.5 -178v-678h-186z" />
    <glyph glyph-name="o" unicode="o" horiz-adv-x="1129" 
d="M1031 512c0 -78 -10.166 -149.5 -30.499 -214.5s-50.333 -121 -90 -168s-88.834 -83.5 -147.501 -109.5s-126.334 -39 -203.001 -39c-72.667 0 -137.667 12.667 -195 38s-105.666 61 -144.999 107s-69.5 101 -90.5 165s-31.5 134.667 -31.5 212
c0 73.333 9 142.5 27 207.5s46.167 122 84.5 171s87.5 87.833 147.5 116.5s131.667 43 215 43c82 0 152 -14.833 210 -44.5s105.5 -69.167 142.5 -118.5s64 -105.833 81 -169.5s25.5 -129.167 25.5 -196.5zM284.001 504c0 -55.333 5.33398 -106.001 16.001 -152.001
s27.167 -85.667 49.5 -119s51.166 -59.333 86.499 -78s78 -28 128 -28c40 0 77.167 7.16699 111.5 21.5s64 37 89 68s44.5 70.5 58.5 118.5s21 105.667 21 173c0 124.667 -23.333 220.334 -70 287.001s-114.667 100 -204 100c-37.333 0 -73.166 -7.16699 -107.499 -21.5
s-64.833 -37.333 -91.5 -69s-47.834 -72.167 -63.501 -121.5s-23.5 -109 -23.5 -179z" />
    <glyph glyph-name="p" unicode="p" horiz-adv-x="1159" 
d="M159 -416v1135c0 30 -0.333008 62.167 -1 96.5s-1.33398 66.5 -2.00098 96.5c-1.33301 34.667 -2.33301 72 -3 112h177l13 -153c22 32.667 46 60 72 82s52.833 39.667 80.5 53s55.167 22.666 82.5 27.999s53.666 8 78.999 8c54 0 105.333 -11 154 -33
s91.334 -55 128.001 -99s65.834 -99.333 87.501 -166s32.5 -144.667 32.5 -234c0 -90 -11.167 -168 -33.5 -234s-52.833 -120.833 -91.5 -164.5s-83.5 -76.334 -134.5 -98.001s-104.833 -32.5 -161.5 -32.5c-62.667 0 -118.5 12.167 -167.5 36.5s-92.167 55.5 -129.5 93.5
l5 -187v-340h-187zM611 126.002c55.333 0 100.333 12.001 135 36.001s61.667 54.667 81 92s32.5 79.166 39.5 125.499s10.5 91.833 10.5 136.5c0 52.667 -4.33301 102.167 -13 148.5s-23 86.5 -43 120.5s-46.333 60.833 -79 80.5s-73 29.5 -121 29.5
c-36.667 0 -71.667 -7 -105 -21s-62.5 -31.667 -87.5 -53s-45 -44.833 -60 -70.5s-22.5 -50.5 -22.5 -74.5v-313c0 -26.667 5.33301 -54 16 -82s27 -53.5 49 -76.5s49.5 -41.833 82.5 -56.5s72.167 -22 117.5 -22z" />
    <glyph glyph-name="q" unicode="q" horiz-adv-x="1156" 
d="M499 1041c37.333 0 71.6641 -4.99902 102.997 -14.999s60 -23.167 86 -39.5s49.5 -34.666 70.5 -54.999s40.167 -40.833 57.5 -61.5l13 155h173c0 -3.33301 -0.166992 -12.166 -0.5 -26.499l-1 -43.5c-0.333008 -14.667 -0.666016 -30.167 -0.999023 -46.5
s-0.666016 -31.833 -0.999023 -46.5s-0.666016 -27.334 -0.999023 -38.001s-0.5 -17.334 -0.5 -20.001v-1220h-186v341c0 16 0.166992 33 0.5 51s0.833008 35.833 1.5 53.5s1.33398 34 2.00098 49s1.33398 27.167 2.00098 36.5c-46.667 -47.333 -96.5 -81.5 -149.5 -102.5
s-102.833 -31.5 -149.5 -31.5c-58.667 0 -113.334 10.833 -164.001 32.5s-94.834 54.5 -132.501 98.5s-67.167 99.167 -88.5 165.5s-32 144.166 -32 233.499c0 90.667 10.5 169.334 31.5 236.001s49.5 121.667 85.5 165s78.167 75.666 126.5 96.999s99.833 32 154.5 32z
M814.998 477.001c0 26 -0.835938 54.499 -2.50293 85.499s-5.5 62 -11.5 93s-15 60.833 -27 89.5s-28.167 54.167 -48.5 76.5s-45.666 40.166 -75.999 53.499s-67.166 20 -110.499 20c-36 0 -67.167 -5.66699 -93.5 -17s-48.833 -26.833 -67.5 -46.5s-34 -42.167 -46 -67.5
s-21.333 -52.166 -28 -80.499s-11.167 -56.833 -13.5 -85.5s-3.5 -56 -3.5 -82c0 -29.333 1.5 -59.166 4.5 -89.499s8.16699 -59.833 15.5 -88.5s17.333 -55.834 30 -81.501s28.834 -48.167 48.501 -67.5s43.167 -34.5 70.5 -45.5s59.333 -16.5 96 -16.5
c50.667 0 92.834 8.83301 126.501 26.5s60.667 42 81 73s34.666 67.833 42.999 110.5s12.5 89.334 12.5 140.001z" />
    <glyph glyph-name="r" unicode="r" horiz-adv-x="749" 
d="M159 761c0 8.66699 -0.166016 24.001 -0.499023 46.001s-0.666016 46 -0.999023 72s-1 53.167 -2 81.5s-1.83301 49.833 -2.5 64.5h175l9 -178c22 35.333 46 65.333 72 90s52.167 44.667 78.5 60s52.166 26.5 77.499 33.5s48.666 10.5 69.999 10.5
c13.333 0 27.833 -0.5 43.5 -1.5s30.5 -2.5 44.5 -4.5l-12 -184c-18 3.33301 -35 6 -51 8s-32.333 3 -49 3c-46.667 0 -86.667 -7.83301 -120 -23.5s-60.5 -37.5 -81.5 -65.5s-36.5 -61.333 -46.5 -100s-15 -81.334 -15 -128.001v-545h-189v761z" />
    <glyph glyph-name="s" unicode="s" horiz-adv-x="922" 
d="M141 221c20 -15.333 41.9971 -28.834 65.9971 -40.501s49 -21.5 75 -29.5s52.5 -14 79.5 -18s53.167 -6 78.5 -6c27.333 0 53.333 3 78 9s46.167 15.333 64.5 28s33 28.5 44 47.5s16.5 41.167 16.5 66.5c0 18 -3.33301 34.167 -10 48.5s-18.167 28.166 -34.5 41.499
s-38.666 26.5 -66.999 39.5s-63.833 27.5 -106.5 43.5c-47.333 17.333 -90.5 34.666 -129.5 51.999s-72.333 37.166 -100 59.499s-49.167 49 -64.5 80s-23 68.833 -23 113.5c0 48 10 90 30 126s46.833 65.667 80.5 89s72.5 40.833 116.5 52.5s89.667 17.5 137 17.5
c60 0 120.167 -9 180.5 -27s115.5 -45 165.5 -81l-61 -128c-22 14 -45 26.5 -69 37.5s-48.333 20.333 -73 28s-48.834 13.667 -72.501 18s-45.834 6.5 -66.501 6.5c-26 0 -50.5 -2.66699 -73.5 -8s-43 -13.166 -60 -23.499s-30.5 -23.333 -40.5 -39s-15 -33.5 -15 -53.5
c0 -18.667 4.66699 -35.667 14 -51s22.833 -29.5 40.5 -42.5s39.334 -25.5 65.001 -37.5s54.834 -23.667 87.501 -35c60.667 -22 112.334 -43.667 155.001 -65s77.334 -44 104.001 -68s46 -50.5 58 -79.5s18 -62.5 18 -100.5c0 -53.333 -11.5 -99.666 -34.5 -138.999
s-53.167 -71.666 -90.5 -96.999s-80 -44.166 -128 -56.499s-97.333 -18.5 -148 -18.5c-64 0 -124.167 8.5 -180.5 25.5s-111.5 43.5 -165.5 79.5z" />
    <glyph glyph-name="t" unicode="t" horiz-adv-x="700" 
d="M519 127c18.667 0 39.1689 1.33203 61.502 3.99902s41.166 5.66699 56.499 9v-138c-20.667 -5.33301 -45.834 -10.166 -75.501 -14.499s-59.5 -6.5 -89.5 -6.5c-40.667 0 -77.5 4.16699 -110.5 12.5s-61 22.833 -84 43.5s-40.667 48.5 -53 83.5s-18.5 78.833 -18.5 131.5
v624h-157v149h162l33 244l151 33v-277h238v-149h-238v-602c0 -19.333 1.5 -38 4.5 -56s9 -33.667 18 -47s21.5 -24 37.5 -32s37.333 -12 64 -12z" />
    <glyph glyph-name="u" unicode="u" horiz-adv-x="1147" 
d="M846 0c-2.66699 11.333 -5.3291 25.3369 -7.99609 42.0039c-2 14 -4.16699 31.5 -6.5 52.5s-4.5 45.5 -6.5 73.5c-25.333 -60.667 -64.833 -107 -118.5 -139s-114.834 -48 -183.501 -48c-126 0 -220 33.167 -282 99.5s-93 161.833 -93 286.5v657h186v-658
c0 -32.667 3.16699 -63.5 9.5 -92.5s17.166 -54.333 32.499 -76s35.666 -38.834 60.999 -51.501s57.333 -19 96 -19c52.667 0 96.167 8.66699 130.5 26s61.666 41.166 81.999 71.499s34.5 66.166 42.5 107.499s12 86 12 134v558h186v-648
c0 -62.667 0.833008 -117.167 2.5 -163.5s3.5 -85.5 5.5 -117.5c2.66699 -36.667 5.66699 -68.334 9 -95.001h-157z" />
    <glyph glyph-name="v" unicode="v" horiz-adv-x="1028" 
d="M405 0l-388 1024h203l173 -484l123 -359l122 358l171 485h205l-402 -1024h-207z" />
    <glyph glyph-name="w" unicode="w" horiz-adv-x="1517" 
d="M866 1024l136 -509l91 -353h15l79 408l101 454h190l-259 -1024h-233l-139 511l-88 353l-88 -353l-139 -511h-233l-260 1024h194l95 -454l86 -408h14l88 353l136 509h214z" />
    <glyph glyph-name="x" unicode="x" horiz-adv-x="1051" 
d="M408 528l-353 496h229l249 -379l252 379h218l-362 -502l369 -522h-229l-265 397l-266 -397h-214z" />
    <glyph glyph-name="y" unicode="y" horiz-adv-x="1025" 
d="M573 -88c-12 -31.333 -26 -64.333 -42 -99s-35 -66.5 -57 -95.5s-47.333 -53 -76 -72s-61.667 -28.5 -99 -28.5c-13.333 0 -27.666 1.33301 -42.999 4s-33.333 7 -54 13v139c15.333 -5.33301 28.333 -9 39 -11s19.667 -3 27 -3c20 0 37 6 51 18s26.333 28 37 48
s20.167 42.667 28.5 68s16.166 51 23.499 77l10 35l-404 1019h206l176 -484l120 -344l121 344l172 484h202z" />
    <glyph glyph-name="z" unicode="z" horiz-adv-x="885" 
d="M791 0h-706v166l489 709h-460v149h670v-154l-498 -721h505v-149z" />
    <glyph glyph-name="braceleft" unicode="{" horiz-adv-x="717" 
d="M646 -273c-77.333 3.33301 -140.168 15.5039 -188.501 36.5039s-86 48.667 -113 83s-45.5 74 -55.5 119s-15 93.167 -15 144.5v174c0 43.333 -6 79.166 -18 107.499s-29 51.166 -51 68.499s-48.5 30.166 -79.5 38.499s-65.5 14.166 -103.5 17.499v133
c54.667 4.66699 98.5 13.5 131.5 26.5s58.5 29.5 76.5 49.5s29.833 43.167 35.5 69.5s8.5 55.5 8.5 87.5v181c0 54 5.5 103.167 16.5 147.5s30.5 82.833 58.5 115.5s65.833 58.5 113.5 77.5s108.5 30.167 182.5 33.5l8 -131
c-42.667 -5.33301 -77.334 -14.166 -104.001 -26.499s-47.5 -28.166 -62.5 -47.499s-25.167 -42.333 -30.5 -69s-8 -57 -8 -91v-175c0 -32.667 -2.66699 -64.834 -8 -96.501s-15.666 -61.334 -30.999 -89.001s-36.666 -52.667 -63.999 -75s-63 -40.5 -107 -54.5
c44 -14 79.833 -32.333 107.5 -55s49 -47.834 64 -75.501s25.167 -57.167 30.5 -88.5s8 -62.666 8 -93.999v-113c0 -40.667 1 -78.167 3 -112.5s9.33301 -64.333 22 -90s33 -46.5 61 -62.5s67.667 -26 119 -30z" />
    <glyph glyph-name="bar" unicode="|" horiz-adv-x="497" 
d="M167 1477h163v-1954h-163v1954z" />
    <glyph glyph-name="braceright" unicode="}" horiz-adv-x="717" 
d="M64 -139c51.333 4 91 13.9961 119 29.9961s48.333 36.833 61 62.5s20 55.667 22 90s3 71.833 3 112.5v113c0 31.333 2.66699 62.666 8 93.999s15.5 60.833 30.5 88.5s36.333 52.834 64 75.501s63.5 41 107.5 55c-44 14 -79.667 32.167 -107 54.5
s-48.666 47.333 -63.999 75s-25.666 57.334 -30.999 89.001s-8 63.834 -8 96.501v175c0 34 -2.66699 64.333 -8 91s-15.5 49.667 -30.5 69s-35.833 35.166 -62.5 47.499s-61.334 21.166 -104.001 26.499l8 131c74 -3.33301 134.833 -14.5 182.5 -33.5
s85.5 -44.833 113.5 -77.5s47.5 -71.167 58.5 -115.5s16.5 -93.5 16.5 -147.5v-181c0 -32 2.83301 -61.167 8.5 -87.5s17.5 -49.5 35.5 -69.5s43.5 -36.5 76.5 -49.5s76.833 -21.833 131.5 -26.5v-133c-38 -3.33301 -72.5 -9.16602 -103.5 -17.499
s-57.5 -21.166 -79.5 -38.499s-39 -40.166 -51 -68.499s-18 -64.166 -18 -107.499v-174c0 -51.333 -5 -99.5 -15 -144.5s-28.5 -84.667 -55.5 -119s-64.833 -62 -113.5 -83s-111.334 -33.167 -188.001 -36.5z" />
    <glyph glyph-name="asciitilde" unicode="~" horiz-adv-x="1208" 
d="M120 514c24 66.667 57.498 119 100.498 157s95.833 57 158.5 57c16 0 36.333 -3.16699 61 -9.5s51.5 -14.166 80.5 -23.499l90.5 -30l91.5 -30c29.667 -9.33301 57.5 -17.166 83.5 -23.499s48 -9.5 66 -9.5c29.333 0 59.833 10.5 91.5 31.5s58.834 54.5 81.501 100.5
l64 -78c-12 -44.667 -27.833 -80.834 -47.5 -108.501s-41 -49.334 -64 -65.001s-46.833 -26.167 -71.5 -31.5s-47.667 -8 -69 -8c-26 0 -54 3.16699 -84 9.5s-60.5 14 -91.5 23s-61.833 19 -92.5 30l-86 30c-26.667 9 -50.667 16.667 -72 23s-38.666 9.5 -51.999 9.5
c-28 0 -58.333 -11.333 -91 -34s-60.667 -56 -84 -100z" />
    <glyph glyph-name="uni00A0" unicode="&#xa0;" horiz-adv-x="525" 
 />
    <glyph glyph-name="exclamdown" unicode="&#xa1;" horiz-adv-x="531" 
d="M370 0h-208l48 1055h112zM162 1394h208v-211h-208v211z" />
    <glyph glyph-name="cent" unicode="&#xa2;" horiz-adv-x="953" 
d="M664 1307l118.002 -0.00195312l-79 -268l37 -21c23.333 -13.333 44.666 -28 63.999 -44s36.666 -31 51.999 -45l-89 -121l-22 17c-6.66699 5.33301 -14 10.666 -22 15.999s-17.5 10.833 -28.5 16.5s-24.5 11.834 -40.5 18.501l-211 -718c18 -6 35.667 -10.333 53 -13
s35.333 -4 54 -4c25.333 0 49.5 2.83301 72.5 8.5s44.667 13.167 65 22.5s39.333 20 57 32s34.167 24 49.5 36l49 -128c-29.333 -38.667 -67.5 -70.5 -114.5 -95.5s-106.5 -37.5 -178.5 -37.5c-23.333 0 -47.833 1.83301 -73.5 5.5s-52.5 8.83398 -80.5 15.501l-66 -228
h-117l80 276c-28.667 19.333 -55.167 43.166 -79.5 71.499s-45.333 61.5 -63 99.5s-31.5 81.333 -41.5 130s-15 103.334 -15 164.001c0 100.667 12.5 185.834 37.5 255.501s58.833 126 101.5 169s92 74 148 93s114.667 28.5 176 28.5h12c4.66699 0 11.667 -0.666992 21 -2z
M286.002 518.998c0 -52.667 5 -103 15 -151s25.333 -93 46 -135l196 665c-49.333 -5.33301 -90.333 -18.5 -123 -39.5s-59 -48 -79 -81s-34.167 -71.5 -42.5 -115.5s-12.5 -91.667 -12.5 -143z" />
    <glyph glyph-name="sterling" unicode="&#xa3;" horiz-adv-x="1163" 
d="M112 141l111.992 15c4.66699 2.66699 9 9.83398 13 21.501s7.66699 25.667 11 42s6.33301 34.166 9 53.499s4.83398 38 6.50098 56s3 34.833 4 50.5s1.5 27.834 1.5 36.501v232h-163v145h165c-0.666992 12 -1 24 -1 36c-0.666992 9.33301 -1 19.166 -1 29.499v24.5
c0 38 1.16699 77.5 3.5 118.5s8 81.167 17 120.5s22.333 76.5 40 111.5s41.834 65.667 72.501 92s68.834 47.333 114.501 63s100.834 23.5 165.501 23.5c38.667 0 76.334 -3.83301 113.001 -11.5s71.334 -20 104.001 -37s62.834 -39.167 90.501 -66.5s52.167 -61 73.5 -101
l-144 -66c-19.333 40.667 -48.666 73 -87.999 97s-87 36 -143 36c-47.333 0 -85.666 -8 -114.999 -24s-52.166 -37.833 -68.499 -65.5s-27.333 -60 -33 -97s-8.5 -76.833 -8.5 -119.5v-164h311v-145h-311v-232c0 -14.667 -1.33301 -33 -4 -55
s-6.33398 -45.167 -11.001 -69.5s-10.334 -48.5 -17.001 -72.5s-13.667 -45 -21 -63h653v-156h-951v141z" />
    <glyph glyph-name="currency" unicode="&#xa4;" horiz-adv-x="1466" 
d="M150 866c0 66.667 10.667 130.669 32 192.002s51.333 117.666 90 168.999l-97 98l104 103l97 -98c52 38 108 67.833 168 89.5s123.333 32.5 190 32.5c64.667 0 127 -10.667 187 -32s116 -51 168 -89l97 97l104 -103l-97 -98c40 -50.667 70.667 -106.5 92 -167.5
s32 -125.5 32 -193.5c0 -66.667 -10.5 -129.834 -31.5 -189.501s-50.833 -114.834 -89.5 -165.501l47 -47.5l47 -46.5l-104 -104l-92 92c-52 -39.333 -108.5 -69.833 -169.5 -91.5s-124.5 -32.5 -190.5 -32.5c-66.667 0 -130.667 10.833 -192 32.5s-118 52.5 -170 92.5
l-93 -93l-104 104l95 95c-38 50 -67.5 104.833 -88.5 164.5s-31.5 122.834 -31.5 189.501zM734 420.002c70 0 130.999 12.833 182.999 38.5s95.5 59.334 130.5 101.001s61.167 89.167 78.5 142.5s26 108 26 164s-8.66699 110.667 -26 164s-43.5 100.833 -78.5 142.5
s-78.667 75.334 -131 101.001s-113.166 38.5 -182.499 38.5c-70 0 -131 -12.833 -183 -38.5s-95.5 -59.334 -130.5 -101.001s-61.167 -89.167 -78.5 -142.5s-26 -108 -26 -164s8.66699 -110.667 26 -164s43.5 -100.833 78.5 -142.5s78.5 -75.334 130.5 -101.001
s113 -38.5 183 -38.5z" />
    <glyph glyph-name="yen" unicode="&#xa5;" horiz-adv-x="1202" 
d="M504 0v286h-325v138h325v112h-325v139h260l-186.5 366l-187.5 367h227l313 -686l318 686h214l-374 -733h257v-139h-324v-112h324v-138h-324v-286h-192z" />
    <glyph glyph-name="brokenbar" unicode="&#xa6;" horiz-adv-x="517" 
d="M177 1477h163v-723h-163v723zM177 300h163v-777h-163v777z" />
    <glyph glyph-name="section" unicode="&#xa7;" horiz-adv-x="955" 
d="M423 -27c-52.667 0 -101.334 4.50488 -146.001 13.5049s-88.334 22.167 -131.001 39.5v175c16.667 -8 36 -16.333 58 -25s45.167 -16.5 69.5 -23.5s49.833 -12.833 76.5 -17.5s53.667 -7 81 -7c43.333 0 78.5 4.83301 105.5 14.5s47.833 21.5 62.5 35.5
s24.5 28.667 29.5 44s7.5 28.333 7.5 39c0 22 -7.33301 41.667 -22 59s-33.834 33 -57.501 47s-50.5 27.167 -80.5 39.5l-91 37.5c-22 8.66699 -47.5 19.667 -76.5 33s-56.167 30.5 -81.5 51.5s-46.833 46.833 -64.5 77.5s-26.5 67.667 -26.5 111c0 32.667 5.33301 62 16 88
s24.334 49.167 41.001 69.5s35.167 38 55.5 53s40.166 27.833 59.499 38.5c-47.333 23.333 -85 53.166 -113 89.499s-42 80.5 -42 132.5c0 42.667 8.66699 80.667 26 114s41.666 61.5 72.999 84.5s69 40.5 113 52.5s93 18 147 18c82.667 0 174 -17 274 -51l-28 -157
c-42 17.333 -82.833 31.666 -122.5 42.999s-78.834 17 -117.501 17c-21.333 0 -42.5 -1.5 -63.5 -4.5s-40 -8.66699 -57 -17s-30.833 -19.833 -41.5 -34.5s-16 -33.667 -16 -57c0 -18 3.66699 -33.667 11 -47s19.333 -25.833 36 -37.5s38.334 -23.334 65.001 -35.001
s59 -24.834 97 -39.501c29.333 -11.333 59.833 -24 91.5 -38s60.834 -31.5 87.501 -52.5s48.5 -46.833 65.5 -77.5s25.5 -68.334 25.5 -113.001c0 -62.667 -13.833 -114.334 -41.5 -155.001s-66.5 -73.667 -116.5 -99c20.667 -10 41 -21.667 61 -35
s37.833 -29.166 53.5 -47.499s28.334 -39.666 38.001 -63.999s14.5 -52.5 14.5 -84.5c0 -44.667 -9.16699 -85.334 -27.5 -122.001s-44.666 -68 -78.999 -94s-76.666 -46.167 -126.999 -60.5s-107.5 -21.5 -171.5 -21.5zM305 746.005
c0 -22.667 5.49805 -43.3359 16.498 -62.0029s26.167 -35.5 45.5 -50.5s42 -28.5 68 -40.5s54 -22.667 84 -32c12 6 25.833 13.667 41.5 23s30.167 20.833 43.5 34.5s24.666 29.334 33.999 47.001s14 37.834 14 60.501s-4.5 42.5 -13.5 59.5s-22.167 32.5 -39.5 46.5
s-39.166 27 -65.499 39s-56.5 24 -90.5 36c-16 -6 -32.167 -13.833 -48.5 -23.5s-31.166 -21.167 -44.499 -34.5s-24.166 -28.666 -32.499 -45.999s-12.5 -36.333 -12.5 -57z" />
    <glyph glyph-name="dieresis" unicode="&#xa8;" horiz-adv-x="816" 
d="M327 1377v-172h-222v172h222zM705 1377v-172h-222v172h222z" />
    <glyph glyph-name="copyright" unicode="&#xa9;" horiz-adv-x="1647" 
d="M477 719c0 47.333 6.33301 97.3379 19 150.005s33.5 100.167 62.5 142.5s66.833 76.666 113.5 102.999s103.667 39.5 171 39.5c24 0 49 -2.5 75 -7.5s51 -13.833 75 -26.5s46.167 -29.834 66.5 -51.501s36.5 -48.834 48.5 -81.501l-96 -59
c-10 23.333 -21.167 41.666 -33.5 54.999s-25.666 23.5 -39.999 30.5s-29.666 11.667 -45.999 14s-33.833 3.5 -52.5 3.5c-42 0 -77.167 -9.33301 -105.5 -28s-51 -43.167 -68 -73.5s-29.167 -64.666 -36.5 -102.999s-11 -74.5 -11 -108.5s3.66699 -70.167 11 -108.5
s19.5 -72.666 36.5 -102.999s39.667 -54.833 68 -73.5s63.5 -28 105.5 -28c18.667 0 36.167 1.16699 52.5 3.5s31.666 7 45.999 14s27.666 17.167 39.999 30.5s23.5 31.666 33.5 54.999l96 -59c-12 -32.667 -28.167 -59.834 -48.5 -81.501s-42.5 -38.834 -66.5 -51.501
s-49 -21.5 -75 -26.5s-51 -7.5 -75 -7.5c-67.333 0 -124.333 13.167 -171 39.5s-84.5 60.666 -113.5 102.999s-49.833 89.833 -62.5 142.5s-19 103.334 -19 152.001zM93 713.005c0 66.667 8.66699 131.163 26 193.496s41.666 120.666 72.999 174.999
s69.166 103.833 113.499 148.5s93.666 82.834 147.999 114.501s112.666 56.334 174.999 74.001s127.5 26.5 195.5 26.5c66.667 0 131.167 -8.66699 193.5 -26s120.5 -42 174.5 -74s103.167 -70.167 147.5 -114.5s82.5 -93.666 114.5 -147.999s56.667 -112.666 74 -174.999
s26 -127.166 26 -194.499s-8.66699 -132.166 -26 -194.499s-42 -120.666 -74 -174.999s-70.167 -103.833 -114.5 -148.5s-93.5 -82.834 -147.5 -114.501s-112.167 -56.167 -174.5 -73.5s-126.833 -26 -193.5 -26c-68 0 -133.167 8.66699 -195.5 26s-120.666 42 -174.999 74
s-103.666 70.333 -147.999 115s-82.166 94 -113.499 148s-55.666 112.167 -72.999 174.5s-26 127.166 -26 194.499zM197 713.001c0 -86 16.3291 -166.667 48.9961 -242s77.334 -141.333 134.001 -198s123.167 -101.334 199.5 -134.001s157.833 -49 244.5 -49
s168 16.333 244 49s142.167 77.334 198.5 134.001s100.666 122.667 132.999 198s48.5 156 48.5 242c0 57.333 -7.33301 112.5 -22 165.5s-35.5 102.667 -62.5 149s-59.5 88.5 -97.5 126.5s-80.167 70.5 -126.5 97.5s-96.166 48 -149.499 63s-108.666 22.5 -165.999 22.5
c-58 0 -113.667 -7.5 -167 -22.5s-103.166 -36 -149.499 -63s-88.666 -59.5 -126.999 -97.5s-71 -80.167 -98 -126.5s-48 -96 -63 -149s-22.5 -108.167 -22.5 -165.5z" />
    <glyph glyph-name="ordfeminine" unicode="&#xaa;" horiz-adv-x="770" 
d="M317 782c-28.667 0 -55.667 4.16699 -81 12.5s-47.5 20.5 -66.5 36.5s-34 35.833 -45 59.5s-16.5 51.167 -16.5 82.5c0 38.667 8 71.5 24 98.5s37.667 49.167 65 66.5s59.333 30 96 38s75.667 12 117 12h89v37c-0.666992 18.667 -4 34.834 -10 48.501
s-13.833 24.667 -23.5 33s-20.834 14.5 -33.501 18.5s-26.334 6 -41.001 6c-29.333 0 -59.666 -4.83301 -90.999 -14.5s-59.333 -22.5 -84 -38.5l-48 79c14.667 12 31.5 22.833 50.5 32.5s39.167 17.667 60.5 24s43.333 11.166 66 14.499s44.667 5 66 5
c28.667 0 55.834 -4.5 81.501 -13.5s48.167 -22.667 67.5 -41s34.833 -41.833 46.5 -70.5s17.5 -63 17.5 -103v-239c0 -24 0.166992 -46 0.5 -66s0.833008 -37.667 1.5 -53c0.666992 -17.333 1.66699 -33 3 -47h-110c-0.666992 7.33301 -2 15 -4 23
c-1.33301 6.66699 -3 14.167 -5 22.5s-3.66699 16.833 -5 25.5c-10.667 -11.333 -22.334 -22.333 -35.001 -33s-26.667 -20.167 -42 -28.5s-32.166 -15 -50.499 -20s-38.5 -7.5 -60.5 -7.5zM345 891c33.333 0 60.166 6.16699 80.499 18.5s36 28.166 47 47.499
s18.167 40.833 21.5 64.5s5 46.834 5 69.501c-4.66699 0 -10.167 0.166992 -16.5 0.5s-12.833 0.5 -19.5 0.5h-19h-13c-26.667 0 -51.667 -2 -75 -6s-43.666 -10.333 -60.999 -19s-31 -20.167 -41 -34.5s-15 -31.833 -15 -52.5c0 -11.333 1.83301 -22.333 5.5 -33
s9.66699 -20.167 18 -28.5s19.333 -15 33 -20s30.167 -7.5 49.5 -7.5z" />
    <glyph glyph-name="guillemotleft" unicode="&#xab;" horiz-adv-x="989" 
d="M476 495v18l254 387l146 -37l-206 -360l207 -362l-147 -33zM95 495v19l252 386l146 -37l-208 -360l209 -362l-147 -34z" />
    <glyph glyph-name="logicalnot" unicode="&#xac;" horiz-adv-x="1256" 
d="M1087 771v-541h-159v382h-789v159h948z" />
    <glyph glyph-name="registered" unicode="&#xae;" horiz-adv-x="1644" 
d="M553 304l0.000976562 828h260c32.667 0 66.334 -3 101.001 -9s66.167 -17.333 94.5 -34s51.5 -40 69.5 -70s27 -69 27 -117c0 -16 -2.33301 -33.167 -7 -51.5s-12.334 -36.833 -23.001 -55.5s-24.667 -36.5 -42 -53.5s-38.333 -31.833 -63 -44.5
c24 -6.66699 43.833 -17.834 59.5 -33.501s28.667 -34.167 39 -55.5s18.833 -44.666 25.5 -69.999s12.667 -51.5 18 -78.5s11 -53.833 17 -80.5s13.667 -51.667 23 -75h-143c-16.667 64.667 -29.334 119 -38.001 163s-18.5 79.5 -29.5 106.5s-26 46.333 -45 58
s-47.5 17.5 -85.5 17.5h-118v-345h-140zM693.001 1009l0.00195312 -237.999h118c19.333 0 38.166 1.5 56.499 4.5s34.666 9 48.999 18s25.833 21.167 34.5 36.5s13 35.666 13 60.999s-4.33301 45.833 -13 61.5s-20 27.667 -34 36s-30.333 13.833 -49 16.5s-38 4 -58 4h-117z
M196.003 714.001c0 -87.333 16.5 -168.833 49.5 -244.5s77.833 -141.834 134.5 -198.501s122.834 -101.167 198.501 -133.5s156.5 -48.5 242.5 -48.5c86.667 0 167.834 16.333 243.501 49s141.667 77.167 198 133.5s100.666 122.5 132.999 198.5s48.5 157.333 48.5 244
c0 84.667 -16 164.834 -48 240.501s-76 141.834 -132 198.501s-122 101.5 -198 134.5s-157.667 49.5 -245 49.5c-86 0 -166.833 -16.333 -242.5 -49s-141.834 -77.334 -198.501 -134.001s-101.5 -122.667 -134.5 -198s-49.5 -156 -49.5 -242zM92.0029 714.001
c0 68 8.83594 133.335 26.5029 196.002s42.5 121 74.5 175s70.333 103.167 115 147.5s94 82.166 148 113.499s111.833 55.666 173.5 72.999s125.5 26 191.5 26c66.667 0 131.167 -8.66699 193.5 -26s120.5 -41.833 174.5 -73.5s103.167 -69.667 147.5 -114
s82.333 -93.5 114 -147.5s56.167 -112.333 73.5 -175s26 -127.667 26 -195c0 -68 -8.66699 -133.167 -26 -195.5s-42 -120.666 -74 -174.999s-70.167 -103.833 -114.5 -148.5s-93.5 -82.834 -147.5 -114.501s-112 -56.167 -174 -73.5s-126.333 -26 -193 -26
s-130.834 8.66699 -192.501 26s-119.5 41.833 -173.5 73.5s-103.333 69.834 -148 114.501s-82.834 94.167 -114.501 148.5s-56.334 112.666 -74.001 174.999s-26.5 127.5 -26.5 195.5z" />
    <glyph glyph-name="macron" unicode="&#xaf;" horiz-adv-x="546" 
d="M-3 1363h543v-117h-543v117z" />
    <glyph glyph-name="degree" unicode="&#xb0;" horiz-adv-x="808" 
d="M98 1092c0 42.667 8 82.667 24 120s38 70 66 98s60.5 50 97.5 66s76.5 24 118.5 24s81.5 -8 118.5 -24s69.5 -38 97.5 -66s50 -60.667 66 -98s24 -77.333 24 -120c0 -42 -8 -81.667 -24 -119s-37.833 -69.833 -65.5 -97.5s-60.167 -49.667 -97.5 -66
s-77 -24.5 -119 -24.5s-81.5 8 -118.5 24s-69.5 38 -97.5 66s-50 60.667 -66 98s-24 77 -24 119zM234 1092c0 -23.333 4.5 -44.999 13.5 -64.999s21.167 -37.667 36.5 -53s33.333 -27.333 54 -36s42.667 -13 66 -13c24 0 46.333 4.5 67 13.5s38.667 21 54 36
s27.333 32.667 36 53s13 41.833 13 64.5c0 23.333 -4.5 45.166 -13.5 65.499s-21.167 38.166 -36.5 53.499s-33.333 27.5 -54 36.5s-42.667 13.5 -66 13.5s-45.333 -4.33301 -66 -13s-38.667 -20.667 -54 -36s-27.5 -33.166 -36.5 -53.499s-13.5 -42.5 -13.5 -66.5z" />
    <glyph glyph-name="plusminus" unicode="&#xb1;" horiz-adv-x="1214" 
d="M524 564h-391v161h391v345h164v-345h393v-161h-393v-342h-164v342zM133 -13v160h948v-160h-948z" />
    <glyph glyph-name="twosuperior" unicode="&#xb2;" horiz-adv-x="925" 
d="M123 1159c19.333 43.333 40.002 80.332 62.002 110.999s46.167 55.5 72.5 74.5s55.666 32.833 87.999 41.5s68.5 13 108.5 13c44.667 0 87 -6.16699 127 -18.5s74.833 -31.333 104.5 -57s53.167 -58 70.5 -97s26 -84.833 26 -137.5c0 -31.333 -5 -63.166 -15 -95.499
s-26.5 -67.5 -49.5 -105.5s-53.333 -79.5 -91 -124.5s-84.167 -95.5 -139.5 -151.5l-187 -190h504v-137h-692v140l274 283l95.5 103.5c29.667 33.667 55.167 66.5 76.5 98.5s38.166 63.333 50.499 94s18.5 60.334 18.5 89.001c0 20 -2.83301 40 -8.5 60s-15 38.167 -28 54.5
s-30.5 29.666 -52.5 39.999s-49 15.5 -81 15.5c-32.667 0 -60 -5 -82 -15s-40.5 -22.5 -55.5 -37.5s-27.333 -31.5 -37 -49.5s-18.167 -35.333 -25.5 -52z" />
    <glyph glyph-name="threesuperior" unicode="&#xb3;" horiz-adv-x="933" 
d="M86 482l117 64c29.333 -42.667 66.166 -74.667 110.499 -96s89.166 -32 134.499 -32c26.667 0 52.334 4 77.001 12s46.5 20 65.5 36s34 36 45 60s16.5 52 16.5 84c0 36 -7.33301 65.833 -22 89.5s-34 42.667 -58 57s-51.333 24.333 -82 30s-62 8.5 -94 8.5h-78v131
c5.33301 -0.666992 11.166 -1.16699 17.499 -1.5s12.5 -0.5 18.5 -0.5c34.667 0 68.5 2.66699 101.5 8s62.167 15 87.5 29s45.833 33 61.5 57s23.5 55 23.5 93c0 26.667 -4.83301 49.834 -14.5 69.501s-22.667 36 -39 49s-35.166 22.667 -56.499 29s-43.666 9.5 -66.999 9.5
c-22 0 -44 -2.83301 -66 -8.5s-42.833 -14 -62.5 -25s-37.5 -24.667 -53.5 -41s-29 -35.5 -39 -57.5l-120 45c16 36.667 36.667 68.667 62 96s53.833 50 85.5 68s65.167 31.5 100.5 40.5s70.666 13.5 105.999 13.5c41.333 0 81.166 -6 119.499 -18s72.333 -29.833 102 -53.5
s53.5 -53 71.5 -88s27 -75.833 27 -122.5c0 -24 -4.16699 -48.167 -12.5 -72.5s-20.5 -47.5 -36.5 -69.5s-35.333 -42.5 -58 -61.5s-48.334 -35.833 -77.001 -50.5c42.667 -14 77.334 -31.833 104.001 -53.5s47.667 -44.667 63 -69s25.833 -48.333 31.5 -72
s8.5 -44.167 8.5 -61.5c0 -48 -9.83301 -91.333 -29.5 -130s-46.167 -71.667 -79.5 -99s-71.666 -48.5 -114.999 -63.5s-88.666 -22.5 -135.999 -22.5c-32 0 -64.333 3.66699 -97 11s-64.5 18.666 -95.5 33.999s-60.833 35 -89.5 59s-55 52.667 -79 86z" />
    <glyph glyph-name="acute" unicode="&#xb4;" horiz-adv-x="816" 
d="M249 1165l168 309h219l-256 -309h-131z" />
    <glyph glyph-name="mu" unicode="&#xb5;" horiz-adv-x="1137" 
d="M829 1019l174 0.00195312v-1019h-151l-12 130c-15.333 -20 -32.5 -39 -51.5 -57s-40 -34 -63 -48s-48 -25.167 -75 -33.5s-56.167 -12.5 -87.5 -12.5c-47.333 0 -88.5 9.5 -123.5 28.5s-65.833 41.167 -92.5 66.5c0 -43.333 0.333008 -84 1 -122
c0 -16 0.166992 -32.5 0.5 -49.5s0.666016 -33 0.999023 -48s0.5 -28.667 0.5 -41v-29.5v-217h-175v1452h175v-570c0 -40.667 2.66699 -80 8 -118s15.833 -71.833 31.5 -101.5s37.834 -53.334 66.501 -71.001s66.667 -26.5 114 -26.5c40 0 76 7 108 21
s59.167 36.167 81.5 66.5s39.5 69.666 51.5 117.999s18 106.833 18 175.5v506z" />
    <glyph glyph-name="paragraph" unicode="&#xb6;" horiz-adv-x="1222" 
d="M874 -290l-0.00292969 1588h-203v-1588h-145v808c-7.33301 -0.666992 -16.666 -1.16699 -27.999 -1.5s-20.666 -0.5 -27.999 -0.5c-65.333 0 -123.166 11.333 -173.499 34s-92.5 54.167 -126.5 94.5s-59.833 88.333 -77.5 144s-26.5 116.5 -26.5 182.5
c0 68.667 9 132.334 27 191.001s46.167 109.167 84.5 151.5s87.5 75.5 147.5 99.5s132 36 216 36h534v-153h-55v-1586h-146z" />
    <glyph glyph-name="periodcentered" unicode="&#xb7;" horiz-adv-x="510" 
d="M143 697h224v-249h-224v249z" />
    <glyph glyph-name="cedilla" unicode="&#xb8;" horiz-adv-x="481" 
d="M434 -248c0 -17.333 -3.33203 -36.999 -9.99902 -58.999s-19.334 -42.667 -38.001 -62s-45 -35.833 -79 -49.5s-78 -20.5 -132 -20.5c-30 0 -56.333 2.66699 -79 8s-43.334 11.666 -62.001 18.999l26 99c13.333 -5.33301 29.333 -9.5 48 -12.5s38 -4.5 58 -4.5
c34 0 61.833 6.33301 83.5 19s32.5 31 32.5 55c0 13.333 -3.5 24.333 -10.5 33s-15.667 15.5 -26 20.5s-21.833 8.5 -34.5 10.5s-24.667 3 -36 3h-14c-4 0 -8 -0.333008 -12 -1l-53 27l112 181h111l-71 -115c64.667 -9.33301 111.834 -25.833 141.501 -49.5
s44.5 -57.5 44.5 -101.5z" />
    <glyph glyph-name="onesuperior" unicode="&#xb9;" horiz-adv-x="632" 
d="M302 849l0.00195312 26.001c0 12.667 0.166992 27.5 0.5 44.5s0.666016 35.667 0.999023 56s0.5 40.833 0.5 61.5c0.666992 48 1.33398 101 2.00098 159c-34 -28.667 -69.833 -55.334 -107.5 -80.001s-76.834 -48.667 -117.501 -72l-37 138
c11.333 6 25.166 14.333 41.499 25l51.5 35l55.5 39.5l53.5 39l45 33.5l30 23h131v-1092h-150v564z" />
    <glyph glyph-name="ordmasculine" unicode="&#xba;" horiz-adv-x="753" 
d="M681 1110c0 -49.333 -6.99805 -94.3301 -20.998 -134.997s-34.167 -75.334 -60.5 -104.001s-58.333 -50.834 -96 -66.501s-80.167 -23.5 -127.5 -23.5c-50 0 -93.833 8.33301 -131.5 25s-69.167 39.5 -94.5 68.5s-44.5 63.5 -57.5 103.5s-19.5 83 -19.5 129
c0 46.667 6.33301 90 19 130s31.667 74.5 57 103.5s57.166 51.833 95.499 68.5s83.166 25 134.499 25c54.667 0 101.167 -9.33301 139.5 -28s69.5 -43.167 93.5 -73.5s41.5 -64.833 52.5 -103.5s16.5 -78.334 16.5 -119.001zM208.002 1111c0 -30 2.83301 -58.333 8.5 -85
s15 -50.167 28 -70.5s30.167 -36.5 51.5 -48.5s48 -18 80 -18c24 0 46.167 4.33301 66.5 13s38 22.167 53 40.5s26.833 41.5 35.5 69.5s13 61.333 13 100c0 30 -2.66699 58.167 -8 84.5s-14.166 49.333 -26.499 69s-29.166 35.167 -50.499 46.5s-48 17 -80 17
c-30.667 0 -56.834 -5.5 -78.501 -16.5s-39.334 -26.167 -53.001 -45.5s-23.667 -42.333 -30 -69s-9.5 -55.667 -9.5 -87z" />
    <glyph glyph-name="guillemotright" unicode="&#xbb;" horiz-adv-x="991" 
d="M322 502l-208 361l146 37l254 -389v-19l-254 -385l-144 34zM705 502l-208 361l146 37l255 -389l-2 -19l-254 -385l-144 34z" />
    <glyph glyph-name="onequarter" unicode="&#xbc;" horiz-adv-x="1966" 
d="M1197 1448l-485 -1466h-161l489 1466h157zM317 849l0.00195312 26.001c0 12.667 0.166992 27.5 0.5 44.5s0.666016 35.667 0.999023 56s0.5 40.833 0.5 61.5c0.666992 48 1.33398 101 2.00098 159c-34 -28.667 -69.833 -55.334 -107.5 -80.001
s-76.834 -48.667 -117.501 -72l-37 138c11.333 6 25.166 14.333 41.499 25l51.5 35l55.5 39.5l53.5 39l45 33.5l30 23h131v-1092h-150v564zM1581 -2.99902v238h-493v162l482 705h161v-728h157v-139h-157v-238h-150zM1230 374.001h351v267l3 288l-123 -205z" />
    <glyph glyph-name="onehalf" unicode="&#xbd;" horiz-adv-x="1976" 
d="M1202 1448l-485 -1466h-161l489 1466h157zM317 849l0.00195312 26.001c0 12.667 0.166992 27.5 0.5 44.5s0.666016 35.667 0.999023 56s0.5 40.833 0.5 61.5c0.666992 48 1.33398 101 2.00098 159c-34 -28.667 -69.833 -55.334 -107.5 -80.001
s-76.834 -48.667 -117.501 -72l-37 138c11.333 6 25.166 14.333 41.499 25l51.5 35l55.5 39.5l53.5 39l45 33.5l30 23h131v-1092h-150v564zM1189 871.001c19.333 43.333 40.002 80.332 62.002 110.999s46.167 55.5 72.5 74.5s55.666 32.833 87.999 41.5s68.5 13 108.5 13
c44.667 0 87 -6.16699 127 -18.5s74.833 -31.333 104.5 -57s53.167 -58 70.5 -97s26 -84.833 26 -137.5c0 -31.333 -5 -63.166 -15 -95.499s-26.5 -67.5 -49.5 -105.5s-53.333 -79.5 -91 -124.5s-84.167 -95.5 -139.5 -151.5l-187 -190h504v-137h-692v140l274 283
l95.5 103.5c29.667 33.667 55.167 66.5 76.5 98.5s38.166 63.333 50.499 94s18.5 60.334 18.5 89.001c0 20 -2.83301 40 -8.5 60s-15 38.167 -28 54.5s-30.5 29.666 -52.5 39.999s-49 15.5 -81 15.5c-32.667 0 -60 -5 -82 -15s-40.5 -22.5 -55.5 -37.5
s-27.333 -31.5 -37 -49.5s-18.167 -35.333 -25.5 -52z" />
    <glyph glyph-name="threequarters" unicode="&#xbe;" horiz-adv-x="2211" 
d="M1457 1448l-485 -1466h-161l489 1466h157zM1836 -2v238h-493v162l482 705h161v-728h157v-139h-157v-238h-150zM1485 375h351v267l3 288l-123 -205zM86 482l117 64c29.333 -42.667 66.166 -74.667 110.499 -96s89.166 -32 134.499 -32c26.667 0 52.334 4 77.001 12
s46.5 20 65.5 36s34 36 45 60s16.5 52 16.5 84c0 36 -7.33301 65.833 -22 89.5s-34 42.667 -58 57s-51.333 24.333 -82 30s-62 8.5 -94 8.5h-78v131c5.33301 -0.666992 11.166 -1.16699 17.499 -1.5s12.5 -0.5 18.5 -0.5c34.667 0 68.5 2.66699 101.5 8s62.167 15 87.5 29
s45.833 33 61.5 57s23.5 55 23.5 93c0 26.667 -4.83301 49.834 -14.5 69.501s-22.667 36 -39 49s-35.166 22.667 -56.499 29s-43.666 9.5 -66.999 9.5c-22 0 -44 -2.83301 -66 -8.5s-42.833 -14 -62.5 -25s-37.5 -24.667 -53.5 -41s-29 -35.5 -39 -57.5l-120 45
c16 36.667 36.667 68.667 62 96s53.833 50 85.5 68s65.167 31.5 100.5 40.5s70.666 13.5 105.999 13.5c41.333 0 81.166 -6 119.499 -18s72.333 -29.833 102 -53.5s53.5 -53 71.5 -88s27 -75.833 27 -122.5c0 -24 -4.16699 -48.167 -12.5 -72.5s-20.5 -47.5 -36.5 -69.5
s-35.333 -42.5 -58 -61.5s-48.334 -35.833 -77.001 -50.5c42.667 -14 77.334 -31.833 104.001 -53.5s47.667 -44.667 63 -69s25.833 -48.333 31.5 -72s8.5 -44.167 8.5 -61.5c0 -48 -9.83301 -91.333 -29.5 -130s-46.167 -71.667 -79.5 -99s-71.666 -48.5 -114.999 -63.5
s-88.666 -22.5 -135.999 -22.5c-32 0 -64.333 3.66699 -97 11s-64.5 18.666 -95.5 33.999s-60.833 35 -89.5 59s-55 52.667 -79 86z" />
    <glyph glyph-name="questiondown" unicode="&#xbf;" horiz-adv-x="882" 
d="M599.034 1075.04l0.000976562 -78.9922c0 -33.3291 -1.5 -63.3252 -4.49902 -89.9883c-3 -26.6631 -8.99902 -52.3262 -17.998 -76.9893s-21.9971 -48.9932 -38.9951 -72.9902s-39.4951 -49.9941 -67.4912 -77.9912l-79.4912 -82.4902
c-24.3301 -26.3301 -44.9941 -52.1602 -61.9922 -77.4902s-30.3301 -50.8271 -39.9951 -76.4912c-9.66504 -25.6631 -14.498 -52.4932 -14.498 -80.4893c0 -39.3291 8.16602 -71.6582 24.4971 -96.9883c16.3311 -25.3311 36.4951 -45.1621 60.4922 -59.4932
s49.6611 -24.3301 76.9912 -29.9961s51.9932 -8.49902 73.9902 -8.49902c29.9971 0 68.1592 4.83301 114.486 14.498c46.3281 9.66504 100.488 28.1631 162.48 55.4932l29.9961 -170.979c-39.9951 -17.3311 -86.3223 -33.1621 -138.982 -47.4941
c-52.6611 -14.3311 -110.654 -21.4971 -173.979 -21.4971c-65.3252 0 -124.318 7.99902 -176.979 23.9971c-52.6602 15.998 -97.3213 39.3281 -133.983 69.9912s-64.8252 67.9922 -84.4893 111.986c-19.665 43.9951 -29.4971 93.9893 -29.4971 149.982
c0 41.9951 4.66602 78.9902 13.999 110.986c9.33203 31.9961 23.1631 62.4922 41.4941 91.4883c18.3311 28.9971 41.4951 57.9932 69.4922 86.9893c27.9971 28.9971 60.6592 61.1602 97.9873 96.4893c28.6631 26.6631 51.9941 49.3271 69.9922 67.9922
c17.9971 18.6641 31.9951 37.1621 41.9941 55.4932s16.832 38.4951 20.498 60.4922s5.49902 49.6602 5.49902 82.9893v69.9912h158.98zM626.032 1202.02h-212.974v210.975h212.974v-210.975z" />
    <glyph glyph-name="Agrave" unicode="&#xc0;" 
d="M19 64l534 1348h193l527 -1353v-59h-189l-152 396h-583l-154 -396h-176v64zM547 928l-133 -360h455l-130 360l-95 270zM719 1578l-273 309h230l172 -309h-129z" />
    <glyph glyph-name="Aacute" unicode="&#xc1;" 
d="M19 64l534 1348h193l527 -1353v-59h-189l-152 396h-583l-154 -396h-176v64zM547 928l-133 -360h455l-130 360l-95 270zM454 1579l168 309h219l-256 -309h-131z" />
    <glyph glyph-name="Acircumflex" unicode="&#xc2;" 
d="M19 64l534 1348h193l527 -1353v-59h-189l-152 396h-583l-154 -396h-176v64zM547 928l-133 -360h455l-130 360l-95 270zM808 1601l-163 226l-166 -226h-181l260 358h182l256 -358h-188z" />
    <glyph glyph-name="Atilde" unicode="&#xc3;" 
d="M19 64l534 1348h193l527 -1353v-59h-189l-152 396h-583l-154 -396h-176v64zM547 928l-133 -360h455l-130 360l-95 270zM768 1607c-18 0 -38.502 4 -61.502 12s-46.167 16.667 -69.5 26l-66 26c-20.667 8 -37.667 12 -51 12c-21.333 0 -38 -6.5 -50 -19.5
s-23.333 -35.167 -34 -66.5h-96c0 34 5 65.167 15 93.5s23.5 52.666 40.5 72.999s36.833 36.166 59.5 47.499s46.334 17 71.001 17c20.667 0 41.834 -3.83301 63.501 -11.5s43 -16 64 -25s41.667 -17.333 62 -25s39.5 -11.5 57.5 -11.5c23.333 0 41.333 7.5 54 22.5
s21.667 36.5 27 64.5h100c-2 -41.333 -8.33301 -76.666 -19 -105.999s-24.5 -53.666 -41.5 -72.999s-36.333 -33.5 -58 -42.5s-44.167 -13.5 -67.5 -13.5z" />
    <glyph glyph-name="Adieresis" unicode="&#xc4;" 
d="M19 64l534 1348h193l527 -1353v-59h-189l-152 396h-583l-154 -396h-176v64zM547 928l-133 -360h455l-130 360l-95 270zM569 1791v-172h-222v172h222zM947 1791v-172h-222v172h222z" />
    <glyph glyph-name="Aring" unicode="&#xc5;" 
d="M19 64l534 1348h193l527 -1353v-59h-189l-152 396h-583l-154 -396h-176v64zM547 928l-133 -360h455l-130 360l-95 270zM645 1919c-39.333 0 -73.333 -13.167 -102 -39.5s-43 -60.5 -43 -102.5c0 -38.667 13.333 -71.167 40 -97.5s61.667 -39.5 105 -39.5
c42 0 76.333 13.167 103 39.5s40 58.833 40 97.5c0 42 -14.333 76.167 -43 102.5s-62.667 39.5 -102 39.5h2zM644 2012c33.333 0 65 -5.66699 95 -17s55.333 -27.5 76 -48.5s36.834 -46 48.501 -75s17.5 -60.5 17.5 -94.5s-5.83301 -65 -17.5 -93
s-27.834 -52.333 -48.501 -73s-46 -36.667 -76 -48s-61.667 -17 -95 -17s-65 5.66699 -95 17s-55.333 27.333 -76 48s-36.834 45 -48.501 73s-17.5 59 -17.5 93s5.83301 65.5 17.5 94.5s27.834 54 48.501 75s46 37.167 76 48.5s61.667 17 95 17z" />
    <glyph glyph-name="AE" unicode="&#xc6;" horiz-adv-x="1814" 
d="M960 0l-36 410h-535l-213 -410h-209l737 1412h979v-175h-641l39 -417h570v-175h-553l44 -468h552v-177h-734zM472 581h435l-59 664h-41z" />
    <glyph glyph-name="Ccedilla" unicode="&#xc7;" horiz-adv-x="1240" 
d="M1166 93c-80 -40.667 -156 -70.668 -228 -90.001s-140 -29 -204 -29c-70.667 0 -135.167 9.5 -193.5 28.5s-110.5 45.167 -156.5 78.5s-86.333 72.833 -121 118.5s-63.334 95.167 -86.001 148.5s-39.667 109.5 -51 168.5s-17 118.5 -17 178.5
c0 62 5.83301 123.5 17.5 184.5s29.167 119.167 52.5 174.5s52.5 106.666 87.5 153.999s75.5 88.333 121.5 123s97.5 61.834 154.5 81.501s119.5 29.5 187.5 29.5c46 0 90.5 -5.33301 133.5 -16s83.167 -27.667 120.5 -51s70.833 -54.166 100.5 -92.499
s53.5 -84.833 71.5 -139.5l-175 -42c-10 32.667 -23.5 59.667 -40.5 81s-36.167 38.333 -57.5 51s-44.833 21.667 -70.5 27s-52.167 8 -79.5 8c-67.333 0 -126.833 -15.667 -178.5 -47s-95.167 -73.333 -130.5 -126s-62 -113.5 -80 -182.5s-27 -140.833 -27 -215.5
c0 -68.667 8.66699 -135.834 26 -201.501s44 -124.167 80 -175.5s81.333 -92.666 136 -123.999s119.334 -47 194.001 -47c50 0 103.667 8.16699 161 24.5s119.333 40.833 186 73.5zM900 -248.001c0 -17.333 -3.33203 -36.999 -9.99902 -58.999s-19.334 -42.667 -38.001 -62
s-45 -35.833 -79 -49.5s-78 -20.5 -132 -20.5c-30 0 -56.333 2.66699 -79 8s-43.334 11.666 -62.001 18.999l26 99c13.333 -5.33301 29.333 -9.5 48 -12.5s38 -4.5 58 -4.5c34 0 61.833 6.33301 83.5 19s32.5 31 32.5 55c0 13.333 -3.5 24.333 -10.5 33
s-15.667 15.5 -26 20.5s-21.833 8.5 -34.5 10.5s-24.667 3 -36 3h-14c-4 0 -8 -0.333008 -12 -1l-53 27l112 181h111l-71 -115c64.667 -9.33301 111.834 -25.833 141.501 -49.5s44.5 -57.5 44.5 -101.5z" />
    <glyph glyph-name="Egrave" unicode="&#xc8;" horiz-adv-x="1138" 
d="M1017 0h-827v1412h818v-175h-622v-419h587v-175h-587v-464h631v-179zM660 1578l-273 309h230l172 -309h-129z" />
    <glyph glyph-name="Eacute" unicode="&#xc9;" horiz-adv-x="1138" 
d="M1017 0h-827v1412h818v-175h-622v-419h587v-175h-587v-464h631v-179zM394 1579l168 309h219l-256 -309h-131z" />
    <glyph glyph-name="Ecircumflex" unicode="&#xca;" horiz-adv-x="1138" 
d="M1017 0h-827v1412h818v-175h-622v-419h587v-175h-587v-464h631v-179zM749 1601l-163 226l-166 -226h-181l260 358h182l256 -358h-188z" />
    <glyph glyph-name="Edieresis" unicode="&#xcb;" horiz-adv-x="1138" 
d="M1017 0h-827v1412h818v-175h-622v-419h587v-175h-587v-464h631v-179zM510 1791v-172h-222v172h222zM888 1791v-172h-222v172h222z" />
    <glyph glyph-name="Igrave" unicode="&#xcc;" horiz-adv-x="577" 
d="M191 0v1412h196v-1412h-196zM366 1578l-273 309h230l172 -309h-129z" />
    <glyph glyph-name="Iacute" unicode="&#xcd;" horiz-adv-x="577" 
d="M191 0v1412h196v-1412h-196zM100 1579l168 309h219l-256 -309h-131z" />
    <glyph glyph-name="Icircumflex" unicode="&#xce;" horiz-adv-x="578" 
d="M191 0v1412h196v-1412h-196zM455 1601l-163 226l-166 -226h-181l260 358h182l256 -358h-188z" />
    <glyph glyph-name="Idieresis" unicode="&#xcf;" horiz-adv-x="578" 
d="M191 0v1412h196v-1412h-196zM216 1791v-172h-222v172h222zM594 1791v-172h-222v172h222z" />
    <glyph glyph-name="Eth" unicode="&#xd0;" horiz-adv-x="1403" 
d="M73 640v167.999h119v604h482c69.333 0 132.833 -9 190.5 -27s109.5 -42.667 155.5 -74s86 -68.666 120 -111.999s62.5 -90.5 85.5 -141.5s40.167 -104.667 51.5 -161s17 -113.5 17 -171.5c0 -107.333 -13.833 -205.5 -41.5 -294.5s-68.5 -165.333 -122.5 -229
s-121 -113.167 -201 -148.5s-172.667 -53 -278 -53h-459v640h-119zM389 1240v-431.996h176v-168h-176v-469h248c74.667 0 140 13.667 196 41s102.5 65.166 139.5 113.499s64.833 105.666 83.5 171.999s28 138.166 28 215.499c0 66 -8.66699 130.667 -26 194
s-43.166 119.666 -77.499 168.999s-76.833 89 -127.5 119s-109.334 45 -176.001 45h-288z" />
    <glyph glyph-name="Ntilde" unicode="&#xd1;" horiz-adv-x="1487" 
d="M191 0v1412h246l659 -1107l22 5c-0.666992 21.333 -1.16699 45.833 -1.5 73.5s-0.833008 56.334 -1.5 86.001s-1.16699 59.167 -1.5 88.5s-0.666016 56.5 -0.999023 81.5s-0.5 46.5 -0.5 64.5v38v670h184v-1412h-237l-672 1123l-21 -5c0.666992 -22 1.16699 -47 1.5 -75
s0.833008 -57.167 1.5 -87.5s1.16699 -60.666 1.5 -90.999s0.666016 -58.166 0.999023 -83.499s0.5 -47.5 0.5 -66.5v-39.5v-675h-181zM868 1607c-18 0 -38.502 4 -61.502 12s-46.167 16.667 -69.5 26l-66 26c-20.667 8 -37.667 12 -51 12c-21.333 0 -38 -6.5 -50 -19.5
s-23.333 -35.167 -34 -66.5h-96c0 34 5 65.167 15 93.5s23.5 52.666 40.5 72.999s36.833 36.166 59.5 47.499s46.334 17 71.001 17c20.667 0 41.834 -3.83301 63.501 -11.5s43 -16 64 -25s41.667 -17.333 62 -25s39.5 -11.5 57.5 -11.5c23.333 0 41.333 7.5 54 22.5
s21.667 36.5 27 64.5h100c-2 -41.333 -8.33301 -76.666 -19 -105.999s-24.5 -53.666 -41.5 -72.999s-36.333 -33.5 -58 -42.5s-44.167 -13.5 -67.5 -13.5z" />
    <glyph glyph-name="Ograve" unicode="&#xd2;" horiz-adv-x="1483" 
d="M742 -26c-77.333 0 -146.501 9.16699 -207.501 27.5s-114.833 43.833 -161.5 76.5s-86.5 71.667 -119.5 117s-60 95 -81 149s-36.333 111.333 -46 172s-14.5 123 -14.5 187c0 65.333 5.16699 129 15.5 191s26.333 120.333 48 175s49.334 104.834 83.001 150.501
s73.834 85 120.501 118s100.167 58.667 160.5 77s127.833 27.5 202.5 27.5s142.167 -9.16699 202.5 -27.5s113.833 -44 160.5 -77s86.834 -72.333 120.501 -118s61.167 -95.834 82.5 -150.501s37.166 -113 47.499 -175s15.5 -125.667 15.5 -191
c0 -64 -4.83301 -126.333 -14.5 -187s-24.834 -118 -45.501 -172s-47.5 -103.667 -80.5 -149s-72.833 -84.333 -119.5 -117s-100.5 -58.167 -161.5 -76.5s-130.167 -27.5 -207.5 -27.5zM741.999 149c82.667 0 151.169 15 205.502 45s97.5 70.667 129.5 122
s54.5 110.666 67.5 177.999s19.5 138.666 19.5 213.999c0 78 -6.83301 151 -20.5 219s-36.834 127.333 -69.501 178s-76 90.5 -130 119.5s-121.333 43.5 -202 43.5s-148 -14.5 -202 -43.5s-97.333 -68.833 -130 -119.5s-56 -110 -70 -178s-21 -141 -21 -219
c0 -75.333 6.5 -146.666 19.5 -213.999s35.5 -126.666 67.5 -177.999s75.167 -92 129.5 -122s123.166 -45 206.499 -45zM817.001 1578l-273 309h230l172 -309h-129z" />
    <glyph glyph-name="Oacute" unicode="&#xd3;" horiz-adv-x="1483" 
d="M742 -26c-77.333 0 -146.501 9.16699 -207.501 27.5s-114.833 43.833 -161.5 76.5s-86.5 71.667 -119.5 117s-60 95 -81 149s-36.333 111.333 -46 172s-14.5 123 -14.5 187c0 65.333 5.16699 129 15.5 191s26.333 120.333 48 175s49.334 104.834 83.001 150.501
s73.834 85 120.501 118s100.167 58.667 160.5 77s127.833 27.5 202.5 27.5s142.167 -9.16699 202.5 -27.5s113.833 -44 160.5 -77s86.834 -72.333 120.501 -118s61.167 -95.834 82.5 -150.501s37.166 -113 47.499 -175s15.5 -125.667 15.5 -191
c0 -64 -4.83301 -126.333 -14.5 -187s-24.834 -118 -45.501 -172s-47.5 -103.667 -80.5 -149s-72.833 -84.333 -119.5 -117s-100.5 -58.167 -161.5 -76.5s-130.167 -27.5 -207.5 -27.5zM741.999 149c82.667 0 151.169 15 205.502 45s97.5 70.667 129.5 122
s54.5 110.666 67.5 177.999s19.5 138.666 19.5 213.999c0 78 -6.83301 151 -20.5 219s-36.834 127.333 -69.501 178s-76 90.5 -130 119.5s-121.333 43.5 -202 43.5s-148 -14.5 -202 -43.5s-97.333 -68.833 -130 -119.5s-56 -110 -70 -178s-21 -141 -21 -219
c0 -75.333 6.5 -146.666 19.5 -213.999s35.5 -126.666 67.5 -177.999s75.167 -92 129.5 -122s123.166 -45 206.499 -45zM551.001 1579l168 309h219l-256 -309h-131z" />
    <glyph glyph-name="Ocircumflex" unicode="&#xd4;" horiz-adv-x="1483" 
d="M742 -26c-77.333 0 -146.501 9.16699 -207.501 27.5s-114.833 43.833 -161.5 76.5s-86.5 71.667 -119.5 117s-60 95 -81 149s-36.333 111.333 -46 172s-14.5 123 -14.5 187c0 65.333 5.16699 129 15.5 191s26.333 120.333 48 175s49.334 104.834 83.001 150.501
s73.834 85 120.501 118s100.167 58.667 160.5 77s127.833 27.5 202.5 27.5s142.167 -9.16699 202.5 -27.5s113.833 -44 160.5 -77s86.834 -72.333 120.501 -118s61.167 -95.834 82.5 -150.501s37.166 -113 47.499 -175s15.5 -125.667 15.5 -191
c0 -64 -4.83301 -126.333 -14.5 -187s-24.834 -118 -45.501 -172s-47.5 -103.667 -80.5 -149s-72.833 -84.333 -119.5 -117s-100.5 -58.167 -161.5 -76.5s-130.167 -27.5 -207.5 -27.5zM741.999 149c82.667 0 151.169 15 205.502 45s97.5 70.667 129.5 122
s54.5 110.666 67.5 177.999s19.5 138.666 19.5 213.999c0 78 -6.83301 151 -20.5 219s-36.834 127.333 -69.501 178s-76 90.5 -130 119.5s-121.333 43.5 -202 43.5s-148 -14.5 -202 -43.5s-97.333 -68.833 -130 -119.5s-56 -110 -70 -178s-21 -141 -21 -219
c0 -75.333 6.5 -146.666 19.5 -213.999s35.5 -126.666 67.5 -177.999s75.167 -92 129.5 -122s123.166 -45 206.499 -45zM906.001 1601l-163 226l-166 -226h-181l260 358h182l256 -358h-188z" />
    <glyph glyph-name="Otilde" unicode="&#xd5;" horiz-adv-x="1483" 
d="M742 -26c-77.333 0 -146.501 9.16699 -207.501 27.5s-114.833 43.833 -161.5 76.5s-86.5 71.667 -119.5 117s-60 95 -81 149s-36.333 111.333 -46 172s-14.5 123 -14.5 187c0 65.333 5.16699 129 15.5 191s26.333 120.333 48 175s49.334 104.834 83.001 150.501
s73.834 85 120.501 118s100.167 58.667 160.5 77s127.833 27.5 202.5 27.5s142.167 -9.16699 202.5 -27.5s113.833 -44 160.5 -77s86.834 -72.333 120.501 -118s61.167 -95.834 82.5 -150.501s37.166 -113 47.499 -175s15.5 -125.667 15.5 -191
c0 -64 -4.83301 -126.333 -14.5 -187s-24.834 -118 -45.501 -172s-47.5 -103.667 -80.5 -149s-72.833 -84.333 -119.5 -117s-100.5 -58.167 -161.5 -76.5s-130.167 -27.5 -207.5 -27.5zM741.999 149c82.667 0 151.169 15 205.502 45s97.5 70.667 129.5 122
s54.5 110.666 67.5 177.999s19.5 138.666 19.5 213.999c0 78 -6.83301 151 -20.5 219s-36.834 127.333 -69.501 178s-76 90.5 -130 119.5s-121.333 43.5 -202 43.5s-148 -14.5 -202 -43.5s-97.333 -68.833 -130 -119.5s-56 -110 -70 -178s-21 -141 -21 -219
c0 -75.333 6.5 -146.666 19.5 -213.999s35.5 -126.666 67.5 -177.999s75.167 -92 129.5 -122s123.166 -45 206.499 -45zM866.001 1607c-18 0 -38.502 4 -61.502 12s-46.167 16.667 -69.5 26l-66 26c-20.667 8 -37.667 12 -51 12c-21.333 0 -38 -6.5 -50 -19.5
s-23.333 -35.167 -34 -66.5h-96c0 34 5 65.167 15 93.5s23.5 52.666 40.5 72.999s36.833 36.166 59.5 47.499s46.334 17 71.001 17c20.667 0 41.834 -3.83301 63.501 -11.5s43 -16 64 -25s41.667 -17.333 62 -25s39.5 -11.5 57.5 -11.5c23.333 0 41.333 7.5 54 22.5
s21.667 36.5 27 64.5h100c-2 -41.333 -8.33301 -76.666 -19 -105.999s-24.5 -53.666 -41.5 -72.999s-36.333 -33.5 -58 -42.5s-44.167 -13.5 -67.5 -13.5z" />
    <glyph glyph-name="Odieresis" unicode="&#xd6;" horiz-adv-x="1483" 
d="M742 -26c-77.333 0 -146.501 9.16699 -207.501 27.5s-114.833 43.833 -161.5 76.5s-86.5 71.667 -119.5 117s-60 95 -81 149s-36.333 111.333 -46 172s-14.5 123 -14.5 187c0 65.333 5.16699 129 15.5 191s26.333 120.333 48 175s49.334 104.834 83.001 150.501
s73.834 85 120.501 118s100.167 58.667 160.5 77s127.833 27.5 202.5 27.5s142.167 -9.16699 202.5 -27.5s113.833 -44 160.5 -77s86.834 -72.333 120.501 -118s61.167 -95.834 82.5 -150.501s37.166 -113 47.499 -175s15.5 -125.667 15.5 -191
c0 -64 -4.83301 -126.333 -14.5 -187s-24.834 -118 -45.501 -172s-47.5 -103.667 -80.5 -149s-72.833 -84.333 -119.5 -117s-100.5 -58.167 -161.5 -76.5s-130.167 -27.5 -207.5 -27.5zM741.999 149c82.667 0 151.169 15 205.502 45s97.5 70.667 129.5 122
s54.5 110.666 67.5 177.999s19.5 138.666 19.5 213.999c0 78 -6.83301 151 -20.5 219s-36.834 127.333 -69.501 178s-76 90.5 -130 119.5s-121.333 43.5 -202 43.5s-148 -14.5 -202 -43.5s-97.333 -68.833 -130 -119.5s-56 -110 -70 -178s-21 -141 -21 -219
c0 -75.333 6.5 -146.666 19.5 -213.999s35.5 -126.666 67.5 -177.999s75.167 -92 129.5 -122s123.166 -45 206.499 -45zM667.001 1791v-172h-222v172h222zM1045 1791v-172h-222v172h222z" />
    <glyph glyph-name="multiply" unicode="&#xd7;" horiz-adv-x="1038" 
d="M516 470l-277 -276l-112 111l278 276l-279 279l117 116l278 -277l278 277l112 -111l-279 -278l278 -276l-118 -117z" />
    <glyph glyph-name="Oslash" unicode="&#xd8;" horiz-adv-x="1485" 
d="M1371 714c0 -100.667 -11.667 -195.836 -35 -285.503s-60.5 -168.167 -111.5 -235.5s-116.5 -120.666 -196.5 -159.999s-177 -59 -291 -59c-65.333 0 -124.5 6.33301 -177.5 19s-101.167 30.667 -144.5 54l-91 -150l-129 34l116 192
c-34.667 32.667 -64.5 70.167 -89.5 112.5s-45.5 88 -61.5 137s-27.833 101.333 -35.5 157s-11.5 113.5 -11.5 173.5c0 45.333 2.83301 92.5 8.5 141.5s15.167 97.167 28.5 144.5s30.5 93.166 51.5 137.499s47.167 84.833 78.5 121.5h-1c32 34.667 66.667 64.334 104 89.001
s76.166 44.834 116.499 60.501s81.5 27 123.5 34s83.333 10.5 124 10.5c60.667 0 117.167 -6.33301 169.5 -19s100.833 -31 145.5 -55l90 149l131 -35l-116 -191c66.667 -62.667 117.334 -142.167 152.001 -238.5s52 -209.166 52 -338.499zM741 148.998
c60 0 116.834 11.668 170.501 35.001s99.5 56.666 137.5 99.999c22.667 29.333 41.167 62.333 55.5 99s25.666 74.334 33.999 113.001s14.166 77 17.499 115s5 72.667 5 104c0 84 -7.66699 160.167 -23 228.5s-40 127.166 -74 176.499l-551 -910
c32.667 -20.667 68.334 -36 107.001 -46s79 -15 121 -15zM320.001 707.999c0 -76.667 7.49902 -149.832 22.499 -219.499s40.5 -131.834 76.5 -186.501l549 910c-29.333 18 -62.166 31.833 -98.499 41.5s-76.833 14.5 -121.5 14.5c-80.667 0 -148.334 -14.5 -203.001 -43.5
s-98.667 -68.833 -132 -119.5s-57.166 -110 -71.499 -178s-21.5 -141 -21.5 -219z" />
    <glyph glyph-name="Ugrave" unicode="&#xd9;" horiz-adv-x="1442" 
d="M1267 1412l-0.000976562 -888c0 -82.667 -13.167 -157.834 -39.5 -225.501s-63.5 -125.5 -111.5 -173.5s-105.5 -85.167 -172.5 -111.5s-140.833 -39.5 -221.5 -39.5s-154.5 11.833 -221.5 35.5s-124.667 58.667 -173 105s-85.833 104.333 -112.5 174
s-40 150.5 -40 242.5v881h196v-893c0 -74 10.5 -135 31.5 -183s48.333 -85.667 82 -113s71.667 -46.333 114 -57s84.833 -16 127.5 -16c50.667 0 94.334 5.83301 131.001 17.5s68 27.167 94 46.5s47 41.833 63 67.5s28.5 52.334 37.5 80.001s15 55.5 18 83.5
s4.5 54.333 4.5 79v888h193zM794.999 1559l-273 309h230l172 -309h-129z" />
    <glyph glyph-name="Uacute" unicode="&#xda;" horiz-adv-x="1442" 
d="M1267 1412l-0.000976562 -888c0 -82.667 -13.167 -157.834 -39.5 -225.501s-63.5 -125.5 -111.5 -173.5s-105.5 -85.167 -172.5 -111.5s-140.833 -39.5 -221.5 -39.5s-154.5 11.833 -221.5 35.5s-124.667 58.667 -173 105s-85.833 104.333 -112.5 174
s-40 150.5 -40 242.5v881h196v-893c0 -74 10.5 -135 31.5 -183s48.333 -85.667 82 -113s71.667 -46.333 114 -57s84.833 -16 127.5 -16c50.667 0 94.334 5.83301 131.001 17.5s68 27.167 94 46.5s47 41.833 63 67.5s28.5 52.334 37.5 80.001s15 55.5 18 83.5
s4.5 54.333 4.5 79v888h193zM531.999 1560l168 309h219l-256 -309h-131z" />
    <glyph glyph-name="Ucircumflex" unicode="&#xdb;" horiz-adv-x="1442" 
d="M1267 1412l-0.000976562 -888c0 -82.667 -13.167 -157.834 -39.5 -225.501s-63.5 -125.5 -111.5 -173.5s-105.5 -85.167 -172.5 -111.5s-140.833 -39.5 -221.5 -39.5s-154.5 11.833 -221.5 35.5s-124.667 58.667 -173 105s-85.833 104.333 -112.5 174
s-40 150.5 -40 242.5v881h196v-893c0 -74 10.5 -135 31.5 -183s48.333 -85.667 82 -113s71.667 -46.333 114 -57s84.833 -16 127.5 -16c50.667 0 94.334 5.83301 131.001 17.5s68 27.167 94 46.5s47 41.833 63 67.5s28.5 52.334 37.5 80.001s15 55.5 18 83.5
s4.5 54.333 4.5 79v888h193zM883.999 1582l-163 226l-166 -226h-181l260 358h182l256 -358h-188z" />
    <glyph glyph-name="Udieresis" unicode="&#xdc;" horiz-adv-x="1442" 
d="M1267 1412l-0.000976562 -888c0 -82.667 -13.167 -157.834 -39.5 -225.501s-63.5 -125.5 -111.5 -173.5s-105.5 -85.167 -172.5 -111.5s-140.833 -39.5 -221.5 -39.5s-154.5 11.833 -221.5 35.5s-124.667 58.667 -173 105s-85.833 104.333 -112.5 174
s-40 150.5 -40 242.5v881h196v-893c0 -74 10.5 -135 31.5 -183s48.333 -85.667 82 -113s71.667 -46.333 114 -57s84.833 -16 127.5 -16c50.667 0 94.334 5.83301 131.001 17.5s68 27.167 94 46.5s47 41.833 63 67.5s28.5 52.334 37.5 80.001s15 55.5 18 83.5
s4.5 54.333 4.5 79v888h193zM646.999 1772v-172h-222v172h222zM1025 1772v-172h-222v172h222z" />
    <glyph glyph-name="Yacute" unicode="&#xdd;" horiz-adv-x="1174" 
d="M594 723l369 689h220l-496 -865v-547h-200v547l-496 865h232zM389 1560l168 309h219l-256 -309h-131z" />
    <glyph glyph-name="Thorn" unicode="&#xde;" horiz-adv-x="1160" 
d="M189 1457l196 -0.00195312v-188h221c70.667 0 136.167 -7 196.5 -21s112.5 -36.667 156.5 -68s78.333 -72.5 103 -123.5s37 -113.833 37 -188.5c0 -75.333 -11.833 -139.666 -35.5 -192.999s-58.167 -97.166 -103.5 -131.499s-100.833 -59.5 -166.5 -75.5
s-140.5 -24 -224.5 -24h-184v-444h-196v1457zM385 613.998l94.998 -0.000976562c33.333 0 66.833 0.333008 100.5 1s65.834 3.33398 96.501 8.00098s59.167 12.167 85.5 22.5s49.333 24.833 69 43.5s35 42.5 46 71.5s16.5 64.833 16.5 107.5c0 48.667 -8.33301 88 -25 118
s-38.667 53.5 -66 70.5s-58.666 28.5 -93.999 34.5s-72 9 -110 9h-214v-486z" />
    <glyph glyph-name="germandbls" unicode="&#xdf;" horiz-adv-x="1200" 
d="M997 1170c0 -26 -3.33398 -49.4941 -10.001 -70.4941s-15.667 -40.5 -27 -58.5s-24.5 -34.5 -39.5 -49.5s-30.5 -29.167 -46.5 -42.5l-62 -52.5c-16.667 -14.333 -30.167 -27 -40.5 -38s-17.666 -21.167 -21.999 -30.5s-6.5 -19.333 -6.5 -30
c0 -20.667 7.66699 -39.334 23 -56.001s41.666 -37 78.999 -61l102 -68.5c34.667 -23.667 66 -49.834 94 -78.501s51 -60.667 69 -96s27 -75.333 27 -120c0 -56 -9.83301 -105 -29.5 -147s-46.5 -76.833 -80.5 -104.5s-73.833 -48.5 -119.5 -62.5s-94.834 -21 -147.501 -21
c-34 0 -67.333 3 -100 9s-62.667 16.5 -90 31.5s-51 35.167 -71 60.5s-34.667 57.666 -44 96.999l106 81c19.333 -40 46.833 -71.333 82.5 -94s75.834 -34 120.501 -34c34.667 0 63.667 4.83301 87 14.5s42.166 22.167 56.499 37.5s24.666 32.666 30.999 51.999
s9.5 39 9.5 59c0 28.667 -5.5 53.667 -16.5 75s-26 41.166 -45 59.499s-41.667 35.833 -68 52.5l-85.5 54c-32 20 -59.167 39 -81.5 57s-40.666 36.5 -54.999 55.5s-24.833 38.833 -31.5 59.5s-10 43.334 -10 68.001c0 28.667 4.16699 53.834 12.5 75.501
s19.333 41.334 33 59.001s29.5 34.167 47.5 49.5s37 30.666 57 45.999l40 31.5c12.667 10.333 23.834 21.333 33.501 33s17.167 24.667 22.5 39s8 30.833 8 49.5c0 48.667 -18.833 87.5 -56.5 116.5s-93.5 43.5 -167.5 43.5c-38 0 -71.833 -4.16699 -101.5 -12.5
s-54.5 -21.833 -74.5 -40.5s-35.333 -43.334 -46 -74.001s-16 -68.334 -16 -113.001v-1081h-188v1083c0 52.667 6.66699 102.167 20 148.5s36.333 87 69 122s76.834 62.667 132.501 83s125.5 30.5 209.5 30.5c52 0 102.5 -5.33301 151.5 -16s92.333 -27.667 130 -51
s68 -53.833 91 -91.5s34.5 -83.834 34.5 -138.501z" />
    <glyph glyph-name="agrave" unicode="&#xe0;" horiz-adv-x="1039" 
d="M154 919c26.667 18 55.5 34.332 86.5 48.999s63 27.5 96 38.5s66.167 19.5 99.5 25.5s65.666 9 96.999 9c48 0 93.5 -6.16699 136.5 -18.5s80.667 -31.666 113 -57.999s57.833 -60.166 76.5 -101.499s28 -91.333 28 -150v-412c0 -45.333 1 -86.333 3 -123
s4.66699 -68.334 8 -95.001c3.33301 -31.333 7.33301 -59 12 -83h-169c-2 11.333 -3.83301 32.333 -5.5 63s-3.16699 65 -4.5 103c-22 -37.333 -46 -67.833 -72 -91.5s-53 -42.5 -81 -56.5s-56.667 -23.667 -86 -29s-58.333 -8 -87 -8c-50 0 -95.333 6.83301 -136 20.5
s-75.167 33.5 -103.5 59.5s-50.166 57.333 -65.499 94s-23 78 -23 124c0 22 2.5 45.333 7.5 70s13.167 49 24.5 73s26.333 47 45 69s41.667 41.667 69 59c29.333 18.667 61.666 33.167 96.999 43.5s71.833 18 109.5 23s75.5 8 113.5 9s74.667 1.5 110 1.5h54v74
c0 36.667 -4.66699 67.5 -14 92.5s-22.333 45 -39 60s-36 25.833 -58 32.5s-45.333 10 -70 10c-27.333 0 -55.666 -3.16699 -84.999 -9.5s-58 -14.5 -86 -24.5s-54.5 -21 -79.5 -33s-47.167 -24 -66.5 -36zM646 209.999c12.667 14.667 22.833 31.001 30.5 49.001
s13.667 38.333 18 61s7.33301 48 9 76s2.5 59.667 2.5 95h-29c-46 0 -93.5 -1.66699 -142.5 -5s-94 -12 -135 -26s-74.667 -35.5 -101 -64.5s-39.5 -68.833 -39.5 -119.5c0 -18.667 3 -36.834 9 -54.501s15.5 -33.5 28.5 -47.5s29.333 -25.333 49 -34s43.5 -13 71.5 -13
c48 0 92.333 7 133 21s72.667 34.667 96 62zM577.999 1164l-273 309h230l172 -309h-129z" />
    <glyph glyph-name="aacute" unicode="&#xe1;" horiz-adv-x="1039" 
d="M154 919c26.667 18 55.5 34.332 86.5 48.999s63 27.5 96 38.5s66.167 19.5 99.5 25.5s65.666 9 96.999 9c48 0 93.5 -6.16699 136.5 -18.5s80.667 -31.666 113 -57.999s57.833 -60.166 76.5 -101.499s28 -91.333 28 -150v-412c0 -45.333 1 -86.333 3 -123
s4.66699 -68.334 8 -95.001c3.33301 -31.333 7.33301 -59 12 -83h-169c-2 11.333 -3.83301 32.333 -5.5 63s-3.16699 65 -4.5 103c-22 -37.333 -46 -67.833 -72 -91.5s-53 -42.5 -81 -56.5s-56.667 -23.667 -86 -29s-58.333 -8 -87 -8c-50 0 -95.333 6.83301 -136 20.5
s-75.167 33.5 -103.5 59.5s-50.166 57.333 -65.499 94s-23 78 -23 124c0 22 2.5 45.333 7.5 70s13.167 49 24.5 73s26.333 47 45 69s41.667 41.667 69 59c29.333 18.667 61.666 33.167 96.999 43.5s71.833 18 109.5 23s75.5 8 113.5 9s74.667 1.5 110 1.5h54v74
c0 36.667 -4.66699 67.5 -14 92.5s-22.333 45 -39 60s-36 25.833 -58 32.5s-45.333 10 -70 10c-27.333 0 -55.666 -3.16699 -84.999 -9.5s-58 -14.5 -86 -24.5s-54.5 -21 -79.5 -33s-47.167 -24 -66.5 -36zM646 209.999c12.667 14.667 22.833 31.001 30.5 49.001
s13.667 38.333 18 61s7.33301 48 9 76s2.5 59.667 2.5 95h-29c-46 0 -93.5 -1.66699 -142.5 -5s-94 -12 -135 -26s-74.667 -35.5 -101 -64.5s-39.5 -68.833 -39.5 -119.5c0 -18.667 3 -36.834 9 -54.501s15.5 -33.5 28.5 -47.5s29.333 -25.333 49 -34s43.5 -13 71.5 -13
c48 0 92.333 7 133 21s72.667 34.667 96 62zM312.999 1165l168 309h219l-256 -309h-131z" />
    <glyph glyph-name="acircumflex" unicode="&#xe2;" horiz-adv-x="1039" 
d="M154 919c26.667 18 55.5 34.332 86.5 48.999s63 27.5 96 38.5s66.167 19.5 99.5 25.5s65.666 9 96.999 9c48 0 93.5 -6.16699 136.5 -18.5s80.667 -31.666 113 -57.999s57.833 -60.166 76.5 -101.499s28 -91.333 28 -150v-412c0 -45.333 1 -86.333 3 -123
s4.66699 -68.334 8 -95.001c3.33301 -31.333 7.33301 -59 12 -83h-169c-2 11.333 -3.83301 32.333 -5.5 63s-3.16699 65 -4.5 103c-22 -37.333 -46 -67.833 -72 -91.5s-53 -42.5 -81 -56.5s-56.667 -23.667 -86 -29s-58.333 -8 -87 -8c-50 0 -95.333 6.83301 -136 20.5
s-75.167 33.5 -103.5 59.5s-50.166 57.333 -65.499 94s-23 78 -23 124c0 22 2.5 45.333 7.5 70s13.167 49 24.5 73s26.333 47 45 69s41.667 41.667 69 59c29.333 18.667 61.666 33.167 96.999 43.5s71.833 18 109.5 23s75.5 8 113.5 9s74.667 1.5 110 1.5h54v74
c0 36.667 -4.66699 67.5 -14 92.5s-22.333 45 -39 60s-36 25.833 -58 32.5s-45.333 10 -70 10c-27.333 0 -55.666 -3.16699 -84.999 -9.5s-58 -14.5 -86 -24.5s-54.5 -21 -79.5 -33s-47.167 -24 -66.5 -36zM646 209.999c12.667 14.667 22.833 31.001 30.5 49.001
s13.667 38.333 18 61s7.33301 48 9 76s2.5 59.667 2.5 95h-29c-46 0 -93.5 -1.66699 -142.5 -5s-94 -12 -135 -26s-74.667 -35.5 -101 -64.5s-39.5 -68.833 -39.5 -119.5c0 -18.667 3 -36.834 9 -54.501s15.5 -33.5 28.5 -47.5s29.333 -25.333 49 -34s43.5 -13 71.5 -13
c48 0 92.333 7 133 21s72.667 34.667 96 62zM666.999 1187l-163 226l-166 -226h-181l260 358h182l256 -358h-188z" />
    <glyph glyph-name="atilde" unicode="&#xe3;" horiz-adv-x="1039" 
d="M154 919c26.667 18 55.5 34.332 86.5 48.999s63 27.5 96 38.5s66.167 19.5 99.5 25.5s65.666 9 96.999 9c48 0 93.5 -6.16699 136.5 -18.5s80.667 -31.666 113 -57.999s57.833 -60.166 76.5 -101.499s28 -91.333 28 -150v-412c0 -45.333 1 -86.333 3 -123
s4.66699 -68.334 8 -95.001c3.33301 -31.333 7.33301 -59 12 -83h-169c-2 11.333 -3.83301 32.333 -5.5 63s-3.16699 65 -4.5 103c-22 -37.333 -46 -67.833 -72 -91.5s-53 -42.5 -81 -56.5s-56.667 -23.667 -86 -29s-58.333 -8 -87 -8c-50 0 -95.333 6.83301 -136 20.5
s-75.167 33.5 -103.5 59.5s-50.166 57.333 -65.499 94s-23 78 -23 124c0 22 2.5 45.333 7.5 70s13.167 49 24.5 73s26.333 47 45 69s41.667 41.667 69 59c29.333 18.667 61.666 33.167 96.999 43.5s71.833 18 109.5 23s75.5 8 113.5 9s74.667 1.5 110 1.5h54v74
c0 36.667 -4.66699 67.5 -14 92.5s-22.333 45 -39 60s-36 25.833 -58 32.5s-45.333 10 -70 10c-27.333 0 -55.666 -3.16699 -84.999 -9.5s-58 -14.5 -86 -24.5s-54.5 -21 -79.5 -33s-47.167 -24 -66.5 -36zM646 209.999c12.667 14.667 22.833 31.001 30.5 49.001
s13.667 38.333 18 61s7.33301 48 9 76s2.5 59.667 2.5 95h-29c-46 0 -93.5 -1.66699 -142.5 -5s-94 -12 -135 -26s-74.667 -35.5 -101 -64.5s-39.5 -68.833 -39.5 -119.5c0 -18.667 3 -36.834 9 -54.501s15.5 -33.5 28.5 -47.5s29.333 -25.333 49 -34s43.5 -13 71.5 -13
c48 0 92.333 7 133 21s72.667 34.667 96 62zM626.999 1193c-18 0 -38.502 4 -61.502 12s-46.167 16.667 -69.5 26l-66 26c-20.667 8 -37.667 12 -51 12c-21.333 0 -38 -6.5 -50 -19.5s-23.333 -35.167 -34 -66.5h-96c0 34 5 65.167 15 93.5s23.5 52.666 40.5 72.999
s36.833 36.166 59.5 47.499s46.334 17 71.001 17c20.667 0 41.834 -3.83301 63.501 -11.5s43 -16 64 -25s41.667 -17.333 62 -25s39.5 -11.5 57.5 -11.5c23.333 0 41.333 7.5 54 22.5s21.667 36.5 27 64.5h100c-2 -41.333 -8.33301 -76.666 -19 -105.999
s-24.5 -53.666 -41.5 -72.999s-36.333 -33.5 -58 -42.5s-44.167 -13.5 -67.5 -13.5z" />
    <glyph glyph-name="adieresis" unicode="&#xe4;" horiz-adv-x="1039" 
d="M154 919c26.667 18 55.5 34.332 86.5 48.999s63 27.5 96 38.5s66.167 19.5 99.5 25.5s65.666 9 96.999 9c48 0 93.5 -6.16699 136.5 -18.5s80.667 -31.666 113 -57.999s57.833 -60.166 76.5 -101.499s28 -91.333 28 -150v-412c0 -45.333 1 -86.333 3 -123
s4.66699 -68.334 8 -95.001c3.33301 -31.333 7.33301 -59 12 -83h-169c-2 11.333 -3.83301 32.333 -5.5 63s-3.16699 65 -4.5 103c-22 -37.333 -46 -67.833 -72 -91.5s-53 -42.5 -81 -56.5s-56.667 -23.667 -86 -29s-58.333 -8 -87 -8c-50 0 -95.333 6.83301 -136 20.5
s-75.167 33.5 -103.5 59.5s-50.166 57.333 -65.499 94s-23 78 -23 124c0 22 2.5 45.333 7.5 70s13.167 49 24.5 73s26.333 47 45 69s41.667 41.667 69 59c29.333 18.667 61.666 33.167 96.999 43.5s71.833 18 109.5 23s75.5 8 113.5 9s74.667 1.5 110 1.5h54v74
c0 36.667 -4.66699 67.5 -14 92.5s-22.333 45 -39 60s-36 25.833 -58 32.5s-45.333 10 -70 10c-27.333 0 -55.666 -3.16699 -84.999 -9.5s-58 -14.5 -86 -24.5s-54.5 -21 -79.5 -33s-47.167 -24 -66.5 -36zM646 209.999c12.667 14.667 22.833 31.001 30.5 49.001
s13.667 38.333 18 61s7.33301 48 9 76s2.5 59.667 2.5 95h-29c-46 0 -93.5 -1.66699 -142.5 -5s-94 -12 -135 -26s-74.667 -35.5 -101 -64.5s-39.5 -68.833 -39.5 -119.5c0 -18.667 3 -36.834 9 -54.501s15.5 -33.5 28.5 -47.5s29.333 -25.333 49 -34s43.5 -13 71.5 -13
c48 0 92.333 7 133 21s72.667 34.667 96 62zM427.999 1377v-172h-222v172h222zM805.999 1377v-172h-222v172h222z" />
    <glyph glyph-name="aring" unicode="&#xe5;" horiz-adv-x="1039" 
d="M154 919c26.667 18 55.5 34.332 86.5 48.999s63 27.5 96 38.5s66.167 19.5 99.5 25.5s65.666 9 96.999 9c48 0 93.5 -6.16699 136.5 -18.5s80.667 -31.666 113 -57.999s57.833 -60.166 76.5 -101.499s28 -91.333 28 -150v-412c0 -45.333 1 -86.333 3 -123
s4.66699 -68.334 8 -95.001c3.33301 -31.333 7.33301 -59 12 -83h-169c-2 11.333 -3.83301 32.333 -5.5 63s-3.16699 65 -4.5 103c-22 -37.333 -46 -67.833 -72 -91.5s-53 -42.5 -81 -56.5s-56.667 -23.667 -86 -29s-58.333 -8 -87 -8c-50 0 -95.333 6.83301 -136 20.5
s-75.167 33.5 -103.5 59.5s-50.166 57.333 -65.499 94s-23 78 -23 124c0 22 2.5 45.333 7.5 70s13.167 49 24.5 73s26.333 47 45 69s41.667 41.667 69 59c29.333 18.667 61.666 33.167 96.999 43.5s71.833 18 109.5 23s75.5 8 113.5 9s74.667 1.5 110 1.5h54v74
c0 36.667 -4.66699 67.5 -14 92.5s-22.333 45 -39 60s-36 25.833 -58 32.5s-45.333 10 -70 10c-27.333 0 -55.666 -3.16699 -84.999 -9.5s-58 -14.5 -86 -24.5s-54.5 -21 -79.5 -33s-47.167 -24 -66.5 -36zM646 209.999c12.667 14.667 22.833 31.001 30.5 49.001
s13.667 38.333 18 61s7.33301 48 9 76s2.5 59.667 2.5 95h-29c-46 0 -93.5 -1.66699 -142.5 -5s-94 -12 -135 -26s-74.667 -35.5 -101 -64.5s-39.5 -68.833 -39.5 -119.5c0 -18.667 3 -36.834 9 -54.501s15.5 -33.5 28.5 -47.5s29.333 -25.333 49 -34s43.5 -13 71.5 -13
c48 0 92.333 7 133 21s72.667 34.667 96 62zM503.999 1505c-39.333 0 -73.333 -13.167 -102 -39.5s-43 -60.5 -43 -102.5c0 -38.667 13.333 -71.167 40 -97.5s61.667 -39.5 105 -39.5c42 0 76.333 13.167 103 39.5s40 58.833 40 97.5c0 42 -14.333 76.167 -43 102.5
s-62.667 39.5 -102 39.5h2zM502.999 1598c33.333 0 65 -5.66699 95 -17s55.333 -27.5 76 -48.5s36.834 -46 48.501 -75s17.5 -60.5 17.5 -94.5s-5.83301 -65 -17.5 -93s-27.834 -52.333 -48.501 -73s-46 -36.667 -76 -48s-61.667 -17 -95 -17s-65 5.66699 -95 17
s-55.333 27.333 -76 48s-36.834 45 -48.501 73s-17.5 59 -17.5 93s5.83301 65.5 17.5 94.5s27.834 54 48.501 75s46 37.167 76 48.5s61.667 17 95 17z" />
    <glyph glyph-name="ae" unicode="&#xe6;" horiz-adv-x="1658" 
d="M1529 116c-21.333 -17.333 -43.6699 -34.333 -67.0029 -51s-49 -31.5 -77 -44.5s-59 -23.333 -93 -31s-71.667 -11.5 -113 -11.5c-31.333 0 -64.666 3.83301 -99.999 11.5s-70.166 20.667 -104.499 39s-66.333 42.833 -96 73.5s-54.5 68.667 -74.5 114
c-20 -45.333 -45.333 -83.333 -76 -114s-63.834 -55.5 -99.501 -74.5s-72.834 -32.667 -111.501 -41s-76 -12.5 -112 -12.5c-50.667 0 -96.334 7 -137.001 21s-75.167 34.167 -103.5 60.5s-50.166 58.333 -65.499 96s-23 80.167 -23 127.5
c0 44.667 7.33301 84.334 22 119.001s34.834 65.167 60.501 91.5s55.667 48.5 90 66.5s71 32.667 110 44s79.5 19.5 121.5 24.5s83 7.5 123 7.5c18 0 35.5 -0.5 52.5 -1.5s33.833 -2.16699 50.5 -3.5v61c0 44.667 -4.83301 81.167 -14.5 109.5
s-23.334 50.666 -41.001 66.999s-38.834 27.5 -63.501 33.5s-51.667 9 -81 9c-26 0 -50.333 -2.66699 -73 -8s-44.334 -12.5 -65.001 -21.5s-41 -19.5 -61 -31.5s-40 -24.667 -60 -38l-49 55l-49 53c28 22.667 55.667 43 83 61s55.333 33.167 84 45.5
s58.667 21.666 90 27.999s65 9.5 101 9.5c74.667 0 138.667 -13 192 -39s98 -68.667 134 -128c20.667 28 43.834 52.333 69.501 73s52.334 37.834 80.001 51.501s56 24 85 31s57.167 10.5 84.5 10.5c72 0 134 -12.833 186 -38.5s94.833 -60.334 128.5 -104.001
s58.5 -94.5 74.5 -152.5s24 -119.333 24 -184v-100h-667c0.666992 -47.333 6.5 -91.666 17.5 -132.999s27.833 -77.333 50.5 -108s51.834 -55 87.501 -73s78.834 -27 129.501 -27c58.667 0 111.834 8.83301 159.501 26.5s93.5 44.5 137.5 80.5zM1148 904
c-64 0 -118 -21.667 -162 -65s-71 -107.333 -81 -192v-16h463c-1.33301 36 -5.5 70.333 -12.5 103s-19 61.667 -36 87s-39.333 45.5 -67 60.5s-62.5 22.5 -104.5 22.5zM644.996 217c12 15.333 21.6631 31.6709 28.9961 49.0039s13.333 36.666 18 57.999s8 45.666 10 72.999
s3 58.666 3 93.999h-29c-24 0 -50.667 -0.333008 -80 -1s-59.166 -3 -89.499 -7s-59.666 -10 -87.999 -18s-53.666 -19.333 -75.999 -34s-40.166 -33.334 -53.499 -56.001s-20 -50.334 -20 -83.001c0 -21.333 3.33301 -41.666 10 -60.999s17.167 -36.333 31.5 -51
s32.833 -26.5 55.5 -35.5s50 -13.5 82 -13.5c42 0 80 7.16699 114 21.5s61.667 35.833 83 64.5z" />
    <glyph glyph-name="ccedilla" unicode="&#xe7;" horiz-adv-x="961" 
d="M863 87c-51.333 -36 -106.167 -62.667 -164.5 -80s-114.166 -26 -167.499 -26c-55.333 0 -109 10.333 -161 31s-98 53 -138 97s-72.167 100 -96.5 168s-36.5 149.667 -36.5 245c0 88.667 13.333 165.5 40 230.5s61.334 118.833 104.001 161.5s90.834 74.5 144.501 95.5
s107.5 31.5 161.5 31.5c38 0 75.5 -5 112.5 -15s71.167 -26 102.5 -48s58.666 -50.667 81.999 -86s40.333 -78.333 51 -129l-159 -26c-7.33301 30 -17.333 55.167 -30 75.5s-27.334 36.666 -44.001 48.999s-34.5 21 -53.5 26s-38.5 7.5 -58.5 7.5
c-32 0 -63.833 -7 -95.5 -21s-60.334 -36 -86.001 -66s-46.5 -68 -62.5 -114s-24 -101 -24 -165c0 -63.333 5 -119.833 15 -169.5s25.833 -91.667 47.5 -126s49.167 -60.666 82.5 -78.999s73 -27.5 119 -27.5c28 0 54.5 2.5 79.5 7.5s48.167 11.667 69.5 20
s41 17.833 59 28.5s34.667 21.667 50 33zM710.999 -248c0 -17.333 -3.33203 -36.999 -9.99902 -58.999s-19.334 -42.667 -38.001 -62s-45 -35.833 -79 -49.5s-78 -20.5 -132 -20.5c-30 0 -56.333 2.66699 -79 8s-43.334 11.666 -62.001 18.999l26 99
c13.333 -5.33301 29.333 -9.5 48 -12.5s38 -4.5 58 -4.5c34 0 61.833 6.33301 83.5 19s32.5 31 32.5 55c0 13.333 -3.5 24.333 -10.5 33s-15.667 15.5 -26 20.5s-21.833 8.5 -34.5 10.5s-24.667 3 -36 3h-14c-4 0 -8 -0.333008 -12 -1l-53 27l112 181h111l-71 -115
c64.667 -9.33301 111.834 -25.833 141.501 -49.5s44.5 -57.5 44.5 -101.5z" />
    <glyph glyph-name="egrave" unicode="&#xe8;" horiz-adv-x="1043" 
d="M925 83c-21.333 -12.667 -43.8359 -25.168 -67.5029 -37.501s-50.167 -23.166 -79.5 -32.499s-62.166 -17 -98.499 -23s-77.5 -9 -123.5 -9c-70 0 -133.167 11.667 -189.5 35s-104.333 57.5 -144 102.5s-70.167 100.333 -91.5 166s-32 140.834 -32 225.501
c0 70.667 8.66699 138 26 202s43.833 120.333 79.5 169s81.167 87.5 136.5 116.5s121 43.5 197 43.5c72 0 134 -12.667 186 -38s94.833 -59.5 128.5 -102.5s58.5 -93.333 74.5 -151s24 -118.834 24 -183.501v-83h-666c0.666992 -46 5.83398 -90.5 15.501 -133.5
s25.167 -81 46.5 -114s49.333 -59.333 84 -79s77.667 -29.5 129 -29.5c61.333 0 116.833 7.66699 166.5 23s96.834 37 141.501 65zM533.997 894.999c-32 0 -61.833 -4.83301 -89.5 -14.5s-52 -24.667 -73 -45s-38.333 -46 -52 -77s-22.834 -67.833 -27.501 -110.5
c-0.666992 -3.33301 -1 -8 -1 -14v-19h464c-1.33301 36.667 -5.66602 72 -12.999 106s-19.333 63.833 -36 89.5s-39 46.167 -67 61.5s-63 23 -105 23zM590.997 1164l-273 309h230l172 -309h-129z" />
    <glyph glyph-name="eacute" unicode="&#xe9;" horiz-adv-x="1043" 
d="M925 83c-21.333 -12.667 -43.8359 -25.168 -67.5029 -37.501s-50.167 -23.166 -79.5 -32.499s-62.166 -17 -98.499 -23s-77.5 -9 -123.5 -9c-70 0 -133.167 11.667 -189.5 35s-104.333 57.5 -144 102.5s-70.167 100.333 -91.5 166s-32 140.834 -32 225.501
c0 70.667 8.66699 138 26 202s43.833 120.333 79.5 169s81.167 87.5 136.5 116.5s121 43.5 197 43.5c72 0 134 -12.667 186 -38s94.833 -59.5 128.5 -102.5s58.5 -93.333 74.5 -151s24 -118.834 24 -183.501v-83h-666c0.666992 -46 5.83398 -90.5 15.501 -133.5
s25.167 -81 46.5 -114s49.333 -59.333 84 -79s77.667 -29.5 129 -29.5c61.333 0 116.833 7.66699 166.5 23s96.834 37 141.501 65zM533.997 894.999c-32 0 -61.833 -4.83301 -89.5 -14.5s-52 -24.667 -73 -45s-38.333 -46 -52 -77s-22.834 -67.833 -27.501 -110.5
c-0.666992 -3.33301 -1 -8 -1 -14v-19h464c-1.33301 36.667 -5.66602 72 -12.999 106s-19.333 63.833 -36 89.5s-39 46.167 -67 61.5s-63 23 -105 23zM327.997 1165l168 309h219l-256 -309h-131z" />
    <glyph glyph-name="ecircumflex" unicode="&#xea;" horiz-adv-x="1043" 
d="M925 83c-21.333 -12.667 -43.8359 -25.168 -67.5029 -37.501s-50.167 -23.166 -79.5 -32.499s-62.166 -17 -98.499 -23s-77.5 -9 -123.5 -9c-70 0 -133.167 11.667 -189.5 35s-104.333 57.5 -144 102.5s-70.167 100.333 -91.5 166s-32 140.834 -32 225.501
c0 70.667 8.66699 138 26 202s43.833 120.333 79.5 169s81.167 87.5 136.5 116.5s121 43.5 197 43.5c72 0 134 -12.667 186 -38s94.833 -59.5 128.5 -102.5s58.5 -93.333 74.5 -151s24 -118.834 24 -183.501v-83h-666c0.666992 -46 5.83398 -90.5 15.501 -133.5
s25.167 -81 46.5 -114s49.333 -59.333 84 -79s77.667 -29.5 129 -29.5c61.333 0 116.833 7.66699 166.5 23s96.834 37 141.501 65zM533.997 894.999c-32 0 -61.833 -4.83301 -89.5 -14.5s-52 -24.667 -73 -45s-38.333 -46 -52 -77s-22.834 -67.833 -27.501 -110.5
c-0.666992 -3.33301 -1 -8 -1 -14v-19h464c-1.33301 36.667 -5.66602 72 -12.999 106s-19.333 63.833 -36 89.5s-39 46.167 -67 61.5s-63 23 -105 23zM679.997 1187l-163 226l-166 -226h-181l260 358h182l256 -358h-188z" />
    <glyph glyph-name="edieresis" unicode="&#xeb;" horiz-adv-x="1043" 
d="M925 83c-21.333 -12.667 -43.8359 -25.168 -67.5029 -37.501s-50.167 -23.166 -79.5 -32.499s-62.166 -17 -98.499 -23s-77.5 -9 -123.5 -9c-70 0 -133.167 11.667 -189.5 35s-104.333 57.5 -144 102.5s-70.167 100.333 -91.5 166s-32 140.834 -32 225.501
c0 70.667 8.66699 138 26 202s43.833 120.333 79.5 169s81.167 87.5 136.5 116.5s121 43.5 197 43.5c72 0 134 -12.667 186 -38s94.833 -59.5 128.5 -102.5s58.5 -93.333 74.5 -151s24 -118.834 24 -183.501v-83h-666c0.666992 -46 5.83398 -90.5 15.501 -133.5
s25.167 -81 46.5 -114s49.333 -59.333 84 -79s77.667 -29.5 129 -29.5c61.333 0 116.833 7.66699 166.5 23s96.834 37 141.501 65zM533.997 894.999c-32 0 -61.833 -4.83301 -89.5 -14.5s-52 -24.667 -73 -45s-38.333 -46 -52 -77s-22.834 -67.833 -27.501 -110.5
c-0.666992 -3.33301 -1 -8 -1 -14v-19h464c-1.33301 36.667 -5.66602 72 -12.999 106s-19.333 63.833 -36 89.5s-39 46.167 -67 61.5s-63 23 -105 23zM442.997 1377v-172h-222v172h222zM820.997 1377v-172h-222v172h222z" />
    <glyph glyph-name="igrave" unicode="&#xec;" horiz-adv-x="497" 
d="M320 1164l-273 309h230l172 -309h-129zM155 1019h184v-1019h-184v1019z" />
    <glyph glyph-name="iacute" unicode="&#xed;" horiz-adv-x="497" 
d="M57 1165l168 309h219l-256 -309h-131zM155 1019h184v-1019h-184v1019z" />
    <glyph glyph-name="icircumflex" unicode="&#xee;" horiz-adv-x="498" 
d="M155 1019h184v-1019h-184v1019zM409 1187l-163 226l-166 -226h-181l260 358h182l256 -358h-188z" />
    <glyph glyph-name="idieresis" unicode="&#xef;" horiz-adv-x="497" 
d="M172 1377v-172h-222v172h222zM550 1377v-172h-222v172h222zM155 1019h184v-1019h-184v1019z" />
    <glyph glyph-name="eth" unicode="&#xf0;" horiz-adv-x="1102" 
d="M510 1076l186.996 68.9971c-32.667 42 -69.5 72.833 -110.5 92.5s-85.5 29.5 -133.5 29.5c-34.667 0 -73.334 -5 -116.001 -15s-87 -25.333 -133 -46l-53 122c56 26.667 110.5 46.667 163.5 60s103.167 20 150.5 20c74.667 0 144.834 -18 210.501 -54
s121.5 -86.667 167.5 -152l202 78l33 -107l-182 -67c54 -125.333 81 -279.666 81 -462.999c0 -87.333 -6.16699 -164.333 -18.5 -231s-29.166 -124.667 -50.499 -174s-46.833 -90.666 -76.5 -123.999s-61.667 -60 -96 -80s-70.5 -34.333 -108.5 -43s-76.333 -13 -115 -13
c-59.333 0 -115.166 9.5 -167.499 28.5s-98.166 47.5 -137.499 85.5s-70.5 85.5 -93.5 142.5s-34.5 123.833 -34.5 200.5c0 69.333 10.5 130.5 31.5 183.5s49.667 97.5 86 133.5s79.333 63.167 129 81.5s103.167 27.5 160.5 27.5c122 0 226 -53 312 -159
c0 76 -4 141.333 -12 196s-20.333 104.667 -37 150c-11.333 -3.33301 -28.166 -9.16602 -50.499 -17.499l-68.5 -26.5l-87 -34zM517.996 722.997c-40.667 0 -77.334 -6.66699 -110.001 -20s-60.334 -32.333 -83.001 -57s-40.167 -54.667 -52.5 -90s-18.5 -75.333 -18.5 -120
c0 -48 6 -91.333 18 -130s29.167 -71.667 51.5 -99s49.5 -48.333 81.5 -63s68 -22 108 -22s76.833 8.33301 110.5 25s62.667 39.667 87 69s43.333 64 57 104s20.5 83 20.5 129c0 38 -6.33301 73.5 -19 106.5s-30.667 62 -54 87s-51.666 44.667 -84.999 59
s-70.666 21.5 -111.999 21.5z" />
    <glyph glyph-name="ntilde" unicode="&#xf1;" horiz-adv-x="1195" 
d="M862 0v660.002c0 75.333 -18.5 133.333 -55.5 174s-89.167 61 -156.5 61c-80.667 0 -143.834 -27.833 -189.501 -83.5s-68.5 -136.834 -68.5 -243.501v-568h-189v875h-152v149h327l10 -150c20 27.333 40.333 51.5 61 72.5s43.334 38.5 68.001 52.5s51.667 24.667 81 32
s62 11 98 11c36.667 0 75.5 -5.5 116.5 -16.5s79 -30.333 114 -58s64 -64.834 87 -111.501s34.5 -106 34.5 -178v-678h-186zM745 1193c-18 0 -38.502 4 -61.502 12s-46.167 16.667 -69.5 26l-66 26c-20.667 8 -37.667 12 -51 12c-21.333 0 -38 -6.5 -50 -19.5
s-23.333 -35.167 -34 -66.5h-96c0 34 5 65.167 15 93.5s23.5 52.666 40.5 72.999s36.833 36.166 59.5 47.499s46.334 17 71.001 17c20.667 0 41.834 -3.83301 63.501 -11.5s43 -16 64 -25s41.667 -17.333 62 -25s39.5 -11.5 57.5 -11.5c23.333 0 41.333 7.5 54 22.5
s21.667 36.5 27 64.5h100c-2 -41.333 -8.33301 -76.666 -19 -105.999s-24.5 -53.666 -41.5 -72.999s-36.333 -33.5 -58 -42.5s-44.167 -13.5 -67.5 -13.5z" />
    <glyph glyph-name="ograve" unicode="&#xf2;" horiz-adv-x="1129" 
d="M1031 512c0 -78 -10.166 -149.5 -30.499 -214.5s-50.333 -121 -90 -168s-88.834 -83.5 -147.501 -109.5s-126.334 -39 -203.001 -39c-72.667 0 -137.667 12.667 -195 38s-105.666 61 -144.999 107s-69.5 101 -90.5 165s-31.5 134.667 -31.5 212
c0 73.333 9 142.5 27 207.5s46.167 122 84.5 171s87.5 87.833 147.5 116.5s131.667 43 215 43c82 0 152 -14.833 210 -44.5s105.5 -69.167 142.5 -118.5s64 -105.833 81 -169.5s25.5 -129.167 25.5 -196.5zM284.001 504c0 -55.333 5.33398 -106.001 16.001 -152.001
s27.167 -85.667 49.5 -119s51.166 -59.333 86.499 -78s78 -28 128 -28c40 0 77.167 7.16699 111.5 21.5s64 37 89 68s44.5 70.5 58.5 118.5s21 105.667 21 173c0 124.667 -23.333 220.334 -70 287.001s-114.667 100 -204 100c-37.333 0 -73.166 -7.16699 -107.499 -21.5
s-64.833 -37.333 -91.5 -69s-47.834 -72.167 -63.501 -121.5s-23.5 -109 -23.5 -179zM642.002 1164l-273 309h230l172 -309h-129z" />
    <glyph glyph-name="oacute" unicode="&#xf3;" horiz-adv-x="1129" 
d="M1031 512c0 -78 -10.166 -149.5 -30.499 -214.5s-50.333 -121 -90 -168s-88.834 -83.5 -147.501 -109.5s-126.334 -39 -203.001 -39c-72.667 0 -137.667 12.667 -195 38s-105.666 61 -144.999 107s-69.5 101 -90.5 165s-31.5 134.667 -31.5 212
c0 73.333 9 142.5 27 207.5s46.167 122 84.5 171s87.5 87.833 147.5 116.5s131.667 43 215 43c82 0 152 -14.833 210 -44.5s105.5 -69.167 142.5 -118.5s64 -105.833 81 -169.5s25.5 -129.167 25.5 -196.5zM284.001 504c0 -55.333 5.33398 -106.001 16.001 -152.001
s27.167 -85.667 49.5 -119s51.166 -59.333 86.499 -78s78 -28 128 -28c40 0 77.167 7.16699 111.5 21.5s64 37 89 68s44.5 70.5 58.5 118.5s21 105.667 21 173c0 124.667 -23.333 220.334 -70 287.001s-114.667 100 -204 100c-37.333 0 -73.166 -7.16699 -107.499 -21.5
s-64.833 -37.333 -91.5 -69s-47.834 -72.167 -63.501 -121.5s-23.5 -109 -23.5 -179zM378.002 1165l168 309h219l-256 -309h-131z" />
    <glyph glyph-name="ocircumflex" unicode="&#xf4;" horiz-adv-x="1129" 
d="M1031 512c0 -78 -10.166 -149.5 -30.499 -214.5s-50.333 -121 -90 -168s-88.834 -83.5 -147.501 -109.5s-126.334 -39 -203.001 -39c-72.667 0 -137.667 12.667 -195 38s-105.666 61 -144.999 107s-69.5 101 -90.5 165s-31.5 134.667 -31.5 212
c0 73.333 9 142.5 27 207.5s46.167 122 84.5 171s87.5 87.833 147.5 116.5s131.667 43 215 43c82 0 152 -14.833 210 -44.5s105.5 -69.167 142.5 -118.5s64 -105.833 81 -169.5s25.5 -129.167 25.5 -196.5zM284.001 504c0 -55.333 5.33398 -106.001 16.001 -152.001
s27.167 -85.667 49.5 -119s51.166 -59.333 86.499 -78s78 -28 128 -28c40 0 77.167 7.16699 111.5 21.5s64 37 89 68s44.5 70.5 58.5 118.5s21 105.667 21 173c0 124.667 -23.333 220.334 -70 287.001s-114.667 100 -204 100c-37.333 0 -73.166 -7.16699 -107.499 -21.5
s-64.833 -37.333 -91.5 -69s-47.834 -72.167 -63.501 -121.5s-23.5 -109 -23.5 -179zM731.002 1187l-163 226l-166 -226h-181l260 358h182l256 -358h-188z" />
    <glyph glyph-name="otilde" unicode="&#xf5;" horiz-adv-x="1129" 
d="M1031 512c0 -78 -10.166 -149.5 -30.499 -214.5s-50.333 -121 -90 -168s-88.834 -83.5 -147.501 -109.5s-126.334 -39 -203.001 -39c-72.667 0 -137.667 12.667 -195 38s-105.666 61 -144.999 107s-69.5 101 -90.5 165s-31.5 134.667 -31.5 212
c0 73.333 9 142.5 27 207.5s46.167 122 84.5 171s87.5 87.833 147.5 116.5s131.667 43 215 43c82 0 152 -14.833 210 -44.5s105.5 -69.167 142.5 -118.5s64 -105.833 81 -169.5s25.5 -129.167 25.5 -196.5zM284.001 504c0 -55.333 5.33398 -106.001 16.001 -152.001
s27.167 -85.667 49.5 -119s51.166 -59.333 86.499 -78s78 -28 128 -28c40 0 77.167 7.16699 111.5 21.5s64 37 89 68s44.5 70.5 58.5 118.5s21 105.667 21 173c0 124.667 -23.333 220.334 -70 287.001s-114.667 100 -204 100c-37.333 0 -73.166 -7.16699 -107.499 -21.5
s-64.833 -37.333 -91.5 -69s-47.834 -72.167 -63.501 -121.5s-23.5 -109 -23.5 -179zM692.002 1193c-18 0 -38.502 4 -61.502 12s-46.167 16.667 -69.5 26l-66 26c-20.667 8 -37.667 12 -51 12c-21.333 0 -38 -6.5 -50 -19.5s-23.333 -35.167 -34 -66.5h-96
c0 34 5 65.167 15 93.5s23.5 52.666 40.5 72.999s36.833 36.166 59.5 47.499s46.334 17 71.001 17c20.667 0 41.834 -3.83301 63.501 -11.5s43 -16 64 -25s41.667 -17.333 62 -25s39.5 -11.5 57.5 -11.5c23.333 0 41.333 7.5 54 22.5s21.667 36.5 27 64.5h100
c-2 -41.333 -8.33301 -76.666 -19 -105.999s-24.5 -53.666 -41.5 -72.999s-36.333 -33.5 -58 -42.5s-44.167 -13.5 -67.5 -13.5z" />
    <glyph glyph-name="odieresis" unicode="&#xf6;" horiz-adv-x="1129" 
d="M1031 512c0 -78 -10.166 -149.5 -30.499 -214.5s-50.333 -121 -90 -168s-88.834 -83.5 -147.501 -109.5s-126.334 -39 -203.001 -39c-72.667 0 -137.667 12.667 -195 38s-105.666 61 -144.999 107s-69.5 101 -90.5 165s-31.5 134.667 -31.5 212
c0 73.333 9 142.5 27 207.5s46.167 122 84.5 171s87.5 87.833 147.5 116.5s131.667 43 215 43c82 0 152 -14.833 210 -44.5s105.5 -69.167 142.5 -118.5s64 -105.833 81 -169.5s25.5 -129.167 25.5 -196.5zM284.001 504c0 -55.333 5.33398 -106.001 16.001 -152.001
s27.167 -85.667 49.5 -119s51.166 -59.333 86.499 -78s78 -28 128 -28c40 0 77.167 7.16699 111.5 21.5s64 37 89 68s44.5 70.5 58.5 118.5s21 105.667 21 173c0 124.667 -23.333 220.334 -70 287.001s-114.667 100 -204 100c-37.333 0 -73.166 -7.16699 -107.499 -21.5
s-64.833 -37.333 -91.5 -69s-47.834 -72.167 -63.501 -121.5s-23.5 -109 -23.5 -179zM494.002 1377v-172h-222v172h222zM872.002 1377v-172h-222v172h222z" />
    <glyph glyph-name="divide" unicode="&#xf7;" horiz-adv-x="1206" 
d="M129 675h948v-162h-948v162zM489 1053h231v-239h-231v239zM489 366h231v-239h-231v239z" />
    <glyph glyph-name="oslash" unicode="&#xf8;" horiz-adv-x="1129" 
d="M1031 512c0 -78 -10.165 -149.499 -30.498 -214.499s-50.333 -121 -90 -168s-88.834 -83.5 -147.501 -109.5s-126.334 -39 -203.001 -39c-40 0 -77.5 3.83301 -112.5 11.5s-67.833 18.834 -98.5 33.501l-87 -145l-129 34l111 184c-48 46 -84.333 103.333 -109 172
s-37 146 -37 232c0 73.333 9 142.5 27 207.5s46.167 122 84.5 171s87.5 87.833 147.5 116.5s131.667 43 215 43c42 0 80.333 -4 115 -12s67 -19.333 97 -34l106 176l131 -35l-132 -218c24.667 -25.333 46 -53.5 64 -84.5s32.667 -63.833 44 -98.5
s19.833 -70.834 25.5 -108.501s8.5 -75.834 8.5 -114.501zM284.002 504.001c0 -50 4.16602 -96.167 12.499 -138.5s21.833 -79.833 40.5 -112.5l366 608c-39.333 22.667 -83.666 34 -132.999 34c-37.333 0 -73.166 -7.16699 -107.499 -21.5s-64.833 -37.333 -91.5 -69
s-47.834 -72.167 -63.501 -121.5s-23.5 -109 -23.5 -179zM564.001 127.001c40 0 77.167 7.16699 111.5 21.5s64 37 89 68s44.5 70.5 58.5 118.5s21 105.667 21 173c0 104 -16.667 188.333 -50 253l-365 -603c38 -20.667 83 -31 135 -31z" />
    <glyph glyph-name="ugrave" unicode="&#xf9;" horiz-adv-x="1147" 
d="M846 0c-2.66699 11.333 -5.3291 25.3369 -7.99609 42.0039c-2 14 -4.16699 31.5 -6.5 52.5s-4.5 45.5 -6.5 73.5c-25.333 -60.667 -64.833 -107 -118.5 -139s-114.834 -48 -183.501 -48c-126 0 -220 33.167 -282 99.5s-93 161.833 -93 286.5v657h186v-658
c0 -32.667 3.16699 -63.5 9.5 -92.5s17.166 -54.333 32.499 -76s35.666 -38.834 60.999 -51.501s57.333 -19 96 -19c52.667 0 96.167 8.66699 130.5 26s61.666 41.166 81.999 71.499s34.5 66.166 42.5 107.499s12 86 12 134v558h186v-648
c0 -62.667 0.833008 -117.167 2.5 -163.5s3.5 -85.5 5.5 -117.5c2.66699 -36.667 5.66699 -68.334 9 -95.001h-157zM651.005 1164l-273 309h230l172 -309h-129z" />
    <glyph glyph-name="uacute" unicode="&#xfa;" horiz-adv-x="1147" 
d="M846 0c-2.66699 11.333 -5.3291 25.3369 -7.99609 42.0039c-2 14 -4.16699 31.5 -6.5 52.5s-4.5 45.5 -6.5 73.5c-25.333 -60.667 -64.833 -107 -118.5 -139s-114.834 -48 -183.501 -48c-126 0 -220 33.167 -282 99.5s-93 161.833 -93 286.5v657h186v-658
c0 -32.667 3.16699 -63.5 9.5 -92.5s17.166 -54.333 32.499 -76s35.666 -38.834 60.999 -51.501s57.333 -19 96 -19c52.667 0 96.167 8.66699 130.5 26s61.666 41.166 81.999 71.499s34.5 66.166 42.5 107.499s12 86 12 134v558h186v-648
c0 -62.667 0.833008 -117.167 2.5 -163.5s3.5 -85.5 5.5 -117.5c2.66699 -36.667 5.66699 -68.334 9 -95.001h-157zM388.005 1165l168 309h219l-256 -309h-131z" />
    <glyph glyph-name="ucircumflex" unicode="&#xfb;" horiz-adv-x="1147" 
d="M846 0c-2.66699 11.333 -5.3291 25.3369 -7.99609 42.0039c-2 14 -4.16699 31.5 -6.5 52.5s-4.5 45.5 -6.5 73.5c-25.333 -60.667 -64.833 -107 -118.5 -139s-114.834 -48 -183.501 -48c-126 0 -220 33.167 -282 99.5s-93 161.833 -93 286.5v657h186v-658
c0 -32.667 3.16699 -63.5 9.5 -92.5s17.166 -54.333 32.499 -76s35.666 -38.834 60.999 -51.501s57.333 -19 96 -19c52.667 0 96.167 8.66699 130.5 26s61.666 41.166 81.999 71.499s34.5 66.166 42.5 107.499s12 86 12 134v558h186v-648
c0 -62.667 0.833008 -117.167 2.5 -163.5s3.5 -85.5 5.5 -117.5c2.66699 -36.667 5.66699 -68.334 9 -95.001h-157zM739.005 1187l-163 226l-166 -226h-181l260 358h182l256 -358h-188z" />
    <glyph glyph-name="udieresis" unicode="&#xfc;" horiz-adv-x="1147" 
d="M846 0c-2.66699 11.333 -5.3291 25.3369 -7.99609 42.0039c-2 14 -4.16699 31.5 -6.5 52.5s-4.5 45.5 -6.5 73.5c-25.333 -60.667 -64.833 -107 -118.5 -139s-114.834 -48 -183.501 -48c-126 0 -220 33.167 -282 99.5s-93 161.833 -93 286.5v657h186v-658
c0 -32.667 3.16699 -63.5 9.5 -92.5s17.166 -54.333 32.499 -76s35.666 -38.834 60.999 -51.501s57.333 -19 96 -19c52.667 0 96.167 8.66699 130.5 26s61.666 41.166 81.999 71.499s34.5 66.166 42.5 107.499s12 86 12 134v558h186v-648
c0 -62.667 0.833008 -117.167 2.5 -163.5s3.5 -85.5 5.5 -117.5c2.66699 -36.667 5.66699 -68.334 9 -95.001h-157zM502.005 1377v-172h-222v172h222zM880.005 1377v-172h-222v172h222z" />
    <glyph glyph-name="yacute" unicode="&#xfd;" horiz-adv-x="1025" 
d="M573 -88c-12 -31.333 -26 -64.333 -42 -99s-35 -66.5 -57 -95.5s-47.333 -53 -76 -72s-61.667 -28.5 -99 -28.5c-13.333 0 -27.666 1.33301 -42.999 4s-33.333 7 -54 13v139c15.333 -5.33301 28.333 -9 39 -11s19.667 -3 27 -3c20 0 37 6 51 18s26.333 28 37 48
s20.167 42.667 28.5 68s16.166 51 23.499 77l10 35l-404 1019h206l176 -484l120 -344l121 344l172 484h202zM325 1165l168 309h219l-256 -309h-131z" />
    <glyph glyph-name="thorn" unicode="&#xfe;" horiz-adv-x="1166" 
d="M158 -416v258.501v198.5c0 57.333 0.166992 107.333 0.5 150s0.5 80.5 0.5 113.5v89v77.5v978h186v-325l-2 -232c15.333 18.667 33 37 53 55s42.5 34 67.5 48s53 25.333 84 34s65.167 13 102.5 13c72 0 134.167 -14.167 186.5 -42.5s95.5 -66.5 129.5 -114.5
s59.167 -103.333 75.5 -166s24.5 -128.334 24.5 -197.001c0 -64.667 -7.66699 -129 -23 -193s-39.666 -121.5 -72.999 -172.5s-76.833 -92.333 -130.5 -124s-118.834 -47.5 -195.501 -47.5c-23.333 0 -48 2.83301 -74 8.5s-52.167 14.5 -78.5 26.5s-52.333 27.167 -78 45.5
s-50.167 40.5 -73.5 66.5l5 -113v-435h-187zM344 511.001c0 -24.667 1.00098 -51.1689 3.00098 -79.502s6.33301 -56.5 13 -84.5s16 -54.833 28 -80.5s27.667 -48.167 47 -67.5s43.333 -34.833 72 -46.5s62.667 -17.5 102 -17.5c49.333 0 90.666 10.5 123.999 31.5
s60 49.167 80 84.5s34.333 75.833 43 121.5s13 93.5 13 143.5c0 42 -3.33301 85.5 -10 130.5s-19.5 85.833 -38.5 122.5s-45.167 66.834 -78.5 90.501s-76.333 35.5 -129 35.5c-40 0 -74.5 -6 -103.5 -18s-53.5 -28 -73.5 -48s-36 -43.167 -48 -69.5
s-21.333 -53.666 -28 -81.999s-11 -56.833 -13 -85.5s-3 -55.667 -3 -81z" />
    <glyph glyph-name="ydieresis" unicode="&#xff;" horiz-adv-x="1025" 
d="M573 -88c-12 -31.333 -26 -64.333 -42 -99s-35 -66.5 -57 -95.5s-47.333 -53 -76 -72s-61.667 -28.5 -99 -28.5c-13.333 0 -27.666 1.33301 -42.999 4s-33.333 7 -54 13v139c15.333 -5.33301 28.333 -9 39 -11s19.667 -3 27 -3c20 0 37 6 51 18s26.333 28 37 48
s20.167 42.667 28.5 68s16.166 51 23.499 77l10 35l-404 1019h206l176 -484l120 -344l121 344l172 484h202zM439 1377v-172h-222v172h222zM817 1377v-172h-222v172h222z" />
    <glyph glyph-name="dotlessi" unicode="&#x131;" horiz-adv-x="497" 
d="M155 1019h184v-1019h-184v1019z" />
    <glyph glyph-name="OE" unicode="&#x152;" horiz-adv-x="1999" 
d="M1875 0h-1132c-84 0 -164.5 14.5 -241.5 43.5s-144.667 73 -203 132s-104.833 133.333 -139.5 223s-52 195.167 -52 316.5c0 52.667 4.16699 106.667 12.5 162s22.666 109.333 42.999 162s47.333 102.5 81 149.5s76 88 127 123s111.167 62.833 180.5 83.5
s149.666 31 240.999 31c11.333 0 27.333 -0.333008 48 -1s42.5 -1.5 65.5 -2.5s45.333 -1.83301 67 -2.5s39.167 -1 52.5 -1h13.5h35c17.667 0 43.834 0.166992 78.501 0.5s82.834 0.5 144.501 0.5h232h340.5v-177h-661v-426h631v-177h-631v-459h667v-181zM1000 1247
c-43.333 3.33301 -80.8291 5.83301 -112.496 7.5s-63.5 2.5 -95.5 2.5c-72.667 0 -134.834 -9.33301 -186.501 -28s-94.834 -43.167 -129.501 -73.5s-62.334 -64.666 -83.001 -102.999s-36.334 -77.5 -47.001 -117.5s-17.5 -79 -20.5 -117s-4.5 -71.333 -4.5 -100
c0 -34.667 1.83301 -72.167 5.5 -112.5s11.334 -80.5 23.001 -120.5s28.667 -78.667 51 -116s52 -70.333 89 -99s82.667 -51.5 137 -68.5s119.833 -25.5 196.5 -25.5h41.5c13 0 26.333 0.166992 40 0.5s28.167 0.666016 43.5 0.999023s32.666 0.833008 51.999 1.5v1068z" />
    <glyph glyph-name="oe" unicode="&#x153;" horiz-adv-x="1832" 
d="M579 -30c-59.333 0 -112.665 7.50293 -159.998 22.5029s-89 35.167 -125 60.5s-66.667 55 -92 89s-46 70 -62 108s-27.667 77.167 -35 117.5s-11 79.5 -11 117.5c0 68.667 10.833 134.5 32.5 197.5s53.5 118.5 95.5 166.5s93.667 86.167 155 114.5s132 42.5 212 42.5
c58 0 107.833 -7.83301 149.5 -23.5s77.167 -35 106.5 -58s53.166 -47.667 71.499 -74s33.5 -50.5 45.5 -72.5c16 36.667 35 67.834 57 93.501s45.167 47.167 69.5 64.5s48.833 31.166 73.5 41.499s48 18 70 23s41.667 8.16699 59 9.5s30.666 2 39.999 2
c62 0 115.333 -8.33301 160 -25s82 -38.834 112 -66.501s54 -59.5 72 -95.5s31.833 -72.833 41.5 -110.5s16 -75.167 19 -112.5s4.83301 -71.333 5.5 -102v-46h-680c-1.33301 -7.33301 -2.33301 -14.666 -3 -21.999s-1 -14.666 -1 -21.999
c0 -36.667 6.83301 -72.334 20.5 -107.001s32.334 -65.5 56.001 -92.5s51.834 -48.833 84.501 -65.5s68 -25 106 -25c28.667 0 55.167 4.83301 79.5 14.5s45.666 23 63.999 40s33.666 37.5 45.999 61.5s20.5 50.333 24.5 79h189c-6.66699 -48.667 -18.5 -91 -35.5 -127
s-36.667 -66.833 -59 -92.5s-46.833 -46.667 -73.5 -63s-53.5 -29.333 -80.5 -39s-53.333 -16.334 -79 -20.001s-48.5 -5.5 -68.5 -5.5c-41.333 0 -81 6 -119 18s-73.167 28.167 -105.5 48.5s-61 44.166 -86 71.499s-45.167 56.666 -60.5 87.999
c-38.667 -69.333 -90.5 -124 -155.5 -164s-140.167 -60 -225.5 -60zM302.001 499.003c0 -10 0.498047 -26.3369 1.49805 -49.0039s4 -48 9 -76s13.333 -57.167 25 -87.5s28.167 -58 49.5 -83s48.5 -45.5 81.5 -61.5s73.833 -24 122.5 -24c36 0 68.167 5.5 96.5 16.5
s52.833 25.833 73.5 44.5s38.167 40.334 52.5 65.001s26 50.834 35 78.501s15.333 55.834 19 84.501s5.5 56.667 5.5 84c0 45.333 -4.83301 89.833 -14.5 133.5s-25.5 82.834 -47.5 117.501s-50.833 62.5 -86.5 83.5s-79.167 31.5 -130.5 31.5
c-57.333 0 -104.666 -11.333 -141.999 -34s-67.166 -51.5 -89.499 -86.5s-38 -73.5 -47 -115.5s-13.5 -82.667 -13.5 -122zM1324 866.999c-49.333 0 -90 -9.00098 -122 -27.001s-57.667 -40.5 -77 -67.5s-33.333 -55.833 -42 -86.5s-14 -58.334 -16 -83.001h474
c-0.666992 14 -2 30.333 -4 49s-5.66699 37.834 -11 57.501s-12.833 38.834 -22.5 57.501s-22.5 35.5 -38.5 50.5s-35.5 27 -58.5 36s-50.5 13.5 -82.5 13.5z" />
    <glyph glyph-name="circumflex" unicode="&#x2c6;" horiz-adv-x="816" 
d="M563 1187l-163 226l-166 -226h-181l260 358h182l256 -358h-188z" />
    <glyph glyph-name="ring" unicode="&#x2da;" horiz-adv-x="816" 
d="M404 1505c-39.333 0 -73.333 -13.167 -102 -39.5s-43 -60.5 -43 -102.5c0 -38.667 13.333 -71.167 40 -97.5s61.667 -39.5 105 -39.5c42 0 76.333 13.167 103 39.5s40 58.833 40 97.5c0 42 -14.333 76.167 -43 102.5s-62.667 39.5 -102 39.5h2zM403 1598
c33.333 0 65 -5.66699 95 -17s55.333 -27.5 76 -48.5s36.834 -46 48.501 -75s17.5 -60.5 17.5 -94.5s-5.83301 -65 -17.5 -93s-27.834 -52.333 -48.501 -73s-46 -36.667 -76 -48s-61.667 -17 -95 -17s-65 5.66699 -95 17s-55.333 27.333 -76 48s-36.834 45 -48.501 73
s-17.5 59 -17.5 93s5.83301 65.5 17.5 94.5s27.834 54 48.501 75s46 37.167 76 48.5s61.667 17 95 17z" />
    <glyph glyph-name="tilde" unicode="&#x2dc;" horiz-adv-x="816" 
d="M536 1193c-18 0 -38.502 4 -61.502 12s-46.167 16.667 -69.5 26l-66 26c-20.667 8 -37.667 12 -51 12c-21.333 0 -38 -6.5 -50 -19.5s-23.333 -35.167 -34 -66.5h-96c0 34 5 65.167 15 93.5s23.5 52.666 40.5 72.999s36.833 36.166 59.5 47.499s46.334 17 71.001 17
c20.667 0 41.834 -3.83301 63.501 -11.5s43 -16 64 -25s41.667 -17.333 62 -25s39.5 -11.5 57.5 -11.5c23.333 0 41.333 7.5 54 22.5s21.667 36.5 27 64.5h100c-2 -41.333 -8.33301 -76.666 -19 -105.999s-24.5 -53.666 -41.5 -72.999s-36.333 -33.5 -58 -42.5
s-44.167 -13.5 -67.5 -13.5z" />
    <glyph glyph-name="endash" unicode="&#x2013;" horiz-adv-x="1207" 
d="M149 444v164h908v-164h-908z" />
    <glyph glyph-name="emdash" unicode="&#x2014;" horiz-adv-x="1906" 
d="M150 444v164h1606v-164h-1606z" />
    <glyph glyph-name="quoteleft" unicode="&#x2018;" horiz-adv-x="517" 
d="M92 919l198 489h141l-119 -489h-220z" />
    <glyph glyph-name="quoteright" unicode="&#x2019;" horiz-adv-x="501" 
d="M109 919l111 489h223l-196 -489h-138z" />
    <glyph glyph-name="quotesinglbase" unicode="&#x201a;" horiz-adv-x="511" 
d="M55 -256l111 479h221l-193 -479h-139z" />
    <glyph glyph-name="quotedblleft" unicode="&#x201c;" horiz-adv-x="878" 
d="M454 919l198 489h141l-119 -489h-220zM92 919l198 489h141l-119 -489h-220z" />
    <glyph glyph-name="quotedblright" unicode="&#x201d;" horiz-adv-x="866" 
d="M474 919l111 489h223l-196 -489h-138zM109 919l111 489h223l-196 -489h-138z" />
    <glyph glyph-name="quotedblbase" unicode="&#x201e;" horiz-adv-x="875" 
d="M419 -256l110 479h222l-193 -479h-139zM55 -256l110 479h222l-193 -479h-139z" />
    <glyph glyph-name="bullet" unicode="&#x2022;" horiz-adv-x="807" 
d="M106 711c0 48 7.83105 91.332 23.498 129.999s36.834 71.334 63.501 98.001s58 47.167 94 61.5s74.667 21.5 116 21.5s80 -7.16699 116 -21.5s67.5 -35 94.5 -62s48.333 -59.667 64 -98s23.5 -81.5 23.5 -129.5c0 -47.333 -7.66699 -90 -23 -128s-36.5 -70.5 -63.5 -97.5
s-58.667 -47.833 -95 -62.5s-75.166 -22 -116.499 -22s-80 7.33301 -116 22s-67.5 35.5 -94.5 62.5s-48.167 59.5 -63.5 97.5s-23 80.667 -23 128z" />
    <glyph glyph-name="ellipsis" unicode="&#x2026;" horiz-adv-x="1752" 
d="M144 248h225v-248h-225v248zM762 248h227v-248h-227v248zM1382 248h226v-248h-226v248z" />
    <glyph glyph-name="guilsinglleft" unicode="&#x2039;" horiz-adv-x="605" 
d="M347 108l-254 387v19l255 386l142 -37l-208 -360l210 -362z" />
    <glyph glyph-name="guilsinglright" unicode="&#x203a;" horiz-adv-x="605" 
d="M319 502l-207 361l146 37l254 -389v-18l-254 -386l-145 34z" />
    <glyph glyph-name="fraction" unicode="&#x2044;" horiz-adv-x="910" 
d="M933 1400l-812 -1430h-149l813 1430h148z" />
    <glyph glyph-name="foursuperior" unicode="&#x2074;" horiz-adv-x="944" 
d="M557 285v238h-493v162l482 705h161v-728h157v-139h-157v-238h-150zM206 662h351v267l3 288l-123 -205z" />
    <glyph glyph-name="Euro" unicode="&#x20ac;" horiz-adv-x="1265" 
d="M1147 363c-0.666992 -20.667 -3.83008 -44.8281 -9.49707 -72.4951s-14.834 -55.834 -27.501 -84.501s-29.334 -56.834 -50.001 -84.501s-46.334 -52.5 -77.001 -74.5s-67.167 -39.667 -109.5 -53s-91.166 -20 -146.499 -20c-71.333 0 -134.833 11.167 -190.5 33.5
s-103.834 54.333 -144.501 96s-74.167 92.167 -100.5 151.5s-45.833 125.666 -58.5 198.999h-154l41 133h97c-1.33301 11.333 -2.33301 22.833 -3 34.5s-1 23.5 -1 35.5c0 9.33301 0.333008 21.166 1 35.499s1.66699 26.5 3 36.5h-139l43 133h110
c12.667 75.333 33.334 144.5 62.001 207.5s64.334 117.167 107.001 162.5s92 80.5 148 105.5s118 37.5 186 37.5c53.333 0 104 -8.5 152 -25.5s90.5 -42.5 127.5 -76.5s67.167 -76.5 90.5 -127.5s36.666 -110.5 39.999 -178.5h-184c-2.66699 38.667 -9 71.5 -19 98.5
s-22.333 49.667 -37 68s-30.667 32.666 -48 42.999s-34 18.166 -50 23.499s-30.5 8.66602 -43.5 9.99902s-22.5 2 -28.5 2c-37.333 0 -72.5 -8.5 -105.5 -25.5s-63 -41 -90 -72s-50.333 -68 -70 -111s-34.834 -90.167 -45.501 -141.5h452l-43 -133h-422
c-1.33301 -11.333 -2.5 -22.666 -3.5 -33.999s-1.5 -22.666 -1.5 -33.999c0 -24.667 2 -49.334 6 -74.001h401l-42 -133h-344c10 -45.333 23.333 -87.333 40 -126s37 -72.167 61 -100.5s52.167 -50.666 84.5 -66.999s69.166 -24.5 110.499 -24.5
c68.667 0 125.334 20 170.001 60s71.667 98 81 174z" />
    <glyph glyph-name="trademark" unicode="&#x2122;" horiz-adv-x="1603" 
d="M851 1226l-25 92v-618h-100v716h171l183 -566l189 566h161v-716h-100v622l-25 -92l-184 -530h-94zM310 1317h-198v99h500v-99h-207v-617h-95v617z" />
    <glyph glyph-name="minus" unicode="&#x2212;" horiz-adv-x="1268" 
d="M160 505v160h948v-160h-948z" />
    <glyph glyph-name=".null" horiz-adv-x="0" 
 />
    <glyph glyph-name="nonmarkingreturn" horiz-adv-x="0" 
 />
    <glyph glyph-name="uni0002" horiz-adv-x="0" 
 />
    </font>
</defs>
</svg>
